<?xml version="1.0" encoding="utf-8"?>
<!-- Designed by Vexels.com - 2016 All Rights Reserved - https://vexels.com/terms-and-conditions/  -->

<svg version="1.0" id="Capa_1" xmlns="http://www.w3.org/2000/svg" xmlns:xlink="http://www.w3.org/1999/xlink" x="0px" y="0px"
	 width="1200px" height="1199.999px" viewBox="0 0 1200 1199.999" enable-background="new 0 0 1200 1199.999" xml:space="preserve">
<g>
	<defs>
		<path id="SVGID_57_" d="M649.419,135.715l-10.416-7.569l19.025-81.173c0,0,4.827-9.05,18.309-7.766
			c0,0,89.482,11.261,109.295,21.85c0,0,9.548,5.532,8.796,12.858l-10.161,80.374l-13.274,4.328l12.441,6.736
			c0,0,5.729,6.064-13.39,4.93c0,0-19.374,49.949,4.571,131.121c0,0,46.454,127.153,29.153,169.406L753.83,732.488
			c0,0,5.636-0.162,4.074,11.377c0,0-49.88,148.909-50.215,160.68c0,0-12.882,49.37-3.322,77.99c0,0,7.893,103.128-45.667,172.809
			c0,0-133.61,30.147-256.886-49.787c0,0-28.18-107.768,12.823-177.067c0,0,27.521-40.321,27.487-76.474
			c0,0,10.346-160.726,10.311-163.863c0,0-0.034-13.065,6.55-14.93l49.278-258.112c0,0-6.99-12.511,14.374-43.399
			c21.445-30.877,37.405-62.738,66.939-97.074c0,0,52.692-58.005,58.524-125.464c0,0-20.252-8.158-12.706-11.723l12.094-1.459
			L649.419,135.715z"/>
	</defs>
	<clipPath id="SVGID_2_">
		<use xlink:href="#SVGID_57_"  overflow="visible"/>
	</clipPath>
	<g clip-path="url(#SVGID_2_)">
		<g>
			<polygon fill="#14327D" points="448.384,482.141 884.501,574.887 861.193,161.187 589.736,101.598 			"/>
			<path fill="#14327D" d="M404.024,627.799l-28.342,486.228c0,0,213.488,109.84,335.293,56.893
				c121.817-53.027,124.989-461.716,124.989-461.716L404.024,627.799z"/>
			<polygon fill="#EE2831" points="483.322,442.307 835.779,508.736 800.424,729.931 413.306,656.974 			"/>
			<polygon fill="#EE2831" points="639.339,28.677 620.127,130.565 836.103,171.268 849.551,66.196 			"/>
		</g>
		<polygon fill="#FFFFFF" points="647.81,498.61 663.746,555.63 719.725,574.864 670.413,607.627 669.44,666.835 623.056,630.044 
			566.428,647.415 587.063,591.923 553.05,543.444 612.223,545.921 		"/>
	</g>
</g>
</svg>
