<svg id="Layer_1" data-name="Layer 1" xmlns="http://www.w3.org/2000/svg" viewBox="0 0 500 500"><defs><style>.cls-1{fill:#f2ddd8;}.cls-2{fill:#fb7c61;}.cls-3{fill:#f99585;}</style></defs><title>ITALY</title><path class="cls-1" d="M362.67,190.37C349,196,335.89,204.63,321.16,204.44c-13.4-.18-25.4-7.69-37.65-13.12a129.89,129.89,0,0,0-99.81-1.78c-17.63,7.07-34.58,18.26-53.56,17.92-16.87-.3-32-9.71-48-15.1S45.45,187,35.78,200.83V206c9.67-13.83,30.37-13.87,46.35-8.47s31.14,14.8,48,15.1c19,.34,35.93-10.84,53.56-17.92a129.94,129.94,0,0,1,99.81,1.78c12.25,5.43,24.25,12.94,37.65,13.12,14.73.19,27.87-8.49,41.51-14.07,34.55-14.11,76.71-7.36,105.11,16.84v-5.2C439.38,183,397.22,176.26,362.67,190.37Z"/><path class="cls-2" d="M362.67,172.35c-13.64,5.57-26.78,14.25-41.51,14.06-13.4-.17-25.4-7.68-37.65-13.12a129.89,129.89,0,0,0-99.81-1.77c-17.63,7.07-34.58,18.26-53.56,17.92-16.87-.31-32-9.71-48-15.11S45.45,169,35.78,182.8v18C45.45,187,66.15,187,82.13,192.36s31.14,14.8,48,15.1c19,.34,35.93-10.85,53.56-17.92a129.89,129.89,0,0,1,99.81,1.78c12.25,5.43,24.25,12.94,37.65,13.12,14.73.19,27.87-8.49,41.51-14.07,34.55-14.11,76.71-7.36,105.11,16.84v-18C439.38,165,397.22,158.23,362.67,172.35Z"/><path class="cls-3" d="M362.67,195.57c-13.64,5.58-26.78,14.26-41.51,14.07-13.4-.18-25.4-7.69-37.65-13.12a129.94,129.94,0,0,0-99.81-1.78c-17.63,7.08-34.58,18.26-53.56,17.92-16.87-.3-32-9.7-48-15.1S45.45,192.2,35.78,206v31.58c9.67-13.82,30.37-13.86,46.35-8.47s31.14,14.81,48,15.11c19,.34,35.93-10.85,53.56-17.92a129.89,129.89,0,0,1,99.81,1.78c12.25,5.43,24.25,12.94,37.65,13.11,14.73.2,27.87-8.48,41.51-14.06,34.55-14.11,76.71-7.36,105.11,16.84V212.41C439.38,188.21,397.22,181.46,362.67,195.57Z"/><path class="cls-2" d="M362.67,227.16c-13.64,5.58-26.78,14.26-41.51,14.06-13.4-.17-25.4-7.68-37.65-13.11a129.89,129.89,0,0,0-99.81-1.78c-17.63,7.07-34.58,18.26-53.56,17.92-16.87-.3-32-9.71-48-15.11s-36.68-5.35-46.35,8.47v10c9.67-13.83,30.37-13.87,46.35-8.47s31.14,14.8,48,15.1c19,.34,35.93-10.84,53.56-17.92a129.94,129.94,0,0,1,99.81,1.78c12.25,5.43,24.25,12.94,37.65,13.12,14.73.19,27.87-8.49,41.51-14.07C397.22,223,439.38,229.75,467.78,254V244C439.38,219.8,397.22,213.05,362.67,227.16Z"/><path class="cls-1" d="M362.67,237.11c-13.64,5.58-26.78,14.26-41.51,14.07-13.4-.18-25.4-7.69-37.65-13.12a129.94,129.94,0,0,0-99.81-1.78c-17.63,7.08-34.58,18.26-53.56,17.92-16.87-.3-32-9.7-48-15.1s-36.68-5.36-46.35,8.47v17.74c9.67-13.83,30.37-13.87,46.35-8.47s31.14,14.8,48,15.1c19,.35,35.93-10.84,53.56-17.92a129.94,129.94,0,0,1,99.81,1.78c12.25,5.43,24.25,12.94,37.65,13.12,14.73.19,27.87-8.49,41.51-14.07,34.55-14.11,76.71-7.36,105.11,16.84V254C439.38,229.75,397.22,223,362.67,237.11Z"/><path class="cls-2" d="M362.67,254.85c-13.64,5.58-26.78,14.26-41.51,14.07-13.4-.18-25.4-7.69-37.65-13.12A129.94,129.94,0,0,0,183.7,254c-17.63,7.08-34.58,18.27-53.56,17.92-16.87-.3-32-9.7-48-15.1s-36.68-5.36-46.35,8.47v34.42c9.67-13.83,30.37-13.87,46.35-8.47s31.14,14.8,48,15.1c19,.35,35.93-10.84,53.56-17.92a129.94,129.94,0,0,1,99.81,1.78c12.25,5.43,24.25,12.94,37.65,13.12,14.73.19,27.87-8.49,41.51-14.07,34.55-14.11,76.71-7.36,105.11,16.84V271.69C439.38,247.49,397.22,240.74,362.67,254.85Z"/></svg>