<?xml version="1.0" encoding="utf-8"?>
<!-- Generator: Adobe Illustrator 23.0.3, SVG Export Plug-In . SVG Version: 6.00 Build 0)  -->
<svg version="1.1" id="Layer_1" xmlns="http://www.w3.org/2000/svg" xmlns:xlink="http://www.w3.org/1999/xlink" x="0px" y="0px"
	 viewBox="0 0 1200 1200" enable-background="new 0 0 1200 1200" xml:space="preserve">
<g>
	<path fill="#303030" d="M1142.569,797.151c-2.838,31.434-30.666,58.71-62.151,60.917c3.264,59.75-33.204,116.499-81.916,151.253
		c-48.712,34.755-108.201,50.778-167.059,61.575c-122.009,22.38-247.462,25.05-370.568,9.818
		c-64.063-7.926-128.5-21.002-185.856-50.619c-57.356-29.617-107.433-77.535-128.579-138.524
		c-24.822,6.251-52.621-1.021-71.202-18.626s-27.342-44.972-22.438-70.094c6.622-33.928,34.905-59.213,48.66-90.927
		c-27.346,4.286-54.843-22.653-51.119-50.081c1.443-10.63,6.633-20.331,11.735-29.768c8.536-15.79,17.194-31.755,29.289-45.017
		c8.58-9.409,18.935-17.532,24.922-28.77c4.778-8.968,6.397-19.274,7.083-29.412c2.629-38.843-7.353-77.662-5.34-116.541
		c10.688-206.405,322.409-294.582,488.102-301.988c164.891-7.371,340.891,48.037,441.182,179.129
		c27.212,35.569,48.703,77.405,50.784,122.141c2.104,45.224-14.792,94.732,8.719,133.421c15.242,25.083,46.798,44.916,42.843,73.999
		c-2.451,18.025-18.415,31.006-25.525,47.749c-7.501,17.664-4.431,35.971,1.203,54.635
		C1132.833,746.255,1144.865,771.722,1142.569,797.151z"/>
	<path fill="#FFFFFF" d="M233.175,392.019c-5.37,1.613-10.569-6.152-5.786-9.94c2.793-2.213,5.124-5.201,8.015-7.475
		c2.314-1.82,4.611-3.705,6.848-5.618c5.145-4.401,9.242-11.269,16.557-11.454c4.266-0.108,6.828,3.429,7.246,7.246
		c0.816,7.434-7.758,13.521-12.934,17.664c-2.974,2.38-6.065,4.544-9.429,6.343C240.096,390.706,236.909,390.897,233.175,392.019
		L233.175,392.019z M372.405,331.981c7.187,7.525,14.863,13.919,23.852,19.257c4.213,2.501,9.951,0.952,12.411-3.254
		c2.731-4.67,0.65-9.425-3.254-12.411c-8.286-6.338-16.981-10.726-26.605-14.594C372.356,318.386,368.233,327.613,372.405,331.981
		L372.405,331.981z M411.333,247.646c7.671-3.386,15.468-3.477,23.631-2.485c9.625,1.169,10.275-13.147,2.167-16.008
		c-11.722-4.137-25.085-0.33-33.564,8.427C398.204,243.118,404.939,250.469,411.333,247.646L411.333,247.646z M537.174,330.686
		c3.702,7.48,9.983,13.224,16.125,18.768c2.387,2.155,5.987,3.604,9.213,2.435c3.356-1.216,5.69-3.011,6.614-6.614
		c0.809-3.158,0.068-6.954-2.435-9.213c-6.732-6.076-13.472-11.934-22.018-15.13C538.792,318.732,534.845,325.979,537.174,330.686
		L537.174,330.686z M608.876,213.876c9.591,2.401,20.612,0.814,30.181-0.96c9.731-1.803,7.514-17.74-2.337-17.266
		c-9.685,0.466-20.705,1.587-29.43,6.089C602.205,204.363,603.481,212.526,608.876,213.876L608.876,213.876z M674.476,398.562
		c4.411-2.346,8.706-4.861,13.016-7.388c4.394-2.576,9.456-5.062,11.865-9.75c3.224-6.274-2.061-12.159-8.558-11.133
		c-5.138,0.812-9.146,5.127-12.914,8.43c-3.73,3.27-7.445,6.532-11.035,9.955C661.548,393.732,668.286,401.854,674.476,398.562
		L674.476,398.562z M837.338,251.122c8.163,1.822,14.131,6.685,20.183,12.176c7.359,6.677,20.93-2.211,14.536-11.215
		c-7.562-10.649-20.042-15.528-32.923-14.231C832.096,238.561,829.329,249.335,837.338,251.122L837.338,251.122z M943.801,325.75
		c-1.506,10.937-2.657,22.145-1.987,33.195c0.675,11.145,16.661,11.165,17.337,0c0.67-11.052-0.48-22.256-1.987-33.195
		C956.253,319.134,944.713,319.13,943.801,325.75L943.801,325.75z M500.123,444.444c2.441,5.61,5.592,10.609,9.597,15.244
		c4.092,4.735,9.754,10.471,16.386,10.4c6.83-0.073,9.625-6.872,7.167-12.49c-1.932-4.417-7.704-7.076-11.246-10.217
		c-3.459-3.067-6.751-6.455-9.44-10.222C507.119,429.498,496.431,435.96,500.123,444.444L500.123,444.444z M705.962,266.686
		c-1.215,7.182-3.147,14.04-2.568,21.451c0.468,5.991,1.261,12.992,5.241,17.634c1.443,1.683,4.685,1.679,6.124,0
		c3.979-4.641,4.772-11.656,5.241-17.634c0.579-7.394-1.355-14.281-2.568-21.451C716.471,261.01,706.923,261.006,705.962,266.686
		L705.962,266.686z M316.325,424.302c5.734,7.952,12.611,15.591,20.153,21.861c8.043,6.687,19.496-4.191,11.691-11.691
		c-7.096-6.818-15.519-13.091-24.102-17.912C319.466,413.976,312.849,419.481,316.325,424.302L316.325,424.302z M827.894,435.936
		c5.908-7.049,12.617-14.905,15.646-23.691c2.398-6.955-7.258-12.107-12.128-7.06c-6.032,6.252-9.858,15.358-13.222,23.264
		c-1.222,2.872-1.054,5.929,1.591,7.97C822.036,438.158,825.911,438.302,827.894,435.936L827.894,435.936z"/>
	<path fill="#D89F79" d="M181.319,489.278c-40.669-38.864-35.298-92.978-7.973-137.796c-1.602,27.604,5.429,55.289,22.277,77.782
		c24.173,32.269,62.704,39.318,99.98,46.759c73.834,14.74,148.409,24.979,223.833,20.062c75.86-4.945,151.615-13.462,227.32-20.376
		c67.153-6.133,136.732-8.615,201.004-30.892c29.955-10.382,62.615-26.388,83.478-51.017c8.555-10.1,13.139-21.202,15.898-32.811
		c2.302,4.718,4.514,9.486,6.556,14.343c10.088,23.979,15.451,51.377,3.666,75.797c-19.614,40.648-71.321,47.101-110.637,55.303
		c-96.551,20.142-198.076,26.573-296.44,31.414c-102.13,5.025-204.549,4.385-306.608-1.907
		C288.425,532.533,223.679,529.759,181.319,489.278z"/>
	<path fill="#826654" d="M1063.141,516.698c0.568,10.082-1.367,20.482-5.777,29.593c-3.15,6.506-9.147,13.321-8.541,21.067
		c0.358,4.572,3.884,9.299,5.159,13.694c5.349,18.448-4.735,33.214-21.622,40.422c-11.585,4.944-25.667,4.003-36.476,10.787
		c-8.741,5.488-14.25,15.162-22.622,21.236c-18.776,13.62-41.929,12.308-63.871,10.09c-13.169-1.331-26.191-2.891-39.416-1.444
		c-12.444,1.362-24.569,4.725-36.98,6.365c-11.705,1.546-23.532,1.571-34.759-2.429c-9.409-3.352-17.757-12.813-27.716-9.34
		c-9.899,3.453-17.082,12.476-27.572,15.753c-11.299,3.53-23.464,3.672-35.171,3.123c-29.057-1.362-57.884-5.882-86.977-6.758
		c-17.559-0.529-35.248,0.095-52.497,3.653c-10.743,2.217-21.281,6.432-32.328,6.972c-13.695,0.67-25.269-4.435-37.89-9.005
		c-6.04-2.187-12.059-3.708-18.109-4.597c-18.509,1.419-37.193,5.825-55.849,5.239c-26.219-0.824-50.542-7.205-76.097-12.146
		c-14.75-2.851-29.222,2.057-43.453-1.044c-4.888-1.065-9.064-3.798-13.739-5.466c-8.001-2.855-14.965-2.624-23.28-3.213
		c-8.709-0.618-15.673-2.099-22.817-7.398c-3.127-2.319-5.214-5.828-8.249-8.141c-7.329-5.586-13.519-5.255-22.505-5.679
		c-38.625-1.82-70.55-33.835-56.947-74.341c4.018-11.964,7.135-20.232,3.674-33.132c-2.389-8.904-3.009-17.245-0.321-26.248
		c2.017-6.757,5.378-12.631,9.607-17.803c3.29,4.404,7.035,8.676,11.319,12.77c42.36,40.481,107.106,43.255,162.354,46.661
		c102.059,6.292,204.479,6.932,306.608,1.907c98.364-4.84,199.888-11.272,296.44-31.414c31.154-6.499,70.03-11.968,94.612-34.154
		C1054.122,483.608,1062.163,499.337,1063.141,516.698z"/>
	<path fill="#83BF79" d="M672.773,672.878c-0.936,2.719-1.905,5.378-3.06,7.823c-9.911,20.994-27.417,25.857-48.787,29.426
		c-6.384,1.066-14.211,1.693-19.652,5.47c-6.321,4.387-6.96,11.27-10.673,17.671c-4.441,7.656-11.72,12.394-20.196,14.504
		c-10.552,2.627-21.6,0.724-31.581-3.081c-5.571-2.124-10.854-4.884-16.351-7.171c-4.858-2.021-13.26-5.593-19.119-5.195
		c-7.226,0.491-18.279,6.213-14.815,16.372c1.912,5.605-3.068,10.673-8.345,10.954c-16.741,0.892-26.576-10.477-36.173-22.611
		c-5.623-7.109-12.438-18.069-21.924-20.567c-16.288-4.289-29.389,13.197-39.885,22.361c-13.039,11.384-27.78,12.946-38.062-2.319
		c-7.417-11.013-10.931-20.918-25.893-22.31c-14.165-1.318-21.585,6.288-28.337,17.395c-7.972,13.113-19.2,26.633-35.648,15.226
		c-5.661-3.926-9.4-10.207-12.023-16.434c-4.679-11.107-3.218-39.582-24.319-31.322c-8.391,3.284-13.811,13.43-22.678,17.092
		c-7.237,2.99-16.075,4.228-23.063-0.249c-5.285-3.385-7.279-8.887-8.463-14.685c-2.366-11.591-1.992-24.809-1.882-37.297
		c-21.73,9.627-45.292,13.345-69.234,10.433c-6.495-0.79-9.881-9.092-3.505-12.943c7.326-4.425,17.13-9.676,19.685-18.614
		c1.58-5.526-0.796-11.893-0.046-17.559c1.045-7.895,5.407-14.278,11.646-19.027c10.341-7.87,25.427-8.282,39.079-10.593
		c9.697,18.813,30.837,31.289,54.517,32.404c8.986,0.424,15.177,0.093,22.505,5.679c3.035,2.314,5.122,5.823,8.249,8.141
		c7.144,5.299,14.108,6.78,22.817,7.398c8.315,0.589,15.279,0.358,23.28,3.213c4.675,1.668,8.851,4.402,13.739,5.466
		c14.231,3.1,28.703-1.808,43.453,1.044c25.555,4.941,49.878,11.322,76.097,12.146c18.656,0.586,37.34-3.82,55.849-5.239
		c6.05,0.888,12.069,2.409,18.109,4.597c12.621,4.57,24.195,9.675,37.89,9.005c11.047-0.54,21.585-4.755,32.328-6.972
		c17.249-3.558,34.938-4.182,52.497-3.653C638.184,669.381,655.474,671.204,672.773,672.878z M798.236,666.079
		c-9.409-3.352-17.757-12.813-27.716-9.34c-6.341,2.212-11.575,6.699-17.27,10.508c18.006,9.042,34.83,11.735,57.755,4.844
		c3.184-0.957,6.248-1.859,9.248-2.631C812.795,669.533,805.393,668.628,798.236,666.079z M1111.704,610.987
		c-2.802-12.989-19.438-24.201-29.396-31.727c-10.122-7.649-20.901-13.955-32.239-19.252c-0.891,2.367-1.445,4.804-1.246,7.35
		c0.358,4.572,3.884,9.299,5.159,13.694c5.349,18.448-4.735,33.214-21.622,40.422c-11.585,4.944-25.667,4.003-36.476,10.787
		c-8.741,5.488-14.25,15.162-22.622,21.236c-18.776,13.62-41.929,12.308-63.871,10.09c-13.169-1.331-26.191-2.891-39.416-1.444
		c-10.124,1.108-20.043,3.499-30.071,5.25c3.888,0.399,7.85,1.375,12.005,3.177c11.107,4.813,20.418,13.136,29.415,21.026
		c15.624,13.702,31.299,29.291,51.487,35.991c14.873,4.937,38.878,6.132,39.762-15.073c0.671-16.12-10.736-36.633,11.005-43.019
		c15.062-4.424,30.769,3.583,45.971-2.827c10.664-4.496,17.285-16.297,16.636-27.02
		C1073.336,638.77,1116.877,634.969,1111.704,610.987z"/>
	<path fill="#ED4040" d="M1083.008,711.972c-8.995,25.672-35.389,40.394-58.507,51.636c-27.552,13.399-57.04,21.996-87.211,27.014
		c-61.57,10.241-128.073,11.027-189.925,2.439c-40.424-5.613-85.729-21.754-110.836-54.747
		c-13.372,20.689-32.041,37.215-52.347,51.092c-87.735,59.96-202.883,65.657-304.666,48.447
		c-49.412-8.354-103.426-29.937-131.76-73.834c-12.818-19.858-17.983-45.061-9.138-67.525c5.235-13.294,13.483-22.048,23.197-29.681
		c-0.124,11.623-0.274,23.708,1.911,34.413c1.184,5.798,3.178,11.3,8.463,14.685c6.988,4.477,15.826,3.239,23.063,0.249
		c8.867-3.662,14.287-13.808,22.678-17.092c21.101-8.26,19.639,20.216,24.319,31.322c2.623,6.227,6.362,12.508,12.023,16.434
		c16.448,11.406,27.677-2.113,35.648-15.226c6.752-11.107,14.172-18.713,28.337-17.395c14.962,1.392,18.475,11.297,25.893,22.31
		c10.281,15.264,25.022,13.703,38.062,2.319c10.497-9.164,23.597-26.65,39.885-22.361c9.486,2.498,16.301,13.458,21.924,20.567
		c9.597,12.134,19.432,23.503,36.173,22.611c5.276-0.281,10.257-5.349,8.345-10.954c-3.464-10.159,7.589-15.881,14.815-16.372
		c5.86-0.397,14.261,3.174,19.119,5.195c5.497,2.287,10.78,5.047,16.351,7.171c9.98,3.805,21.028,5.708,31.581,3.081
		c8.475-2.109,15.755-6.847,20.196-14.504c3.713-6.401,4.352-13.284,10.673-17.671c5.441-3.777,13.268-4.404,19.652-5.47
		c21.37-3.569,38.876-8.432,48.787-29.426c1.154-2.445,2.124-5.103,3.06-7.823c-2.877-0.278-5.754-0.559-8.63-0.839
		c14.528,1.414,29.052,2.892,43.634,3.576c11.707,0.549,23.872,0.407,35.171-3.123c3.772-1.179,7.11-3.11,10.306-5.249
		c-0.001,0.001-0.003,0.002-0.005,0.003c18.006,9.042,34.83,11.735,57.755,4.844c3.184-0.957,6.248-1.859,9.248-2.631
		c-0.001,0-0.003,0-0.004,0c4.242-0.042,8.501-0.392,12.745-0.953c2.314-0.306,4.612-0.713,6.91-1.115
		c3.888,0.399,7.849,1.375,12.005,3.177c11.107,4.813,20.418,13.136,29.415,21.026c15.624,13.702,31.299,29.291,51.487,35.991
		c14.873,4.937,38.878,6.132,39.762-15.073c0.671-16.12-10.736-36.633,11.005-43.019c15.062-4.424,30.769,3.583,45.971-2.827
		c10.664-4.496,17.285-16.297,16.636-27.02c6.402-0.207,13.716-0.582,21.086-1.34
		C1083.953,658.985,1091.705,687.151,1083.008,711.972z"/>
	<path fill="#EDBA3A" d="M1089.933,816.779c-15.898,8.695-38.904,4.621-56.05,3.109c-18.8-1.659-37.452-4.5-56.128-7.163
		c-40.151-5.724-79.932-9.514-120.266-5.079c-22.38,21.166-46.783,40.345-71.18,59.199c-35.011,27.056-77.52,68.075-125.623,57.521
		c-26.461-5.806-50.995-21.428-76.128-31.196c-25.064-9.741-50.692-17.936-76.462-25.586c-27.137-8.057-54.407-15.353-81.254-23.818
		c56.115-5.888,110.616-22.426,157.34-54.359c20.306-13.877,38.974-30.404,52.347-51.092
		c25.107,32.992,70.412,49.134,110.836,54.747c61.851,8.588,128.354,7.802,189.925-2.439c30.171-5.018,59.659-13.615,87.211-27.014
		c15.333-7.457,32.079-16.467,44.262-29.165c8.961,3.763,17.217,8.998,24.179,16.336
		C1109.635,768.372,1114.582,803.297,1089.933,816.779z M279.517,837.854c-49.412-8.354-103.426-29.937-131.76-73.834
		c-4.367-6.766-7.817-14.159-10.156-21.845c-18.321,14.768-33.932,33.014-43.488,53.663c-6.386,13.801-12.363,32.24,0.217,44.535
		c13.408,13.104,39.514,14.787,57.009,16.849c47.494,5.599,95.617-2.427,140.771-17.384
		C287.894,839.212,283.691,838.56,279.517,837.854z"/>
	<path fill="#F7C59F" d="M992.273,967.788c-0.34,0.292-0.671,0.595-1.014,0.884c-47.701,40.191-112.201,56.404-172.256,67.263
		c-68.253,12.342-137.989,15.981-207.238,17.169c-66.583,1.142-133.722-1.783-199.07-15.438
		c-25.013-5.227-50.405-12.171-75.048-21.23c-20.738-8.642-42.595-19.27-52.688-39.027c-17.51-34.279,13.753-54.008,43.117-61.481
		c61.407-15.628,124.708,6.383,183.975,21.18c59.521,14.86,114.647,18.473,174.474,3.276
		c62.103-15.775,123.405-31.522,187.128-39.649c29.304-3.738,74.409-15.272,101.514,0.687
		C999.352,915.66,999.598,943.276,992.273,967.788z"/>
	<path fill="#D89F79" d="M1035.879,823.713c20.156,51.387-3.517,109.656-43.606,144.074c7.325-24.512,7.079-52.128-17.105-66.367
		c-27.106-15.959-72.21-4.424-101.514-0.687c-63.723,8.127-125.025,23.874-187.128,39.649
		c-59.827,15.197-114.953,11.584-174.474-3.276c-59.267-14.797-122.569-36.808-183.975-21.18
		c-29.364,7.473-60.627,27.202-43.117,61.481c10.092,19.757,31.95,30.385,52.688,39.027c-34.318-12.617-67.171-29.368-95.427-51.56
		c-32.53-25.548-59.845-64.402-63.603-105.896c38.503,0.513,76.969-7.043,113.491-19.141c-0.003,0-0.005-0.001-0.009-0.001
		c43.844,6.517,89.807,8.643,134.742,3.928c0,0-0.001,0-0.001,0c26.847,8.465,54.117,15.761,81.254,23.818
		c25.769,7.65,51.398,15.845,76.462,25.586c25.133,9.768,49.666,25.391,76.128,31.196c48.103,10.554,90.612-30.466,125.623-57.521
		c24.396-18.853,48.8-38.033,71.18-59.199c40.335-4.434,80.115-0.644,120.266,5.079c18.675,2.662,37.328,5.503,56.128,7.163
		c0.102,0.009,0.21,0.02,0.313,0.03C1034.753,821.185,1035.369,822.414,1035.879,823.713z"/>
	<path fill="#F7C59F" d="M821.442,174.763c-114.006-39.37-242.364-35.693-357.928-4.711
		c-106.546,28.564-229.107,83.209-289.364,180.096c-0.279,0.448-0.532,0.906-0.805,1.356c-1.597,27.596,5.434,55.274,22.278,77.76
		c24.173,32.269,62.704,39.318,99.98,46.759c73.834,14.74,148.409,24.979,223.833,20.062c75.86-4.945,151.615-13.462,227.32-20.376
		c67.153-6.133,136.732-8.615,201.004-30.892c29.955-10.382,62.615-26.388,83.478-51.017c8.555-10.1,13.139-21.202,15.898-32.81
		C1003.365,271.283,913.888,206.688,821.442,174.763z M253.121,382.441c-2.974,2.38-6.064,4.544-9.428,6.342
		c-3.596,1.923-6.784,2.114-10.517,3.235c-5.37,1.613-10.569-6.152-5.787-9.94c2.794-2.212,5.124-5.201,8.015-7.475
		c2.314-1.821,4.612-3.704,6.848-5.618c5.145-4.401,9.242-11.269,16.557-11.454c4.266-0.108,6.828,3.43,7.246,7.246
		C266.871,372.212,258.297,378.298,253.121,382.441z M336.478,446.163c-7.542-6.27-14.419-13.909-20.153-21.861
		c-3.477-4.821,3.141-10.327,7.742-7.742c8.583,4.821,17.005,11.095,24.102,17.913C355.975,441.972,344.521,452.85,336.478,446.163z
		 M408.668,347.984c-2.46,4.206-8.199,5.756-12.411,3.254c-8.99-5.337-16.666-11.732-23.852-19.257
		c-4.172-4.368-0.048-13.595,6.404-11.002c9.624,3.868,18.319,8.256,26.605,14.594C409.317,338.559,411.399,343.314,408.668,347.984
		z M434.964,245.161c-8.163-0.992-15.96-0.9-23.631,2.486c-6.394,2.822-13.129-4.528-7.767-10.066
		c8.479-8.757,21.842-12.564,33.564-8.427C445.239,232.014,444.589,246.33,434.964,245.161z M526.107,470.087
		c-6.632,0.071-12.294-5.664-16.386-10.4c-4.005-4.635-7.156-9.634-9.597-15.243c-3.692-8.484,6.996-14.946,12.464-7.286
		c2.689,3.768,5.981,7.155,9.441,10.222c3.542,3.141,9.314,5.8,11.246,10.217C535.731,463.215,532.936,470.014,526.107,470.087z
		 M569.126,345.275c-0.923,3.603-3.258,5.398-6.614,6.614c-3.227,1.169-6.826-0.281-9.213-2.435
		c-6.141-5.544-12.422-11.288-16.125-18.768c-2.329-4.706,1.619-11.954,7.499-9.754c8.546,3.196,15.286,9.054,22.018,15.13
		C569.194,338.321,569.936,342.116,569.126,345.275z M639.057,212.916c-9.569,1.774-20.59,3.361-30.181,0.96
		c-5.395-1.351-6.671-9.513-1.586-12.136c8.726-4.502,19.745-5.622,29.431-6.089C646.572,195.176,648.788,211.113,639.057,212.916z
		 M699.356,381.424c-2.409,4.688-7.471,7.173-11.864,9.75c-4.31,2.527-8.605,5.042-13.016,7.388
		c-6.189,3.292-12.928-4.83-7.627-9.885c3.59-3.423,7.306-6.685,11.035-9.955c3.768-3.303,7.776-7.618,12.914-8.43
		C697.295,369.265,702.58,375.15,699.356,381.424z M720,288.138c-0.468,5.978-1.262,12.993-5.241,17.633
		c-1.439,1.679-4.681,1.684-6.124,0c-3.981-4.642-4.773-11.643-5.241-17.633c-0.579-7.412,1.353-14.27,2.568-21.452
		c0.961-5.68,10.509-5.676,11.47,0C718.645,273.857,720.579,280.743,720,288.138z M843.541,412.245
		c-3.03,8.786-9.739,16.642-15.646,23.691c-1.983,2.366-5.859,2.222-8.113,0.483c-2.644-2.041-2.813-5.098-1.591-7.97
		c3.364-7.905,7.19-17.012,13.222-23.264C836.283,400.137,845.939,405.289,843.541,412.245z M857.521,263.298
		c-6.052-5.492-12.02-10.355-20.183-12.176c-8.009-1.787-5.242-12.561,1.796-13.27c12.881-1.297,25.361,3.582,32.923,14.231
		C878.451,261.088,864.88,269.976,857.521,263.298z M959.151,358.946c-0.676,11.165-16.662,11.145-17.337,0
		c-0.669-11.051,0.481-22.259,1.988-33.195c0.911-6.62,12.451-6.616,13.362,0C958.67,336.689,959.821,347.893,959.151,358.946z
		 M173.346,351.482c0,0.007,0,0.014-0.001,0.022c-0.846,1.397-1.688,2.794-2.495,4.206
		C171.66,354.291,172.493,352.882,173.346,351.482z"/>
</g>
</svg>
