<svg id="Layer_1" data-name="Layer 1" xmlns="http://www.w3.org/2000/svg" viewBox="0 0 500 500"><defs><style>.cls-1{fill:#fed173;}.cls-2{fill:#d38926;}.cls-3{fill:#fceebe;}</style></defs><title>ITALY</title><path class="cls-1" d="M443.82,370.72H59.75a24,24,0,0,1-24-24V155.81h432v191a24,24,0,0,1-24,24Z"/><path class="cls-2" d="M35.78,155.81l166-28.69,166-28.7A24.16,24.16,0,0,1,385.07,102l41.36,26.92,41.35,26.91h-432Z"/><path class="cls-3" d="M47.12,229.3a18.62,18.62,0,0,0-6.09,1,19,19,0,0,0-5.25,2.81V263A19,19,0,0,0,41,265.83a18.77,18.77,0,1,0,6.09-36.53Z"/><path class="cls-3" d="M210.17,339a38.54,38.54,0,1,0-72.52,18.19,38.82,38.82,0,0,0,12.11,13.54h43.73a38.75,38.75,0,0,0,12.12-13.54A38.33,38.33,0,0,0,210.17,339Z"/><path class="cls-3" d="M267.48,306.38a19.77,19.77,0,1,0-14-5.79A19.74,19.74,0,0,0,267.48,306.38Z"/><path class="cls-3" d="M265.5,249.06a13.83,13.83,0,1,0-9.78-4.05A13.83,13.83,0,0,0,265.5,249.06Z"/><path class="cls-3" d="M360.37,262.9a27.67,27.67,0,1,0-19.57-8.11A27.55,27.55,0,0,0,360.37,262.9Z"/><path class="cls-3" d="M312.94,302.42a11.85,11.85,0,1,0,3.47-8.38A11.81,11.81,0,0,0,312.94,302.42Z"/><path class="cls-3" d="M449.3,282.66a9.9,9.9,0,1,0,7,2.9A9.85,9.85,0,0,0,449.3,282.66Z"/><path class="cls-3" d="M429.54,338a7.89,7.89,0,1,0-2.31,5.59A7.88,7.88,0,0,0,429.54,338Z"/><path class="cls-3" d="M152.85,203.61a17.79,17.79,0,1,0-5.21,12.57A17.74,17.74,0,0,0,152.85,203.61Z"/></svg>