<?xml version="1.0" encoding="utf-8"?>
<!-- Generator: Adobe Illustrator 23.0.3, SVG Export Plug-In . SVG Version: 6.00 Build 0)  -->
<svg version="1.1" id="Capa_1" xmlns="http://www.w3.org/2000/svg" xmlns:xlink="http://www.w3.org/1999/xlink" x="0px" y="0px"
	 viewBox="0 0 1200 1200" enable-background="new 0 0 1200 1200" xml:space="preserve">
<g>
	<path fill="#FAE9DA" d="M1149.784,754.592c-3.812-38.641-40.805-69.689-85.766-92.565c36.686-21.618,66.292-53.56,71.052-100.707
		c3.95-39.122-3.492-70.507-22.121-93.286c-21.632-26.448-58.056-41.88-111.358-47.18c-8.47-0.838-25.25-0.41-35.749-0.019
		c1.181-22.877,0.324-36.843,0.298-37.227c-0.06-0.87-0.217-1.796-0.423-2.747c-0.079-0.373-0.181-0.753-0.283-1.134
		c-0.151-0.558-0.332-1.128-0.533-1.709c-0.167-0.489-0.326-0.974-0.528-1.475c-0.198-0.487-0.45-0.996-0.683-1.496
		c-0.459-0.991-0.983-1.997-1.575-3.023c-0.285-0.495-0.569-0.988-0.886-1.494c-0.351-0.556-0.724-1.116-1.113-1.68
		c-0.482-0.704-1.006-1.419-1.552-2.141c-0.293-0.384-0.566-0.764-0.876-1.152c-7.404-9.335-20.078-19.994-39.766-30.542
		c-0.019-0.011-0.035-0.019-0.049-0.027c-0.005-0.002-0.008-0.003-0.011-0.006c-0.013-0.006-0.024-0.011-0.032-0.016l-0.037,0.07
		c-9.013-4.846-19.264-9.594-30.959-14.076c-46.778-17.93-134.118-38.801-284.632-36.36
		c-226.916,3.665-359.663,36.052-365.429,88.969c-0.084,0.727-0.145,1.436-0.175,2.118l-0.04,0.882l0.002,0.01
		c-0.85,20.513-4.411,156.526,45.017,243.705c-2.228,0.046-3.821,0.079-4.686,0.097l-1.126,0.095
		c-8.886,1.311-217.715,33.228-225.597,128.8c-1.445,17.532,6.477,34.69,23.546,50.996
		c69.817,66.695,292.21,114.548,525.705,114.548c10.451,0,20.962-0.095,31.446-0.29c231.586-4.3,436.828-51.242,499.113-114.154
		C1144.655,785.551,1151.319,770.147,1149.784,754.592z M958.712,493.122c21.017-6.003,64.751-18.494,92.578-1.211
		c12.859,7.985,21.182,21.871,24.738,41.272c3.765,20.54-0.142,39.048-11.611,55.01c-15.881,22.099-43.494,36.612-69.824,45.986
		c-25.718-8.072-50.079-13.579-68.866-16.413c-2.265-0.342-5.196-0.655-8.705-0.944c1.685-3.448,3.35-6.945,4.967-10.545
		c17.818-39.658,28.567-78.654,35.03-112.673C957.567,493.449,958.122,493.29,958.712,493.122z"/>
	<path fill="#E6D0BD" d="M1102.831,476.307c16.584,20.277,22.876,47.655,19.237,83.701
		c-10.652,105.497-162.875,128.277-209.276,132.746c-11.385,1.096-21.052,1.742-29.583,2.312
		c-7.335,0.489-13.887,0.944-20.063,1.576c10.369-11.417,20.999-24.763,31.226-40.2c9.543,6.265,23.278,8.2,40.961,5.652
		c24.1-3.479,105.395-18.541,139.697-66.275c13.621-18.956,18.281-40.822,13.853-64.991c-4.248-23.179-14.577-40.009-30.7-50.021
		c-30.764-19.107-74.537-8.288-98.644-1.505c2.738-16.836,4.429-32.141,5.452-45.356c10.022-0.391,27.27-0.891,35.307-0.088
		C1049.97,438.798,1083.51,452.683,1102.831,476.307z M263.649,374.494c0.503,6.858,5.657,13.309,15.316,19.175
		c38.785,23.546,109.99,51.162,318.096,55.753c199.64,4.406,322.9-35.261,335.794-58.703c1.645-2.99,2.533-5.931,2.722-8.874
		c-7.607,3.697-14.522,6.877-16.972,7.797c-38.814,14.579-71.927-8.135-114.663-16.242c-65.37-12.402-130.834-20.53-197.058-22.066
		c-76.992-1.786-180.324,19.731-254.615,42.947c-21.396,6.686-64.255,1.416-87.076-28.547
		C264.079,368.577,263.432,371.55,263.649,374.494z M268.839,735.722c-68.568,57.679,83.419,117.017,301.113,117.041
		c226.837,0.025,292.763-25.813,345.709-39.932c14.984-3.996,30.49-11.14,31.966-24.973c1.241-11.627-27.41-21.939-28.969-30.967
		c-1.691-9.794,51.459-14.384,73.421-22.476c26.96-9.933,9.555-30.603-39.444-34.041c-15.725,2.845-29.221,4.486-38.589,5.388
		c-11.576,1.115-21.346,1.768-29.966,2.342c-14.496,0.968-25.444,1.732-36.002,4.062c-5.385,5.182-10.584,9.813-15.501,13.942
		c33.336,13.625,71.014,36.974,47.573,66.3c-21.414,26.789-70.809,32.771-102.161,37.834c-14.77,2.385-29.651,4.289-44.568,5.483
		c38.344-7.692,78.378-15.206,113.75-32.601c11.947-5.875,31.832-15.502,27.223-31.513c-4.621-16.055-27.374-25.486-41.237-31.098
		c-4.258-1.724-8.538-3.241-12.827-4.673c-9.664,7.254-17.414,12.076-21.991,14.721v20.263l-0.584,1.461
		c-2.047,5.115-24.628,50.071-185.095,53.081c-4.863,0.091-9.615,0.136-14.259,0.136c-150.022,0-187.703-46.215-189.278-48.242
		l-0.716-0.921l-10.097-25.528c-3.405-2.72-11.273-9.31-23.616-21.315c-16.376,3.555-32.304,8.828-47.227,16.62
		c-12.401,6.475-30.073,18.044-24.343,34.423c6.194,17.707,33.841,27.407,49.384,33.747c-20.285-5.685-62.909-19.081-55.321-47.68
		c4.454-16.789,23.472-27.167,38.036-33.898c10.266-4.744,20.649-8.456,31.118-11.493c-5.102-5.147-10.783-11.035-17.042-17.736
		c-1.513,0.336-3.03,0.618-4.541,0.983C319.126,710.652,289.282,718.527,268.839,735.722z M409.96,739.181l1.859,1.386
		l10.818,27.329c5.4,5.525,48.013,43.798,189.718,41.138c135.203-2.537,165.084-35.505,169.648-41.976v-26.344l4.481-2.267
		c0.745-0.38,75.999-39.581,120.602-138.863c38.027-84.641,44.011-172.598,43.077-207.781c-0.763,2.278-1.761,4.544-2.996,6.788
		v0.002c-12.494,22.714-73.917,45.488-166.443,57.912c30.774,38.039,33,90.784,14.152,136.364
		c-42.578,102.96-163.316,133.231-264.73,129.019c-68.131-2.83-133.639-21.751-190.579-59.91
		c-5.669-3.799-10.981-8.06-16.236-12.378C380.412,716.835,409.654,738.953,409.96,739.181z"/>
	<path fill="#4F3324" d="M610.088,375.259c-115.638-1.282-215.843,15.541-268.451,45.143
		c48.613,14.262,125.224,26.147,255.423,29.02c121.045,2.672,213.943-10.864,271.255-27.157
		C794.705,381.72,663.459,375.875,610.088,375.259z M649.918,426.127l-43.456-0.106l-43.47-0.465
		c-14.554-0.22-28.987-0.541-43.997-0.596c13.604-6.569,28.445-9.863,43.119-12.175c14.742-2.203,29.601-3.15,44.446-3.095
		c14.845,0.075,29.698,1.23,44.419,3.635c14.65,2.511,29.454,6.061,42.921,12.921C678.885,426.03,664.462,426.12,649.918,426.127z"
		/>
	<path fill="#FFF5EB" d="M977.509,454.804c12.111-4.699,25.128-7.236,38.349-7.509c6.618-0.226,13.267,0.385,19.873,1.418
		c6.593,1.137,13.084,3.003,19.371,5.44c12.589,5.059,23.848,13.289,32.381,23.708c8.523,10.347,14.231,23.302,14.562,36.374
		c-8.795-24.43-28.25-41.841-50.611-50.998c-5.614-2.37-11.5-4.099-17.496-5.444c-5.985-1.451-12.136-2.219-18.341-2.883
		C1003.156,453.771,990.467,454.073,977.509,454.804z M392.756,660.383c-12.752-31.983-13.311-70.312-3.806-102.537
		c7.814-26.492,21.391-57.994,42.993-77.934c-51.884-8.95-109.601-5.127-149.571-42.185c-4.132,41.473,4.613,85.557,18.596,125.351
		C321.666,604.522,349.731,640.797,392.756,660.383z M469.641,334.345c21.204-7.296,43.263-11.972,65.509-14.959
		c22.259-2.985,44.752-4.298,67.203-4.037c22.456,0.216,44.868,2.044,67.051,5.199c22.18,3.164,44.158,7.693,65.591,14.268
		l-66.598-4.119c-22.096-1.241-44.149-2.002-66.191-2.283c-22.042-0.235-44.077,0.044-66.136,1.09
		C514.005,330.549,491.958,332.345,469.641,334.345z M193.468,682.257c-13.194,12.625-35.131,18.17-50.867,27.645
		c-7.049,4.244-36.069,27.76-29.598,42.011c-16.838-17.385,5.214-40.156,19.698-49.39
		C149.166,692.025,173.667,681.285,193.468,682.257z M1053.529,695.035c8.56,2.462,16.496,6.041,23.996,10.831
		c7.422,4.88,14.424,10.752,19.726,18.958c2.558,4.077,4.637,8.658,5.588,13.758c0.952,5.06,0.584,10.748-1.661,15.638
		c-2.217,4.911-5.96,8.611-9.965,11.053c-4.078,2.402-8.343,3.949-12.802,4.518c6.414-6.079,12.01-12.498,13.054-18.928
		c1.197-6.264-1.338-12.79-5.25-19.046c-3.909-6.149-9.465-12.121-15.147-18.002
		C1065.365,707.865,1059.114,702.007,1053.529,695.035z M660.941,681.994c12.296-5.976,23.746-12.402,34.319-19.977
		c10.592-7.502,20.33-15.959,29.169-25.274c8.829-9.323,16.768-19.484,23.708-30.451c7.007-10.954,12.837-22.715,18.182-35.303
		c0.027,13.725-3.489,27.423-9.115,40.139c-5.693,12.713-13.656,24.47-23.299,34.61c-9.638,10.145-20.962,18.707-33.361,25.052
		C688.134,677.062,674.646,681.292,660.941,681.994z"/>
	<path fill="#D9BCA3" d="M193.103,814.011c95.401,32.651,195.213,46.597,295.697,51.955c117.964,6.289,238.082,4.048,355.163-12.478
		c54.875-7.746,106.885-22.512,159.96-36.825c-96.741,44.743-206.849,56.83-312.084,62.589
		c-109.217,5.977-220.394,2.926-328.321-15.743C305.576,853.486,246.547,839.076,193.103,814.011z M1133.373,797.279
		c-57.88,65.074-264.525,113.608-502.524,118.025c-10.726,0.199-21.474,0.298-32.147,0.298
		c-240.218,0-464.111-49.68-529.053-118.897c-14.271-15.21-20.823-31.21-19.476-47.553
		c7.934-96.218,216.825-128.151,225.713-129.463l1.023-0.086c0.801-0.017,2.266-0.047,4.24-0.088
		c-49.749-88.583-45.311-226.777-44.55-243.83c0.451-10.103,6.303-25.242,31.62-39.988c36.813-21.445,124.64-47.718,333.984-51.1
		c177.796-2.896,269.771,25.813,315.66,50.382c0.003,0.003,0.006,0.005,0.011,0.006c0.014,0.008,0.03,0.016,0.049,0.027
		c34.352,18.406,47.434,37.169,48.217,48.593c0.026,0.383,0.883,14.35-0.298,37.226c10.492-0.391,27.275-0.82,35.749,0.019
		c53.303,5.3,89.727,20.732,111.358,47.18c18.629,22.779,26.072,54.164,22.121,93.286c-4.716,46.707-33.814,78.492-70.024,100.1
		c43.887,22.278,80.783,53.014,84.73,93.028C1151.214,769.014,1145.694,783.425,1133.373,797.279z M959.539,479.302
		c24.107-6.783,67.88-17.602,98.644,1.505c16.123,10.013,26.451,26.842,30.7,50.021c4.429,24.168-0.231,46.034-13.853,64.991
		c-34.302,47.734-115.597,62.795-139.697,66.275c-17.683,2.548-31.418,0.613-40.961-5.652c-10.227,15.436-20.857,28.783-31.226,40.2
		c6.176-0.632,12.728-1.087,20.063-1.576c8.53-0.57,18.198-1.216,29.583-2.312c46.401-4.469,198.624-27.249,209.276-132.746
		c3.639-36.046-2.653-63.424-19.237-83.701c-19.322-23.624-52.861-37.509-102.533-42.448c-8.038-0.803-25.285-0.303-35.307,0.088
		C963.968,447.161,962.277,462.466,959.539,479.302z M901.367,645.475c5.145,3.441,14.622,6.212,32.1,3.684
		c7.013-1.013,19.145-3.056,33.481-6.658c-16.466-4.365-31.588-7.525-43.784-9.365c-3.248-0.49-7.982-0.919-13.954-1.295
		C906.639,636.521,904.032,641.1,901.367,645.475z M921.988,606.279c-1.499,3.338-3.036,6.596-4.594,9.803
		c3.284,0.277,6.054,0.575,8.207,0.9c16.417,2.476,42.016,8.011,70.138,16.796c25.981-9.387,53.027-23.806,68.677-45.584
		c11.469-15.962,15.376-34.47,11.611-55.01c-3.556-19.401-11.879-33.287-24.738-41.272c-27.826-17.281-71.56-4.791-92.578,1.211
		c-0.599,0.171-1.138,0.324-1.694,0.482C950.555,527.623,939.806,566.62,921.988,606.279z M263.649,374.494
		c0.503,6.858,5.657,13.309,15.316,19.175c38.785,23.546,109.99,51.162,318.096,55.753c199.64,4.406,322.9-35.261,335.794-58.703
		c2.873-5.223,3.515-10.293,1.959-15.497c-3.653-12.225-18.492-22.484-24.318-25.652c-0.115-0.062-0.228-0.123-0.345-0.185
		c-36.17-19.366-124.203-51.414-307.683-48.451c-204.698,3.308-289.947,28.144-325.428,48.546
		C272.662,353.283,262.885,364.098,263.649,374.494z M299.909,619.141c1.728,2.752,3.52,5.436,5.371,8.054
		c0.089,0.126,0.177,0.254,0.266,0.379c1.875,2.637,3.812,5.205,5.823,7.688c0.375,0.463,0.727,0.954,1.107,1.412
		c64.236,77.374,97.158,102.265,97.483,102.507l1.859,1.386l10.818,27.329c5.4,5.525,48.013,43.798,189.718,41.138
		c135.203-2.537,165.084-35.505,169.648-41.976v-26.344l4.481-2.267c0.661-0.337,59.906-31.245,104.42-107.472
		c1.49-2.55,2.962-5.151,4.415-7.803c0.012-0.023,0.025-0.046,0.037-0.068c1.449-2.645,2.878-5.339,4.287-8.088
		c2.554-4.985,5.051-10.104,7.444-15.432c38.027-84.641,44.011-172.598,43.077-207.781c-0.763,2.278-1.761,4.544-2.996,6.788v0.002
		c-19.574,35.585-159.106,71.362-350.468,67.162c-211.985-4.678-285.688-33.519-326.213-58.123
		c-8.085-4.911-14.084-10.44-17.956-16.539C252.012,433.364,255.139,547.817,299.909,619.141z M1133.52,756.052
		c-3.477-35.246-41.582-63.973-86.466-84.955c-49.831,24.158-107.088,32.17-133.007,34.666c-11.576,1.115-21.346,1.768-29.966,2.342
		c-14.496,0.968-25.444,1.732-36.002,4.062c-5.385,5.182-10.584,9.813-15.501,13.942c33.336,13.625,71.014,36.974,47.573,66.3
		c-21.414,26.789-70.809,32.771-102.161,37.834c-14.77,2.385-29.651,4.289-44.568,5.483c38.344-7.692,78.378-15.206,113.75-32.601
		c11.947-5.875,31.832-15.502,27.223-31.513c-4.621-16.055-27.374-25.486-41.237-31.098c-4.258-1.724-8.538-3.241-12.827-4.673
		c-9.664,7.254-17.414,12.076-21.991,14.721v20.263l-0.584,1.461c-2.047,5.115-24.628,50.071-185.095,53.081
		c-4.863,0.091-9.615,0.136-14.259,0.136c-150.022,0-187.703-46.215-189.278-48.242l-0.716-0.921l-10.097-25.528
		c-3.405-2.72-11.273-9.31-23.616-21.315c-16.376,3.555-32.304,8.828-47.227,16.62c-12.401,6.475-30.073,18.044-24.343,34.423
		c6.194,17.707,33.841,27.407,49.384,33.747c-20.285-5.685-62.909-19.081-55.321-47.68c4.454-16.789,23.472-27.167,38.036-33.898
		c10.266-4.744,20.649-8.456,31.118-11.493c-16.252-16.395-38.361-40.294-66.433-74.11c-3.038-3.659-5.924-7.489-8.682-11.452
		c-7.252,0.144-11.892,0.239-13.441,0.271c-11.158,1.741-204.621,33.187-211.331,114.57c-0.952,11.546,4.13,23.332,15.108,35.031
		c61.229,65.259,285.034,113.723,518.101,113.729c10.293,0,20.564-0.094,30.882-0.286c230.078-4.271,436.414-51.605,490.619-112.549
		C1130.334,776.114,1134.49,765.895,1133.52,756.052z M507.573,762.355c19.556,3.607,39.445,5.463,59.349,5.834
		c19.904,0.34,39.847-0.828,59.517-3.749c19.669-2.84,39.119-7.263,57.796-14.015c-19.794,1.425-39.284,2.96-58.766,3.862
		c-19.481,0.822-38.901,1.181-58.32,0.838c-19.42-0.313-38.817-1.351-58.258-2.844c-19.44-1.575-38.865-3.794-58.594-5.922
		C468.732,753.741,488.017,758.829,507.573,762.355z M840.041,670.351c12.13-12.425,22.926-26.204,32.187-40.941
		c9.266-14.735,16.987-30.447,22.91-46.77c5.851-16.34,10.081-33.273,11.512-50.512c-6.745,15.9-13.419,31.426-20.964,46.478
		c-7.473,15.069-15.639,29.685-24.523,43.856c-8.889,14.167-18.508,27.873-28.835,41.151
		c-10.275,13.341-21.369,26.091-32.769,39.062C814.454,693.885,827.861,682.713,840.041,670.351z"/>
</g>
</svg>
