<?xml version="1.0" encoding="utf-8"?>
<!-- Generator: Adobe Illustrator 23.0.3, SVG Export Plug-In . SVG Version: 6.00 Build 0)  -->
<svg version="1.1" id="Capa_1" xmlns="http://www.w3.org/2000/svg" xmlns:xlink="http://www.w3.org/1999/xlink" x="0px" y="0px"
	 viewBox="0 0 1200 1200" enable-background="new 0 0 1200 1200" xml:space="preserve">
<g>
	<path fill="#DE2334" d="M546.857,1100.445c-30.198-22.433-66.16-41.082-113.172-58.692c-10.362-3.883-20.867-7.443-31.449-10.663
		c-13.596-4.137-27.322-7.713-41.067-10.697c-16.215-3.514-33.694-7.004-51.63-8.741c-9.391-0.908-18.114-1.504-26.454-1.504
		c-10.706,0-20.784,0.982-30.844,3.548c-8.634,2.197-13.789,5.416-17.238,10.758c-1.842,2.852-2.527,4.733-2.218,6.096
		c0.262,1.17,1.35,2.31,3.422,3.59l0.988,0.609c7.809,4.831,15.882,9.827,24.42,13.47l2.868,1.223
		c12.409,5.302,25.239,10.782,38.049,15.622l7.147,2.708c17.258,6.543,35.102,13.314,52.979,18.834
		c6.25,1.931,12.493,3.891,18.736,5.852c21.583,6.79,43.9,13.797,66.258,19.322l15.522,3.846c14.31,3.551,28.62,7.103,42.966,10.524
		c16.691,3.977,36.139,8.368,55.726,10.148c1.359,0.124,2.719,0.281,4.081,0.441c2.894,0.34,5.708,0.669,8.495,0.669
		c2.345,0,4.671-0.234,7.01-0.89c-0.178-0.408-0.36-0.797-0.576-1.172C572.106,1120.34,558.758,1109.282,546.857,1100.445z
		 M423.55,1075.091c-5.179-0.223-10.017-1.55-14.695-2.836c-3.074-0.842-5.98-1.639-8.989-2.154
		c-11.032-1.879-22.161-4.224-32.923-6.497c-3.164-0.667-6.331-1.335-9.497-1.99c-12.368-2.569-24.616-6.164-36.542-9.793
		c-1.71-0.52-3.411-1.041-5.107-1.56l-7.102-2.164c-0.003-0.001-0.006-0.001-0.008-0.002c-4.379-1.333-3.729-5.116-3.452-6.735
		c0.603-3.522,2.784-5.534,5.914-5.534c0.299,0,0.606,0.018,0.922,0.055l3.488,0.403c5.38,0.616,10.944,1.251,16.368,2.282
		c17.281,3.276,34.175,8.841,50.512,14.207c3.13,1.03,6.256,2.058,9.388,3.073l0.601,0.195c10.454,3.378,21.262,6.872,30.575,13.576
		c0.845,0.607,2.003,1.439,2.183,3.781l0.137,1.77L423.55,1075.091z M497.744,1106.593l-3.265-0.939
		c-3.382-0.971-6.712-1.926-9.993-2.925c-8.816-2.683-17.27-5.668-25.384-10.042c-1.267-0.685-2.749-1.518-4.143-2.517
		c-3.054-2.189-2.098-5.318-1.529-7.185l0.229-0.779c0.274-1.025,0.882-1.833,1.762-2.336c0.669-0.382,1.47-0.574,2.373-0.574
		c0.667,0,1.388,0.105,2.152,0.315c12.483,3.414,24.041,9.694,34.3,18.591l0.518,0.431c1.3,1.064,3.267,2.669,3.087,5.988
		L497.744,1106.593z"/>
	<path fill="#F4414A" d="M907.631,584.869c-1.845,1.595-3.602,3.114-5.338,4.658c-17.159,15.261-35.545,27.264-54.644,35.675
		c-18.937,8.339-39.516,15.468-60.417,20.626c-60.165,14.849-124.289,13.848-185.268,4.858
		c-33.61-4.955-69.728-12.484-100.869-26.388c-23.105-10.316-46.851-19.999-68.653-32.923c-17.781-10.54-33.704-21.555-48.68-33.671
		c-29.98-24.265-51.986-49.283-67.272-76.49c-14.722-26.208-24.786-51.142-30.787-76.199c-2.459-7.399-4.66-14.837-6.601-22.288
		c-1.154,1.065-2.176,2.087-3.077,3.144c-5.129,6.004-5.253,13.464-5.372,20.68c-0.021,1.298-0.042,2.593-0.091,3.87
		c-1.259,32.948-3.728,67.958-8.001,113.508c-2.254,24.001-4.748,48.378-7.163,71.951c-2.413,23.567-4.907,47.938-7.159,71.923
		c-3.683,39.229-6.672,79.414-8.883,119.442c-4.173,75.515-8.719,136.497-14.308,191.915c-1.378,13.659-1.524,25.437-0.436,36.682
		c1.09-1.539,2.151-2.996,3.36-4.341c10.606-11.773,25.214-15.054,39.419-16.843c9.525-1.199,18.962-1.727,28.25-1.727
		c32.212,0,62.685,6.34,89.245,13.002c21.213,5.317,42.071,11.861,61.996,19.454c17.68,6.733,31.058,12.314,43.374,18.103
		c26.044,12.238,47.931,25.053,66.911,39.174c13.125,9.766,28.04,21.959,39.141,38.375c0.216,0.319,0.702,1.039,1.059,1.46
		c0.187-0.216,0.47-0.593,0.886-1.227c5.226-7.996,10.197-16.346,15.002-24.424l3.17-5.318
		c14.822-24.791,30.06-49.889,44.797-74.165c15.29-25.182,31.1-51.221,46.459-76.941c33.309-55.777,67.748-112.133,101.051-166.633
		l8.744-14.307c6.237-10.211,12.536-20.39,18.832-30.567c24.836-40.144,50.518-81.654,72.028-124.649
		c3.314-6.624,3.488-12.834,0.498-20.441L907.631,584.869z M502.404,978.828c-4.413-0.001-9.617-1.657-13.976-2.475
		c-5.518-1.035-10.998-2.258-16.463-3.535c-10.687-2.496-21.589-5.276-32.214-7.271c-23.218-4.359-43.606-6.611-63.407-6.977
		c3.208,1.005,6.365,1.818,9.474,2.603c4.426,1.118,8.604,2.174,12.743,3.781c3.28,1.277,6.604,2.434,9.928,3.587
		c6.39,2.217,12.998,4.514,19.242,7.697c1.989,1.013,4.023,1.944,6.066,2.884c5.203,2.393,11.495,5.214,16.432,9.172
		c3.297,2.642,0.852,7.941-3.323,7.295c-3.423-0.53-6.844-1.446-9.727-2.123c-6.359-1.494-12.62-3.383-18.793-5.517
		c-18.735-6.476-38.088-9.651-59.647-12.871c-18.611-2.778-37.491-4.184-56.201-4.185c-1.862,0-3.719,0.014-5.578,0.042
		c-15.301,0.231-30.153,1.998-42.662,3.692c-2.135,0.289-3.742,0.507-4.996,0.507c-0.681,0-1.258-0.065-1.759-0.217
		c-0.485-0.148-0.898-0.38-1.266-0.713c-1.428-1.299-1.345-3.372-1.181-7.509c1.34-33.524,4.802-67.416,8.15-100.191l0.352-3.453
		c1.8-17.638,3.343-35.604,4.838-52.982c1.253-14.568,2.546-29.635,3.987-44.442c0.582-5.983,1.212-11.962,1.844-17.939
		c1.573-14.898,3.199-30.301,3.99-45.514c1.381-26.557,3.081-57.867,5.201-88.725c1.777-25.846,3.876-53.516,7.18-80.757
		c1.183-9.766,1.759-19.797,2.317-29.499c0.26-4.529,0.52-9.058,0.841-13.582c0.012-0.173-0.033-0.463-0.077-0.746
		c-0.148-0.99-0.5-3.308,2.154-4.262c0.659-0.237,1.273-0.339,1.845-0.339c1.892,0,3.331,1.118,4.431,2.188
		c5.59,5.451,10.285,11.569,14.615,17.372c25.686,34.392,58.203,64.896,99.417,93.252c12.284,8.454,25.478,15.112,38.24,22.764
		c3.525,2.113,14.373,8.311,10.408,12.67c-1.548,1.702-6.441,1.376-8.853,0.835c-15.043-3.371-30.326-8.253-44.409-14.52
		c-11.723-5.216-24.753-10.968-37.335-18.093c1.755,1.338,3.519,2.668,5.297,3.974c2.796,2.053,5.206,4.721,7.365,8.148
		c0.399,0.632,1.613,2.557,0.613,4.113c-1.609,2.502-8.041,1.038-10.32,0.359c-13.146-3.913-26.739-7.966-39.91-13.433
		c-4.75-1.972-9.155-4.441-13.93-7.026c-1.291,0.686-1.31,0.696-2.601,1.382c-0.11,1.781-0.126,3.6-0.142,5.474
		c-0.019,2.254-0.039,4.58-0.239,6.888c-0.757,8.735-1.556,17.468-2.355,26.2c-1.682,18.348-3.419,37.317-4.702,55.999
		c-1.358,19.778-3.838,39.725-6.237,59.012c-0.868,6.986-1.738,13.974-2.556,20.968c-0.769,6.544-1.383,13.23-1.979,19.698
		c-0.865,9.4-1.76,19.122-3.142,28.631c-1.94,13.354-3.359,27.004-4.73,40.202c-0.913,8.775-1.857,17.849-2.944,26.76
		c-1.047,8.574-1.687,17.361-2.305,25.859c-0.257,3.521-0.513,7.042-0.798,10.557c-0.071,0.891,0.003,1.2,0.038,1.29
		c0.093-0.006,0.128-0.006,0.171-0.006c0.176,0,0.495-0.009,1-0.103c14.985-2.802,30.041-3.884,44.946-3.884
		c20.051,0,39.833,1.956,58.839,4.311c18.168,2.244,35.593,6.171,51.81,11.63c22.383,7.554,44.021,15.529,62.673,29.991
		c2.002,1.551,3.942,3.334,5.932,5.45C505.675,974.929,505.478,978.828,502.404,978.828z M648.249,966.552l-0.437,0.835
		c-12.961,26.183-30.92,49.514-48.288,72.078l-0.211,0.274c-1.234,1.601-2.668,3.028-4.056,4.406l-1.081,1.078
		c-0.49,0.497-1.058,0.63-1.774,0.794c-0.347,0.081-0.812,0.187-1.437,0.366l-3.253,0.938l1.38-3.092
		c0.927-2.074,1.782-4.079,2.609-6.022c1.752-4.107,3.406-7.991,5.398-11.707c7.305-13.623,15.842-29.439,24.713-44.719
		c3.831-6.598,8.375-12.88,12.769-18.953l1.929-2.669c1.835-2.548,3.809-3.429,5.661-3.429c1.629,0,3.163,0.681,4.423,1.506
		C651.122,961.193,649.324,964.546,648.249,966.552z M627.341,879.293c-14.033,28.831-30.137,56.616-45.05,85.009
		c-1.857,9.969-13.514,1.398-17.268-2.033c-10.512-9.608-22.313-16.721-34.976-23.075c-1.795-0.901-3.592-1.805-5.377-2.718
		c-48.52-24.916-100.792-38.356-154.756-44.877c-10.303-1.245-20.935-2.527-31.434-2.644c-2.043-0.021-6.827-0.074-10.002-4.427
		l7.589-103.656c0.329-6.581,0.751-13.216,1.45-19.805c1.262-11.916,2.452-23.839,3.642-35.767l2.782-27.808
		c0.981-9.881,1.965-19.768,3.045-29.643c0.624-5.703,1.54-11.358,2.381-17.031c0.438-2.954,0.371-7.159,3.919-8.052
		c5.388-1.356,18.536,14.134,63.327,32.922c5.202,2.182,10.62,4.618,15.481,6.591c3.522,1.427,7.042,2.853,10.53,4.363
		c31.831,13.776,66.462,24.682,99.819,34.076c14.876,4.2,29.701,7.053,42.241,9.288c5.105,0.907,10.228,2.044,15.183,3.145
		c23.732,5.239,47.937,8.327,72.251,8.633c8.587,0.108,18.787-0.362,22.313,9.013c0.681,1.81,0.269,4.309-0.603,6.91
		c-1.331,3.97-3.734,8.176-4.965,10.532C669.264,805.741,645.908,841.139,627.341,879.293z M720.492,843.248
		c-9.366,21.599-22.228,41.613-39.321,61.178c-0.05,0.059-0.157,0.268-0.234,0.42c-0.412,0.815-1.24,2.448-3.723,2.448
		c-0.191,0-0.391-0.009-0.603-0.03l-1.751-0.17l0.361-1.722c1.622-7.73,4.232-15.342,8.213-23.952
		c7.83-16.934,16.201-31.1,25.592-43.311c0.211-0.274,0.415-0.571,0.623-0.871c1.015-1.459,2.404-3.459,4.988-3.739
		c0.229-0.025,0.456-0.037,0.679-0.037c1.845,0,3.491,0.823,4.593,2.32C721.392,837.796,721.615,840.656,720.492,843.248z
		 M725.685,692.152l-0.287,0.151c-4.793,2.835-10.118,3.763-15.157,4.344c-12.633,1.459-24.43,2.673-36.045,2.673
		c-5.48,0-10.919-0.27-16.387-0.912c-6.877-0.807-13.79-2.072-20.475-3.297c-3.051-0.556-6.101-1.114-9.155-1.632l-0.03-0.006
		c-0.313-0.06-0.616-0.133-0.911-0.223c-1.712-0.521-3.072-1.533-3.805-2.858c-0.719-1.295-0.802-2.815-0.234-4.281
		c0.145-0.374,0.261-0.782,0.384-1.201c0.598-2.058,1.573-5.406,6.153-5.406c0.328,0,0.674,0.017,1.041,0.053
		c22.129,2.181,44.669,4.02,66.468,5.801l9.466,0.776c3.628,0.297,7.349,0.424,10.948,0.545c2.079,0.07,4.157,0.14,6.233,0.242
		c0.419-0.094,0.791-0.136,1.121-0.136c1.6,0,2.217,0.993,2.472,1.908C728.111,690.946,726.284,691.856,725.685,692.152z
		 M824.495,669.445c-3.356,6.017-6.575,12.245-9.689,18.271c-5.368,10.389-10.919,21.133-17.389,31.208
		c-16.392,25.528-32.04,48.104-47.837,69.021c-0.66,0.876-1.333,1.741-2.005,2.61l-1.887,2.44l-3.496-2.32l0.339-1.124
		c2.385-7.896,6.336-15.161,10.158-22.19l6.418-11.84c10.432-19.275,21.221-39.21,32.747-58.317
		c6.373-10.568,13.12-21.135,19.642-31.355c2.351-3.681,4.803-4.541,6.454-4.624c0.088-0.004,0.178-0.006,0.27-0.006
		c1.463,0,3.529,0.563,5.513,3.084C824.258,664.964,825.862,666.991,824.495,669.445z"/>
	<path fill="#FFDF84" d="M672.161,760.604c-31.601,0-63.272-7.714-93.79-14.794c-33.287-7.721-66.027-17.671-97.876-30.049
		c-33.268-12.929-65.941-26.579-97.65-42.475c-5.919-2.967-11.979-6.008-17.798-9.917c-2.304-1.549-5.422-0.111-5.708,2.65
		c-0.901,8.68-1.742,16.786-1.885,24.96c-0.272,15.609-1.485,31.368-2.658,46.61c-2.224,28.894-2.032,57.928-4.684,86.796
		c-0.449,4.867-0.762,9.829-1.065,14.625c-0.527,8.341-1.071,16.927-2.318,25.327c-0.148,1.002-0.266,2.032-0.383,3.077
		c-0.241,2.124-0.497,4.374-1.03,6.644c-0.665,2.833,1.564,5.518,4.475,5.504c0.558-0.003,1.116-0.005,1.672-0.005
		c6.284,0,11.46,0.206,16.29,0.652l7.881,0.707c13.518,1.199,27.465,2.432,41.133,4.808c11.006,1.906,21.599,4.335,33.314,7.077
		c10.657,2.496,19.352,4.953,27.36,7.735c13.679,4.759,29.754,10.653,45.253,18.296c11.93,5.881,24.191,11.929,35.966,19
		c3.44,2.066,6.536,4.386,9.583,6.98c0.132,0.112,0.381,0.305,0.707,0.556c2.936,2.257,7.163,1.074,8.601-2.338
		c4.805-11.401,11.318-22.03,17.323-32.873c6.692-12.085,13.39-24.182,19.305-36.673c14.002-29.568,31.412-57.6,48.732-85.311
		c0,0,0.169-0.271,0.169-0.271c4.293-6.82,8.648-13.744,12.853-20.745C677.683,764.245,675.561,760.599,672.161,760.604z
		 M570.432,773.962c-2.046,0.747-4.385,0.62-6.527,0.711c-29.712,1.26-59.313-3.035-88.527-8.036
		c-9.926-1.699-21.178-3.626-32.079-6.434c-0.104-0.029-0.209-0.056-0.314-0.082c26.814,10.4,54.084,19.172,81.848,26.684
		c2.808,0.76,5.138,2.073,7.518,3.718c3.576,2.471,2.071,5.624-1.428,6.853c-4.054,1.425-8.447,1.972-12.718,2.196
		c-8.767,0.46-17.501,0.264-26.25-0.058c-15.279-0.561-30.582-2.166-45.755-4.136c-6.941-0.903-13.798-1.849-20.87-3.317
		c0.237,0.092,0.468,0.184,0.689,0.282c7.75,3.434,15.795,6.591,23.576,9.644c3.409,1.337,16.414,4.627,19.007,7.444
		c2.278,2.474,0.796,5.651-1.625,7.366c-2.75,1.949-12.882,2.458-17.452,2.786c-6.836,0.491-12.198,0.904-20.405,1.874l-3.412,0.523
		c1.66,0.995,3.304,1.984,4.941,2.965c37.957,22.814,75.472,45.591,117.189,71.667c1.217,0.761,3.866,2.023,2.463,4.878
		c-1.981,4.01-6.442,2.037-9.358,0.487c-32.696-17.369-56.734-27.892-86.248-34.385c-26.901-5.919-36.905-7.627-81.952-9.165
		c-1.434-0.049-4.571,0.816-5.53-0.66c-0.475-0.732,0.035-2.232,0.097-3.036c1.372-17.717,2.787-35.79,4.174-53.273
		c2.008-24.097,3.831-48.21,5.886-72.304c0.812-9.445,1.207-17.667,2.426-27.07c0.117-0.902,0.246-1.827,0.686-2.622
		c1.335-2.41,3.783-1.092,5.696-0.06c17.85,9.633,21.984,11.838,33.508,16.953c12.54,5.566,25.186,10.896,37.955,15.918
		c25.805,10.15,52.127,19.061,78.98,26.012c6.07,1.574,12.141,3.15,18.182,4.838c5.4,1.509,10.965,2.68,15.791,5.661
		c0.693,0.428,1.2,0.949,1.509,1.499C572.881,771.672,572.395,773.244,570.432,773.962z"/>
	<path fill="#E6AD37" d="M695.177,170.388c-0.553-0.169-1.177-0.236-1.822-0.267c1.043-7.444,1.979-14.991,2.688-22.592
		c1.692-9.662,3.176-19.29,4.383-28.793c13.31,2.781,25.514,8.728,36.742,14.79c0.096,0.052,0.141,0.108,0.231,0.161l-1.098,2.909
		c-3.532,9.353-7.149,18.928-10.487,28.478c-2.625,7.507-4.971,15.107-7.209,22.585c-0.023,0.074-0.051,0.147-0.074,0.221
		c-0.54,1.745-0.879,2.197-1.065,2.269c-4.102,0.629-6.462,3.24-8.743,5.762c-0.251,0.277-0.497,0.549-0.742,0.815
		c-1.434-6.819-3.371-13.919-6.922-20.661C700.39,174.792,698.624,171.437,695.177,170.388z M371.217,385.846
		c2.764-3.242,7.694,0.101,8.855,3.1c2.223,5.741,4.725,11.372,6.862,17.147c3.276,8.854,6.473,17.736,9.813,27.014l1.18,3.274
		c0-2.683-0.005-5.346-0.012-7.986c-0.103-41.592-2.974-91.262-3.143-133.025c-0.044-10.685-8.581-15.697-16.275-21.396
		c-9.478-7.021-18.916-14.107-27.951-21.693l-1.766-0.923c6.458,32.851,11.651,66.027,16.679,98.144
		C367.357,361.627,369.254,373.741,371.217,385.846z M539.34,405.462c-1.011-2.036-2.058-4.142-3.114-6.036
		c-0.108-0.194-0.188-0.402-0.286-0.601c-4.07-5.16-8.088-10.4-12.383-16.023c-1.134-1.483-2.287-2.99-3.464-4.528
		c0.221,11.949-2.141,22.466-4.259,31.877c0.08,12.18,0.234,24.412,0.503,36.685c0.137,0.104,0.337,0.198,0.691,0.342
		c0.033,0.013,0.064,0.026,0.098,0.039c0.013-0.092,0.028-0.174,0.045-0.246c0.574-2.43,2.249-3.762,4.665-3.762
		c0.344,0,0.703,0.027,1.076,0.082c0.428,0.06,0.827,0.149,1.201,0.263c2.197,0.668,3.457,2.241,3.838,4.774
		c1.203,7.956,2.766,16.007,4.28,23.788c2.028,10.438,4.126,21.228,5.393,32.022c1.044,8.892,2.59,17.714,4.228,27.053
		c0.383,2.173,0.768,4.373,1.152,6.604c0.022-0.08,0.041-0.161,0.061-0.242c0.112-0.464,0.131-1.021,0.151-1.609
		c0.015-0.439,0.031-0.881,0.078-1.313l0.078-0.741c0.205-1.973,0.452-4.25,1.33-6.104c0.696-8.332,1.451-16.667,2.222-24.848
		c0.305-3.24,0.605-6.522,0.907-9.792c0.167-20.518,0.934-41.28,3.729-61.814c0.031-1.363,0.053-2.725,0.091-4.088
		c0.028-1.008,0.072-2.533-0.028-2.908c-0.035-0.073-0.221-0.359-0.656-0.802C545.621,418.097,542.286,411.388,539.34,405.462z
		 M478.381,238.326c0.825,8.247,1.662,16.64,2.429,25.084c1.274-3.239,3.335-5.391,5.915-6.007c0.519-0.125,1.047-0.186,1.58-0.186
		c0.73,0,1.471,0.115,2.214,0.341c1.586,0.483,3.177,1.471,4.681,2.935c2.267,2.203,3.77,5.029,4.598,8.636
		c1.164,5.107,2.361,10.202,3.561,15.294l0.245,1.048c2.475-6.484,5.346-12.436,7.932-17.658c0.592-1.195,1.394-2.137,2.172-3.051
		c1.167-1.368,2.172-2.549,2.275-4.372c0.061-1.09,0.138-2.179,0.204-3.268c-0.129-8.595-0.205-17.395,0.181-26.194
		c0.206-4.69,1.166-9.143,2.135-13.204c0.13-3.15,0.236-6.298,0.302-9.434c0.169-8.016-1.696-13.892-5.888-18.331
		c-0.302-0.217-0.563-0.468-0.882-0.671l-2.826-1.798c-5.575-3.557-11.34-7.236-17.101-9.947c-3.632-1.707-6.124-3.848-7.83-6.13
		c-3.478-1.642-7.229-3.024-11.251-3.953c0.089,1.12,0.123,2.149,0.148,3.01C473.847,193.057,476.152,216.067,478.381,238.326z
		 M707.927,320.424c0.59,0,1.209,0.098,1.854,0.326c0.557,0.172,1.237,0.343,1.822,0.343c0.006,0,0.01-0.004,0.017-0.004
		c0.816-2.494,1.622-4.994,2.445-7.484c0.061-0.186,0.147-0.355,0.211-0.539c1.571-8.524,4.886-16.257,8.112-23.768
		c0.973-2.265,1.946-4.53,2.872-6.813c3.04-7.491,3.203-13.033,0.514-17.451c-1.173-1.927-2.618-3.754-4.184-5.533
		c-3.713-3.018-7.676-5.54-11.08-7.588l-0.388,2.901c-3.196,23.881-6.491,48.51-11.925,73.066c1.217-1.352,2.362-2.62,3.522-3.871
		C702.676,322.975,704.925,320.424,707.927,320.424z M966.425,429.279c-0.457-0.783-2.613-4.344-4.607-7.296
		c-1.077,1.361-2.274,2.537-3.371,3.595c-12.031,11.606-22.353,24.855-33.839,36.981c-6.625,6.994-13.699,13.549-20.624,20.241
		c-17.445,20.709-36.426,40.151-54.847,58.984c-0.409,0.418-0.815,0.839-1.224,1.256c6.289-5.019,12.762-10.196,18.96-15.485
		c1.564-1.334,3.072-2,4.579-2c0.522,0,1.043,0.08,1.567,0.239c0.927,0.282,1.862,0.814,2.816,1.593
		c2.898,2.373,3.364,5.709,1.282,9.157c-5.736,9.492-11.518,18.961-17.504,28.766l-3.895,6.38
		c19.755-8.832,37.361-19.69,56.512-31.848c9.295-5.892,21.663-11.368,28.991-19.629c8.62-9.717,16.703-19.918,25.729-29.272
		c7.578-7.854,11.061-18.169,9.884-28.782C975.568,450.753,972.275,439.311,966.425,429.279z M602.783,77.557
		c1.994,24.207,2.129,48.72,1.978,71.602c-0.002,0.334-0.025,0.683-0.048,1.037c-0.105,1.62-0.061,2.285,0.806,2.874
		c2.362,1.59,3.335,4.048,4.193,6.218l0.46,1.143c2.312,5.514,4.717,10.99,7.262,16.78l1.951,4.453
		c0.773-1.439,1.465-2.838,2.141-4.207c1.039-2.104,2.021-4.093,3.186-5.991c0.629-1.027,1.096-2.298,1.592-3.648
		c1.403-3.822,3.142-8.559,9.7-8.633c0.012-0.055,0.023-0.147,0.035-0.224c0.006-0.586,0.015-1.171,0.021-1.757
		c0.113-10.745,0.229-21.855,0.606-32.928c0.107-3.114,0.849-5.827,2.145-8.176c0.486-5.936,0.931-11.912,1.152-17.855
		c0.23-6.184-1.764-10.239-6.468-13.158c-9.411-5.846-19.783-10.982-31.641-15.667c0.043,0.344,0.087,0.685,0.129,1.026
		C602.294,72.899,602.59,75.223,602.783,77.557z M871.353,190.168c0.553-0.272,1.095-0.563,1.639-0.854
		c2.101-1.126,4.447-2.383,7.326-2.383c0.434,0,0.879,0.028,1.338,0.09c3.217,0.426,5.279,2.358,7.254,4.251
		c0.447-1.516,0.88-3.023,1.311-4.518c1.527-5.304,2.972-10.314,4.849-15.293c2.193-5.811,1.405-11.042-2.478-16.456
		c-3.104-4.332-6.424-8.353-9.864-11.961c-6.603-6.92-15.037-12.221-25.088-15.771c-9.037,23.007-9.196,47.051-8.221,73.654
		L871.353,190.168z M913.092,307.279c0.829,0,1.577,0.103,2.25,0.308c0.66,0.201,1.247,0.502,1.765,0.9
		c1.431,1.107,2.18,2.887,2.23,5.297c0.168,8.092,0.249,16.706-0.736,25.26c-0.277,2.403-0.613,4.807-0.952,7.224
		c-0.812,5.801-1.648,11.774-1.66,18.021c1.798-1.195,3.574-2.373,5.332-3.535c6.024-3.993,11.714-7.76,17.351-11.707
		c0.976-0.683,1.993-1.338,3.012-1.995c3.816-2.46,7.42-4.783,9.205-8.726c1.609-3.556,3.192-7.127,4.775-10.697
		c4.726-10.661,9.613-21.684,15.197-32.187c3.5-6.586,3.486-11.514-0.047-16.484c-0.349-0.492-0.485-1.002-0.595-1.415
		c-0.036-0.133-0.07-0.272-0.121-0.4c-6.553-16.188-16.52-28.351-30.442-37.125c-3.368,8.214-6.462,16.669-9.461,24.864
		c-5.144,14.053-10.452,28.553-17.327,42.401C912.945,307.28,913.019,307.279,913.092,307.279z M686.817,521.021
		c-1.24,3.427-2.525,6.97-4.001,10.387c-5.563,12.878-10.222,26.229-13.88,39.76c5.615-5.76,10.703-11.998,15.655-18.068l3.083-3.77
		c0.615-0.748,1.242-1.489,1.872-2.233c3.225-3.813,6.272-7.414,7.812-11.894c3.758-10.939,8.974-21.355,14.021-31.429l2.634-5.266
		c6.706-13.427,13.668-27.218,21.478-40.42c0.188-2.536-0.183-5.666-1.649-9.748l-1.528-4.302c-0.867-2.458-1.725-4.872-2.611-7.238
		c-2.25-3.995-4.319-8.258-5.95-12.816c-0.005-0.012-0.015-0.026-0.021-0.039c-0.264,0.428-0.523,0.866-0.786,1.295
		c-2.446,6.357-5.609,12.412-8.703,18.268c-1.227,2.323-2.455,4.645-3.637,6.988c-5.92,11.724-12.837,23.113-19.527,34.125
		c-1.946,3.203-3.909,6.435-5.86,9.694c-4.26,8.761-8.783,18.353-13.108,28.385c2.809-4.106,5.605-8.236,8.339-12.359
		c0.892-1.346,2.134-3.219,4.291-3.219c0.393,0,0.818,0.062,1.276,0.202c0.297,0.091,0.609,0.214,0.936,0.372
		c1.549,0.758,3.901,2.659,2.25,6.903C688.374,516.726,687.595,518.874,686.817,521.021z"/>
	<path fill="#FCCC5A" d="M286.498,365.473c-9.314-24.096-17.532-48.729-21.892-74.252c-0.889-5.206-1.052-10.285-1.174-16.39
		c-0.129-6.434,4.778-9.527,10.1-11.911c18.42-8.252,35.723-13.954,52.895-17.428c1.792-0.365,3.629-0.736,4.765-0.736
		c0.296,0,0.544,0.025,0.732,0.082c0.086,0.026,0.16,0.058,0.218,0.099c0.649,0.442,1.043,2.663,1.59,5.738l22.327,125.526
		c1.099,6.177,2.295,12.344,3.491,18.509c2.652,13.687,5.394,27.842,6.983,41.854c1.681,14.825,4.464,29.641,7.155,43.967
		c0.88,4.69,1.762,9.376,2.606,14.072c1.958,10.869,4.903,21.336,8.02,32.413c0.94,3.339,1.886,6.699,2.808,10.097
		c-21.064-17.58-35.688-33.191-47.073-50.189c-11.586-17.305-20.976-33.984-28.708-50.988
		C300.965,413.116,295.494,388.744,286.498,365.473z M648.279,225.737c0.014,0,0.027,0,0.04,0l3.781,0.042
		c5.63,0.058,11.453,0.117,17.182,0.479c0.371,0.023,0.942,0.059,1.526,0.059c0.859,0,1.745-0.078,2.053-0.39
		c0.186-0.188,0.262-0.669,0.21-1.321l0.039-0.505c0.196-0.792,0.397-1.495,0.583-2.143c0.331-1.162,0.593-2.078,0.663-2.951
		c1.024-12.932,2.936-25.943,4.788-38.526c0.278-1.896,0.555-3.818,0.833-5.73c-0.97-2.454-1.206-5.166-0.53-7.777
		c0.056-0.215,0.117-0.436,0.141-0.518l0.038-0.117c1.434-6.827,2.725-13.666,3.925-20.49c0.156-1.705,0.339-3.412,0.465-5.114
		c0.659-8.891,1.593-15.689,3.025-22.034l0.134-0.544c0.159-0.623,0.456-1.783,0.198-2.16c-0.055-0.078-0.195-0.169-0.437-0.242
		c-0.145-0.044-0.326-0.083-0.547-0.106c-3.12-0.356-6.147-0.535-9.087-0.535c-9.035,0-17.257,1.688-24.945,5.103
		c-0.507,0.226-0.936,0.446-1.309,0.687c-0.134,1.571-0.255,3.165-0.39,4.724c-0.932,10.744-1.897,21.855-1.972,32.581
		c-0.002,0.394-0.036,0.757-0.058,1.131c-0.045,4.253-0.09,8.505-0.154,12.757c-0.071,4.583-0.083,9.169-0.095,13.754
		c-0.033,12.966-0.069,26.375-1.476,39.557c-0.018,0.171-0.026,0.307-0.026,0.413c0.137-0.007,0.289-0.021,0.409-0.03
		C647.613,225.762,647.947,225.737,648.279,225.737z M406.751,287.032c1.83,17.294,4.007,49.974,3.422,68.166
		c1.43,11.017,1.716,22.98,0.918,37.351c-0.173,3.118,0.457,12.964,0.657,14.828c2.324,21.83,3.826,44.072,5.279,65.579
		l0.822,12.095c1.641,23.827,4.409,49.092,8.461,77.239c0.562,3.899,2,6.027,5.392,7.57c-2.541-27.434-3.009-54.828-3.085-81.654
		c-0.355-7.06-0.659-14.138-0.816-21.204c-0.188-8.499,0.101-16.992,0.484-25.335c-0.015-0.689-0.026-1.398-0.04-2.084
		c-0.381-18.089-0.775-36.796,0.635-55.234c0.114-1.494,0.257-2.735,0.432-3.876c0.671-8.417,6.709-11.434,10.465-12.448
		l6.371-1.728c8.494-2.314,17.137-4.664,25.971-6.664c0.159-0.051,0.318-0.107,0.477-0.157c2.877-0.915,3.414-1.355,3.124-4.364
		c-1.895-19.817-4.044-43.296-5.598-67.225c-0.315-4.837-0.693-9.695-1.098-14.555c-0.866-1.382-1.506-2.924-1.785-4.612
		c-3.669-22.185-4.943-44.574-6.18-66.33c-0.64-11.244-1.301-22.87-2.292-34.235c-0.111-1.286,0.044-2.546,0.314-3.777
		c-0.172-0.096-0.36-0.18-0.578-0.246c-1.018-0.31-2.57-0.329-4.956-0.358c-3.67-0.046-7.363-0.091-11.065-0.091
		c-17.854,0-35.952,1.063-53.077,8.334c-6.306,2.676-10.638,8.541-10.775,14.592c-0.44,19.455-1.234,42.373-3.708,65.128
		C376.209,253.108,405.196,272.34,406.751,287.032z M581.965,277.288c-4.021,14.015-8.155,28.379-12.875,42.549l-18.914,62.154
		c-0.253,0.831-0.611,1.608-1.018,2.353c-0.607,2.477-1.216,4.993-1.831,7.568c-0.089,0.377-0.115,0.648-0.125,0.869l0.926,1.168
		c4.071,5.141,8.282,10.458,12.884,14.743c4.02,3.752,5.57,8.454,4.608,13.975c-0.564,3.239-1.036,6.499-1.487,9.763
		c-0.039,1.804-0.085,3.608-0.121,5.413l-0.014,0.664c-0.357,18.468-1.898,37.058-3.578,55.265
		c-0.061,7.883-0.037,15.738-0.013,23.527l0.015,4.983l0.009,0.244c0.192,4.178-1.04,7.642-3.522,10.428
		c-0.118,1.487-0.259,2.981-0.37,4.462c-0.085,1.157-0.191,2.317-0.296,3.484c-0.306,3.404-0.576,6.867-0.413,10.322
		c4.835-8.824,9.787-17.697,14.593-26.295l0.33-0.591c9.68-17.312,19.636-35.176,28.875-53.079c1.636-3.514,3.24-6.977,4.791-10.329
		c4.186-9.049,8.866-17.979,13.463-26.667c3.707-7.847,7.343-15.706,10.841-23.544c1.262-2.828,3.047-6.781,6.162-10.209
		c0.407-0.9,0.841-1.791,1.237-2.694c1.593-3.632,3.207-7.254,4.82-10.877c6.249-14.028,12.709-28.535,17.788-43.269
		c3.695-10.721,8.118-21.317,12.397-31.564c2.782-6.664,5.658-13.553,8.297-20.391c1.806-4.682,3.743-9.479,5.646-14.164
		c0.761-1.873,1.546-3.742,2.333-5.614c3.042-7.24,6.188-14.728,7.813-22.486c0.558-2.661-0.084-5.289-1.715-7.026
		c-0.742-0.788-1.622-1.339-2.586-1.632c-0.539-0.164-1.104-0.248-1.685-0.248c-0.296,0-0.596,0.022-0.898,0.066
		c-6.928,1.006-13.918,1.276-20.838,1.276c-4.032,0-8.039-0.091-11.999-0.182l-4.473-0.095c-4.654-0.092-9.308-0.255-13.961-0.421
		c-6.838-0.242-13.79-0.488-20.767-0.488c-6.708,0-13.435,0.252-20.111,0.928c-0.543,0.477-1.078,0.893-1.55,1.203
		c-2.177,1.42-3.252,4.544-4.808,9.667c-0.379,1.245-0.756,2.478-1.16,3.671c-2.101,6.234-4.109,12.571-6.063,18.907
		L581.965,277.288z M446.821,579.423c18.953,12.548,39.853,23.047,63.82,32.06c-2.102-28.399-3.106-57.167-4.077-85.012
		c-0.503-14.463-1.025-29.417-1.693-44.111c-0.508-11.158-0.835-22.327-1.09-33.486c-0.175-0.88-0.26-1.671-0.281-2.257
		c-0.111-3.225-0.404-6.593-0.688-9.854c-0.761-8.787-1.513-17.868,0.421-27.727c-0.08-12.774-0.118-25.491-0.128-38.03
		c-0.004-2.331-0.241-3.036-0.439-3.215c-0.049-0.044-0.122-0.079-0.214-0.107c-0.232-0.071-0.586-0.095-0.971-0.095
		c-0.699,0-1.5,0.081-1.872,0.117c-8.15,0.828-16.23,2.312-24.218,4.106c-8.168,2.611-16.353,5.431-24.29,8.176l-8.41,2.898
		c-0.35,0.12-0.631,0.223-0.897,0.321c0.243,10.402,0.448,21.431,0.198,32.519c-0.146,6.505-0.474,13.105-0.792,19.491
		c-0.108,2.191-0.215,4.405-0.318,6.622c0.162,7.785,0.318,15.757,0.312,23.682l-0.002,3.546
		c-0.005,6.229-0.002,12.508,0.015,18.808c0.541,10.67,1.23,21.317,1.926,31.749c1.25,18.737,2.545,38.109,2.829,57.237
		l-0.008,0.666C445.926,578.524,445.917,578.826,446.821,579.423z M503,167.684c1.225,0.808,2.44,1.635,3.68,2.48
		c2.35,1.603,4.78,3.261,7.128,4.633c2.536,1.485,4.74,3.206,6.731,5.076c10.591,7.743,14.848,20.984,11.38,35.892l-0.709,2.95
		c-0.063,0.259-0.124,0.523-0.187,0.784c-0.372,8.557-0.918,17.078-1.463,25.425c-0.272,4.163-0.529,8.329-0.778,12.496
		c0.018,1.143,0.032,2.295,0.051,3.431c0.059,3.698,0.12,7.395,0.148,11.09c0.131,17.23-1.354,34.639-2.789,51.475
		c-0.776,9.093-1.578,18.496-2.114,27.745c-0.064,1.118-0.266,2.294-0.472,3.478c-0.444,2.554-0.864,4.969,0.283,6.571
		c3.307,4.631,7.073,8.927,11.06,13.476c0.935,1.066,1.882,2.148,2.831,3.242c4.282-17.185,8.583-32.338,14.18-47.318
		c1.773-4.747,3.454-9.555,5.07-14.396l2.764-9.082c1.581-5.197,3.134-10.403,4.687-15.609c1.975-6.623,3.991-13.36,6.071-20.107
		l1.268-4.412c2.506-8.699,4.879-17.377,7.054-25.796c1.606-6.209,5.277-9.253,9.039-10.724c-0.001-0.042-0.006-0.082-0.007-0.123
		c-0.047-3.771-0.045-7.54-0.044-11.309c0.003-4.424,0.005-8.849-0.072-13.268c-0.121-6.83-0.295-13.661-0.472-20.489
		c-0.298-11.66-0.609-23.712-0.626-35.578c-0.014-9.269,0.41-18.671,0.819-27.767c0.795-17.677,1.616-35.956-0.753-53.896
		c-0.433-3.285-1.483-4.671-3.184-5.188c-0.657-0.2-1.413-0.271-2.269-0.271c-0.041,0-0.081,0-0.121,0
		c-13.467,0.076-29.293,0.768-44.555,5.305l-3.091,0.907c-5.748,1.674-11.69,3.403-17.054,6.151
		c-10.882,5.574-13.647,16.687-15.546,27.591c-2.171,12.483-3.645,25.326-5.07,37.746c-0.74,6.433-1.478,12.867-2.311,19.285
		c-0.119,0.918-0.118,1.7-0.002,2.397C496.973,163.812,500.112,165.777,503,167.684z M713.491,415.344
		c-2.596-1.017-5.342-1.883-8.119-2.697c-10.734-0.204-21.297-2.006-31.587-3.782c-4.777-0.824-9.718-1.678-14.579-2.348
		c-2.772-0.384-5.047-0.609-6.958-0.609c-3.045,0-5.157,0.596-6.909,2.009c-4.738,10.262-9.959,20.203-15.063,29.841
		c-0.372,0.703-0.749,1.42-1.123,2.127c-5.26,11.127-10.687,22.231-16.278,33.201c-0.635,1.246-1.302,2.486-1.944,3.732
		c-6.12,13.149-12.799,27.222-19.907,40.873c-4.328,8.317-8.745,16.622-13.016,24.653c-3.396,6.386-6.794,12.776-10.153,19.177
		c-1.349,2.926-3.732,5.128-6.571,6.319c-0.738,1.828-1.272,3.706-1.387,5.661c-0.942,16.019-0.883,30.797,0.174,45.181
		c0.339,4.609,1.079,6.222,4.734,6.647c10.007,0.67,19.764,3.235,29.2,5.714c2.314,0.608,4.628,1.215,6.947,1.799
		c0.182,0.046,0.31,0.058,0.389,0.058c0.052,0,0.083-0.005,0.095-0.011c0.113-0.059,0.364-0.487,0.515-0.74
		c1.122-1.889,2.192-3.681,3.064-5.517c5.605-11.772,12.047-23.315,18.276-34.477c4.942-8.857,10.052-18.012,14.697-27.204
		c1.868-3.696,3.841-7.347,5.815-10.998c2.759-5.109,5.562-10.344,8.067-15.677c-0.905-2.964-0.726-6.257,0.74-9.236
		c1.796-3.65,3.217-6.602,4.468-9.288c5.082-10.916,11.012-21.321,17.041-31.41c0.97-1.992,1.927-3.947,2.862-5.846
		c10.753-21.82,22.427-42.927,34.688-62.944c0.514-1.5,1.304-2.851,2.293-4.023c-0.022-0.009-0.041-0.016-0.063-0.025
		L713.491,415.344z M736.618,174.595c3.734-9.252,7.771-19.132,11.995-28.706c0.081-0.166,0.214-0.399,0.347-0.64
		c1.259-2.303,3.787-7.011,2.362-12.781c1.203-3.2,2.443-6.445,3.812-9.556c2.118-4.815,6.774-7.069,14.65-7.095
		c4.151-0.013,8.311-0.103,12.472-0.196c4.41-0.098,8.857-0.196,13.318-0.196c13.508,0,27.141,0.905,40.204,5.487
		c1.352,0.485,2.929,0.486,4.448,0.502c2.283,0.023,3.385,0.13,3.441,0.69c0.388,3.898-1.569,8.504-3.295,12.565l-0.148,0.35
		c-3.199,7.533-6.317,15.093-9.438,22.653l-2.887,6.995c-8.497,20.539-14.843,41.363-21.674,64.498
		c-0.328,1.109-0.666,2.208-1.003,3.31c-1.364,4.441-2.775,9.034-3.37,13.895c-0.473,3.867-2.467,7.257-4.579,10.847
		c-0.938,1.594-1.874,3.19-2.678,4.825c-5.625,11.451-9.859,21.147-13.324,30.517c-1.36,3.677-2.818,7.321-4.275,10.965
		c-2.698,6.747-5.488,13.723-7.612,20.857l-0.24,0.763c-0.666,2.069-1.495,4.648,0.62,7.753l1.337,1.962l1.287-1.996
		c1.069-1.661,2.15-3.311,3.233-4.968c2.354-3.599,4.713-7.204,6.956-10.879c11.65-19.098,22.421-38.652,32.014-58.125
		c4.797-9.743,11.562-22.332,21.356-33.276c3.252-3.633,6.426-5.302,10.27-5.302c0.795,0,1.619,0.071,2.477,0.211
		c9.925,1.626,20.071,2.078,29.882,2.518c6.448,0.288,13.117,0.589,19.631,1.218c8.583,0.825,16.544,3.948,23.201,6.887
		c0.721,0.319,1.562,0.591,2.403,0.863c1.026,0.328,2.938,0.939,3.144,1.423c0.651,1.515-0.315,3.642-1.248,5.7
		c-0.25,0.547-0.493,1.087-0.709,1.613c-4.462,10.921-9.214,21.947-13.81,32.609l-0.776,1.798
		c-1.494,3.469-2.802,7.056-4.069,10.526c-0.53,1.452-1.059,2.904-1.602,4.346c-6.752,17.95-14.576,35.801-22.143,53.063
		l-2.046,4.67c-1.107,2.53-2.245,5.05-3.384,7.576c-3.879,8.598-7.893,17.493-10.685,26.75c-2.141,7.093-7.241,11.73-12.641,16.64
		c-0.844,0.765-1.692,1.535-2.533,2.321c-15.141,14.115-29.397,29.572-43.181,44.517c-3.041,3.297-6.08,6.592-9.131,9.877
		c-17.029,18.334-24.68,31.936-38.321,51.622c-1.749,2.524-1.997,5.224-2.242,8.182c0.14,5.657,31.18-23.935,44.815-38.574
		c16.696-17.925,33.413-35.947,49.037-54.821c4.042-4.882,8.222-9.931,12.586-14.667c4.687-5.091,10.026-7.545,16.549-7.545
		c1.48,0,3.021,0.126,4.628,0.377c8.826,1.372,18.33,3.174,29.911,5.67c8.733,1.883,17.699,3.288,26.368,4.65
		c3.148,0.495,7.17,0.563,9.723,2.807c-0.983,0.871-1.875,1.824-2.725,2.824c-1.51,1.776-3.001,3.521-4.477,5.238
		c-15.411,14.89-32.266,31.489-47.216,49.596c-0.941,1.14-1.91,2.263-2.863,3.396c-3.609,3.495-7.203,7.037-10.669,10.737
		c-5.461,5.828-10.897,11.799-16.154,17.572l-0.189,0.208c-6.899,7.58-14.032,15.416-21.205,22.914
		c-3.093,3.232-6.072,6.618-8.577,9.505c-0.069,0.08-0.113,0.171-0.18,0.252c-4.829,4.938-9.66,9.877-14.456,14.846
		c-10.197,10.567-19.853,21.894-29.19,32.848c-3.911,4.588-7.822,9.176-11.781,13.723c-6.769,7.777-13.808,15.556-20.615,23.079
		c-3.836,4.241-7.673,8.482-11.485,12.746c-0.657,0.732-1.514,0.883-2.861,1.067l-0.536,0.075
		c-24.359,3.668-47.275,5.484-69.431,5.484c-8.436,0-16.765-0.264-25.016-0.789c-2.585-0.166-5.168-0.364-7.747-0.584
		c4.417-5.771,10.019-10.172,15.92-14.81c1.423-1.119,2.847-2.238,4.254-3.378c18.022-14.594,33.603-32.03,48.673-48.891
		c4.786-5.357,9.57-10.71,14.437-15.984l2.056-2.225c5.77-6.24,11.736-12.693,17.129-19.532c1.47-1.863,3.932-4.986,1.29-7.481
		c-0.516-0.488-1.036-0.788-1.548-0.943c-0.306-0.093-0.609-0.135-0.907-0.135c-1.818,0-3.445,1.55-4.374,2.435l-0.58,0.543
		c-15.86,14.327-31.345,29.024-46.069,43.725c0.182-0.34,0.366-0.679,0.546-1.016c3.457-6.423,6.914-12.843,10.487-19.198
		c8.989-15.98,16.439-30.867,22.777-45.517c4.578-10.574,9.678-21.754,16.539-36.249c1.06-2.238,1.787-4.505,2.254-6.815
		c0.659-1.093,1.283-2.222,1.954-3.302c4.524-7.292,1.256-13.272-0.36-15.506c-2.672-3.684-5.492-7.783-8.036-12.201
		c-2.413-6.327-5.206-12.615-9.158-18.439c-1.245-1.836-2.665-3.253-4.181-4.426c-0.314-0.964-0.712-1.903-1.258-2.779
		c-1.898-3.04-5.002-5.127-8.534-5.738c-0.882-0.153-1.82-0.23-2.79-0.23c-0.438,0-0.953,0.015-1.555,0.06
		c-2.05,0.162-4.156,0.242-6.331,0.241c-1.632-0.464-3.26-0.917-4.872-1.356l-1.803-0.494c-1.121-0.287-1.29-0.595-1.307-0.629
		c-0.027-0.053-0.141-0.371,0.281-1.512c7.037-19.023,13.4-38.614,19.552-57.556c1.065-3.281,2.144-6.556,3.214-9.835
		c3.038-3.648,3.573-8.097,3.814-10.269c0.08-0.707,0.2-1.405,0.313-2.104c1.519-3.994,3.872-7.831,6.197-11.547
		c1.206-1.924,2.411-3.852,3.513-5.811c4.687-8.337,7.089-17.024,7.14-25.824c0.039-6.766-3.027-13.236-9.113-19.23
		c-1.058-1.039-2.174-1.986-3.286-2.938c-3.698-4.165-8.173-7.958-13.393-11.326c-0.719-0.464-1.484-0.819-2.265-1.126
		c5.27-13.172,9.346-26.936,13.288-40.249c0.745-2.517,1.529-5.085,2.294-7.634C732.602,185.197,734.521,179.792,736.618,174.595z
		 M739.448,397.672c-1.407,3.495-2.435,7.167-3.426,10.716c-0.451,1.611-0.902,3.225-1.388,4.822l-0.402,1.321l3.371,1.53
		l1.044-0.939c0.334-0.268,0.751-0.6,1.06-1.114l2.852-4.714c8.789-14.505,17.879-29.503,23.133-46.241
		c0.393-1.246,0.829-2.476,1.267-3.706c0.63-1.772,1.26-3.544,1.76-5.352c0.68-2.464-0.368-4.826-2.609-5.881
		c-0.441-0.2-1.142-0.45-1.945-0.45c-1.247,0-2.739,0.603-3.892,2.931c-0.667,1.346-1.388,2.669-2.107,3.989
		c-1.093,2.007-2.224,4.083-3.159,6.24C749.368,373.85,744.304,385.611,739.448,397.672z"/>
	<path fill="#4D0E02" d="M739.448,397.672c4.856-12.061,9.919-23.821,15.559-36.846c0.935-2.158,2.066-4.233,3.159-6.24
		c0.719-1.32,1.44-2.643,2.107-3.989c1.153-2.329,2.646-2.931,3.892-2.931c0.802,0,1.503,0.25,1.945,0.45
		c2.24,1.055,3.289,3.417,2.609,5.881c-0.5,1.808-1.13,3.58-1.76,5.352c-0.437,1.23-0.874,2.459-1.267,3.706
		c-5.254,16.738-14.344,31.736-23.133,46.241l-2.852,4.714c-0.309,0.513-0.726,0.846-1.06,1.114l-1.044,0.939l-3.371-1.53
		l0.402-1.321c0.486-1.597,0.937-3.211,1.388-4.822C737.013,404.839,738.041,401.167,739.448,397.672z M494.765,1098.633
		l-0.518-0.431c-10.259-8.896-21.816-15.177-34.3-18.591c-0.764-0.211-1.485-0.315-2.152-0.315c-0.902,0-1.704,0.192-2.373,0.574
		c-0.88,0.503-1.489,1.311-1.762,2.336l-0.229,0.779c-0.57,1.867-1.525,4.996,1.529,7.185c1.394,0.999,2.876,1.832,4.143,2.517
		c8.114,4.374,16.569,7.359,25.384,10.042c3.281,0.998,6.611,1.954,9.993,2.925l3.265,0.939l0.107-1.972
		C498.032,1101.301,496.065,1099.697,494.765,1098.633z M725.014,686.785c-0.331,0-0.703,0.042-1.121,0.136
		c-2.076-0.101-4.154-0.172-6.233-0.242c-3.599-0.121-7.32-0.248-10.948-0.545l-9.466-0.776
		c-21.799-1.781-44.339-3.621-66.468-5.801c-0.367-0.036-0.712-0.053-1.041-0.053c-4.58,0-5.555,3.348-6.153,5.406
		c-0.123,0.419-0.239,0.827-0.384,1.201c-0.568,1.466-0.486,2.985,0.234,4.281c0.732,1.325,2.093,2.337,3.805,2.858
		c0.294,0.089,0.598,0.163,0.911,0.223l0.03,0.006c3.054,0.518,6.104,1.077,9.155,1.632c6.684,1.224,13.597,2.489,20.475,3.297
		c5.468,0.642,10.907,0.912,16.387,0.912c11.615,0,23.411-1.214,36.045-2.673c5.039-0.581,10.364-1.509,15.157-4.344l0.287-0.151
		c0.599-0.296,2.426-1.206,1.801-3.459C727.231,687.778,726.614,686.785,725.014,686.785z M818.218,661.218
		c-0.092,0-0.182,0.002-0.27,0.006c-1.651,0.082-4.103,0.943-6.454,4.624c-6.522,10.22-13.269,20.787-19.642,31.355
		c-11.526,19.106-22.315,39.041-32.747,58.317l-6.418,11.84c-3.821,7.029-7.773,14.294-10.158,22.19l-0.339,1.124l3.496,2.32
		l1.887-2.44c0.672-0.869,1.345-1.734,2.005-2.61c15.797-20.917,31.445-43.493,47.837-69.021
		c6.471-10.075,12.022-20.819,17.389-31.208c3.114-6.026,6.334-12.254,9.689-18.271c1.367-2.454-0.237-4.481-0.763-5.143
		C821.747,661.781,819.682,661.218,818.218,661.218z M715.317,833.464c-0.224,0-0.45,0.012-0.679,0.037
		c-2.584,0.281-3.974,2.28-4.988,3.739c-0.208,0.3-0.413,0.597-0.623,0.871c-9.391,12.211-17.762,26.377-25.592,43.311
		c-3.981,8.61-6.591,16.222-8.213,23.952l-0.361,1.722l1.751,0.17c0.211,0.021,0.412,0.03,0.603,0.03
		c2.483,0,3.311-1.633,3.723-2.448c0.077-0.153,0.184-0.361,0.234-0.42c17.093-19.565,29.955-39.579,39.321-61.178
		c1.124-2.592,0.901-5.452-0.581-7.465C718.808,834.287,717.163,833.464,715.317,833.464z M988.26,460.803
		c1.84,14.54-1.959,28.217-12.249,38.882c-9.837,10.195-18.301,21.607-28.074,31.85c0,0-36.467,39.994-36.467,39.994
		c0.124,0.027,0.249,0.038,0.373,0.068c3.97,0.976,7.219,3.818,8.714,7.623c4.261,10.842,3.948,20.878-0.957,30.681
		c-21.758,43.491-47.585,85.237-72.58,125.64l-0.159,0.257c-6.231,10.071-12.463,20.145-18.637,30.251l-8.743,14.306l-0.126,0.205
		c-33.247,54.407-67.626,110.666-100.86,166.318c-15.346,25.698-31.131,51.696-46.396,76.839l-0.109,0.18l-0.689,1.133
		c-14.501,23.889-29.496,48.59-44.057,72.945l-3.164,5.308c-4.856,8.163-9.877,16.604-15.296,24.895
		c-12.71,20.552-27.331,21.224-27.331,21.224c-2.208,0.325-4.516,0.599-7.01,0.599c-3.528,0-6.799-0.384-9.97-0.756
		c-1.252-0.147-2.503-0.293-3.745-0.406c-20.417-1.855-40.388-6.362-57.508-10.441c-14.4-3.434-28.975-7.051-43.073-10.55
		l-15.515-3.844c-22.939-5.668-45.347-12.717-67.011-19.532c-6.225-1.955-12.447-3.909-18.678-5.834
		c-18.189-5.617-36.16-12.43-53.539-19.02l-0.188-0.071l-7.136-2.704c-13.138-4.964-26.055-10.484-38.537-15.818l-2.871-1.224
		c-9.408-4.014-17.891-9.263-26.088-14.334l-0.994-0.613c-0.457-0.282-1.146-0.709-1.943-1.288
		c-15.6-9.504-15.57-26.511-15.57-26.511c-1.173-12.115-1.032-24.558,0.441-39.158c5.569-55.221,10.102-116.023,14.264-191.346
		c2.22-40.192,5.22-80.541,8.919-119.924c2.257-24.033,4.753-48.425,7.169-72.029c2.403-23.468,4.888-47.735,7.153-71.844
		c4.253-45.331,6.707-80.123,7.955-112.819c0.046-1.182,0.065-2.381,0.084-3.595c0.135-8.103,0.32-19.201,8.384-28.641
		c1.546-1.812,3.207-3.482,5.23-5.256c0.655-0.574,1.368-1.052,2.109-1.472c-4.719-14.211-8.243-24.736-11.733-37.142l-0.048-0.172
		c-5.409-19.227-10.76-38.458-11.161-58.572c-0.208-10.389,5.694-18.348,17.542-23.656c12.872-5.767,26.12-10.731,39.721-14.49
		c11.104-3.068,25.24-7.97,36.384-2.944c6.502,2.932,12.211,7.281,18.5,10.598c1.965-20.392,2.656-40.747,3.054-58.268
		c0.25-11.085,7.49-21.251,18.442-25.899c19.323-8.205,39.295-9.336,57.999-9.336c3.755,0,7.499,0.046,11.216,0.092
		c3.202,0.038,5.732,0.069,8.471,0.902c2.292,0.697,4.077,1.74,5.505,2.974c1.179-0.357,2.396-0.589,3.639-0.589
		c0.792,0,1.59,0.075,2.383,0.228c2.632,0.507,5.126,1.192,7.531,1.974c0.745-5.824,1.433-11.762,2.096-17.525l0.035-0.304
		c1.446-12.593,2.941-25.615,5.173-38.453c1.687-9.693,4.828-27.737,22.21-36.64c6.428-3.293,13.246-5.278,19.249-7.026l3.049-0.895
		c16.786-4.99,33.72-5.746,48.037-5.827c0.035,0,0.192-0.001,0.227-0.001c2.187,0,4.128,0.267,5.935,0.817
		c2.619,0.797,6.508,2.765,9.208,7.268c1.699-0.81,3.54-1.258,5.408-1.258c1.559,0,3.129,0.29,4.625,0.881
		c12.58,4.97,23.59,10.427,33.655,16.68c5.937,3.685,12.911,10.897,12.411,24.326c-0.101,2.699-0.3,5.384-0.467,8.076
		c7.921-2.853,16.218-4.27,25.223-4.27c3.395,0,6.933,0.207,10.36,0.6c1.006,0.102,1.994,0.299,2.941,0.587
		c2.128,0.648,3.991,1.756,5.506,3.231c1.383-0.506,2.838-0.794,4.315-0.794c0.858,0,1.722,0.088,2.576,0.266
		c14.494,3.028,27.285,9.147,38.965,15.406c0.536-1.325,1.058-2.651,1.639-3.973c2.92-6.639,9.824-14.564,26.139-14.618
		c3.873-0.012,7.669-0.091,12.28-0.194c4.407-0.098,8.964-0.198,13.549-0.198c12.999,0,28.316,0.713,43.724,5.973
		c0.281,0.008,0.673,0.012,1.054,0.016c7.97,0.08,11.944,3.136,13.933,6.333c1.085-0.301,2.21-0.478,3.356-0.478
		c1.393,0,2.808,0.233,4.193,0.722c11.931,4.215,22.027,10.591,30.009,18.956c3.858,4.047,7.554,8.527,10.982,13.311
		c6.294,8.776,7.687,18.541,4.028,28.24c-1.14,3.02-2.124,6.194-3.09,9.443l-5.983,26.256c0.546,0.048,1.084,0.07,1.631,0.123
		c10.342,0.994,19.493,4.552,27.06,7.893c0.372,0.153,0.793,0.274,1.184,0.401c2.771,0.887,7.76,2.537,10.383,7.528
		c0.539-0.07,1.079-0.125,1.62-0.125c2.35,0,4.682,0.658,6.714,1.939c16.236,10.233,27.816,24.316,35.428,43.122
		c0.078,0.196,0.147,0.384,0.209,0.559c5.419,8.556,5.412,18.07-0.028,28.307c-5.379,10.119-10.17,20.926-14.804,31.38
		c-1.127,2.543-2.263,5.081-3.401,7.618c0.013-0.004-18.16,57.754-18.16,57.754l1.925,0.302c0.212,0.034,0.428,0.054,0.621,0.076
		c1.448,0.161,3.87,0.429,6.616,1.742c3.904,1.921,6.367,3.492,8.194,6.289c0.643,0.985,1.089,2.06,1.433,3.166
		c6.077,1.367,9.07,6.541,10.079,8.325c6.65,11.747,10.989,25.08,13.151,38.453C987.868,457.906,988.077,459.355,988.26,460.803z
		 M912.87,307.281c0.075-0.002,0.148-0.002,0.221-0.002c0.829,0,1.577,0.103,2.25,0.308c0.66,0.201,1.247,0.502,1.765,0.9
		c1.431,1.107,2.18,2.887,2.23,5.297c0.168,8.092,0.249,16.706-0.736,25.26c-0.277,2.403-0.613,4.807-0.952,7.224
		c-0.812,5.801-1.648,11.774-1.66,18.021c1.798-1.195,3.574-2.373,5.332-3.535c6.024-3.993,11.714-7.76,17.351-11.707
		c0.976-0.683,1.993-1.338,3.012-1.995c3.816-2.46,7.42-4.783,9.205-8.726c1.609-3.556,3.192-7.127,4.775-10.697
		c4.726-10.661,9.613-21.684,15.197-32.187c3.5-6.586,3.486-11.514-0.047-16.484c-0.349-0.492-0.485-1.002-0.595-1.415
		c-0.036-0.133-0.07-0.272-0.121-0.4c-6.553-16.188-16.52-28.351-30.442-37.125c-3.368,8.214-6.462,16.669-9.461,24.864
		C925.053,278.933,919.745,293.434,912.87,307.281z M849.419,200.927l21.934-10.759c0.553-0.272,1.095-0.563,1.639-0.854
		c2.101-1.126,4.447-2.383,7.326-2.383c0.434,0,0.879,0.028,1.338,0.09c3.217,0.426,5.279,2.358,7.254,4.251
		c0.447-1.516,0.88-3.023,1.311-4.518c1.527-5.304,2.972-10.314,4.849-15.293c2.193-5.811,1.405-11.042-2.478-16.456
		c-3.104-4.332-6.424-8.353-9.864-11.961c-6.603-6.92-15.037-12.221-25.088-15.771C848.604,150.28,848.445,174.324,849.419,200.927z
		 M736.618,174.595c-2.097,5.197-4.016,10.601-5.739,16.057c-0.765,2.549-1.549,5.118-2.294,7.634
		c-3.942,13.313-8.018,27.077-13.288,40.249c0.781,0.306,1.546,0.662,2.265,1.126c5.22,3.368,9.695,7.16,13.393,11.326
		c1.112,0.952,2.229,1.899,3.286,2.938c6.086,5.994,9.152,12.465,9.113,19.23c-0.051,8.799-2.453,17.487-7.14,25.824
		c-1.102,1.959-2.307,3.887-3.513,5.811c-2.325,3.716-4.678,7.554-6.197,11.547c-0.113,0.7-0.233,1.398-0.313,2.104
		c-0.241,2.172-0.776,6.621-3.814,10.269c-1.069,3.279-2.148,6.555-3.214,9.835c-6.152,18.942-12.515,38.534-19.552,57.556
		c-0.421,1.141-0.307,1.459-0.281,1.512c0.016,0.034,0.185,0.342,1.307,0.629l1.803,0.494c1.612,0.439,3.24,0.892,4.872,1.356
		c2.175,0.001,4.281-0.079,6.331-0.241c0.602-0.045,1.117-0.06,1.555-0.06c0.97,0,1.908,0.077,2.79,0.23
		c3.532,0.611,6.635,2.698,8.534,5.738c0.546,0.876,0.944,1.815,1.258,2.779c1.516,1.173,2.936,2.59,4.181,4.426
		c3.952,5.824,6.745,12.112,9.158,18.439c2.544,4.418,5.364,8.517,8.036,12.201c1.616,2.233,4.884,8.214,0.36,15.506
		c-0.671,1.08-1.295,2.209-1.954,3.302c-0.467,2.31-1.194,4.577-2.254,6.815c-6.86,14.494-11.961,25.674-16.539,36.249
		c-6.338,14.65-13.788,29.537-22.777,45.517c-3.574,6.355-7.03,12.775-10.487,19.198c-0.181,0.337-0.364,0.676-0.546,1.016
		c14.723-14.701,30.209-29.399,46.069-43.725l0.58-0.543c0.929-0.885,2.556-2.435,4.374-2.435c0.298,0,0.601,0.042,0.907,0.135
		c0.512,0.156,1.031,0.455,1.548,0.943c2.642,2.494,0.18,5.617-1.29,7.481c-5.393,6.84-11.359,13.292-17.129,19.532l-2.056,2.225
		c-4.867,5.274-9.651,10.627-14.437,15.984c-15.071,16.861-30.651,34.297-48.673,48.891c-1.407,1.14-2.831,2.259-4.254,3.378
		c-5.9,4.638-11.503,9.039-15.92,14.81c2.579,0.219,5.163,0.417,7.747,0.584c8.251,0.525,16.58,0.789,25.016,0.789
		c22.155,0,45.072-1.816,69.431-5.484l0.536-0.075c1.347-0.185,2.204-0.335,2.861-1.067c3.812-4.264,7.649-8.505,11.485-12.746
		c6.807-7.524,13.846-15.303,20.615-23.079c3.959-4.547,7.87-9.135,11.781-13.723c9.338-10.954,18.993-22.281,29.19-32.848
		c4.796-4.969,9.627-9.908,14.456-14.846c0.066-0.081,0.111-0.173,0.18-0.252c2.506-2.886,5.484-6.273,8.577-9.505
		c7.173-7.498,14.305-15.334,21.205-22.914l0.189-0.208c5.257-5.774,10.693-11.744,16.154-17.572
		c3.466-3.699,7.06-7.242,10.669-10.737c0.952-1.133,1.921-2.256,2.863-3.396c14.95-18.107,31.805-34.706,47.216-49.596
		c1.476-1.717,2.968-3.462,4.477-5.238c0.85-1,1.742-1.953,2.725-2.824c-2.554-2.244-6.576-2.313-9.723-2.807
		c-8.669-1.362-17.635-2.767-26.368-4.65c-11.581-2.496-21.084-4.298-29.911-5.67c-1.608-0.25-3.149-0.377-4.628-0.377
		c-6.523,0-11.861,2.454-16.549,7.545c-4.364,4.736-8.544,9.785-12.586,14.667c-15.624,18.874-32.341,36.896-49.037,54.821
		c-13.635,14.639-44.675,44.231-44.815,38.574c0.245-2.958,0.493-5.658,2.242-8.182c13.642-19.686,21.292-33.288,38.321-51.622
		c3.051-3.285,6.09-6.579,9.131-9.877c13.784-14.945,28.04-30.403,43.181-44.517c0.841-0.785,1.689-1.555,2.533-2.321
		c5.4-4.909,10.5-9.546,12.641-16.64c2.793-9.257,6.806-18.152,10.685-26.75c1.138-2.527,2.277-5.047,3.384-7.576l2.046-4.67
		c7.567-17.262,15.39-35.113,22.143-53.063c0.543-1.441,1.072-2.894,1.602-4.346c1.267-3.471,2.575-7.057,4.069-10.526l0.776-1.798
		c4.596-10.662,9.348-21.688,13.81-32.609c0.216-0.526,0.459-1.065,0.709-1.613c0.933-2.059,1.898-4.185,1.248-5.7
		c-0.206-0.484-2.117-1.094-3.144-1.423c-0.841-0.272-1.682-0.544-2.403-0.863c-6.658-2.939-14.619-6.062-23.201-6.887
		c-6.514-0.629-13.182-0.93-19.631-1.218c-9.811-0.44-19.956-0.893-29.882-2.518c-0.858-0.14-1.682-0.211-2.477-0.211
		c-3.844,0-7.018,1.668-10.27,5.302c-9.794,10.944-16.559,23.533-21.356,33.276c-9.594,19.472-20.365,39.027-32.014,58.125
		c-2.243,3.675-4.602,7.28-6.956,10.879c-1.083,1.657-2.164,3.307-3.233,4.968l-1.287,1.996l-1.337-1.962
		c-2.114-3.105-1.285-5.684-0.62-7.753l0.24-0.763c2.124-7.133,4.914-14.11,7.612-20.857c1.457-3.644,2.914-7.288,4.275-10.965
		c3.465-9.37,7.699-19.066,13.324-30.517c0.804-1.635,1.74-3.23,2.678-4.825c2.111-3.59,4.106-6.981,4.579-10.847
		c0.596-4.861,2.006-9.454,3.37-13.895c0.337-1.103,0.675-2.202,1.003-3.31c6.831-23.135,13.177-43.959,21.674-64.498l2.887-6.995
		c3.12-7.56,6.239-15.121,9.438-22.653l0.148-0.35c1.726-4.06,3.683-8.667,3.295-12.565c-0.056-0.56-1.158-0.667-3.441-0.69
		c-1.518-0.016-3.096-0.017-4.448-0.502c-13.063-4.582-26.696-5.487-40.204-5.487c-4.461,0-8.908,0.099-13.318,0.196
		c-4.161,0.093-8.321,0.183-12.472,0.196c-7.877,0.026-12.532,2.279-14.65,7.095c-1.37,3.11-2.609,6.355-3.812,9.556
		c1.425,5.769-1.103,10.478-2.362,12.781c-0.132,0.242-0.266,0.474-0.347,0.64C744.389,155.463,740.352,165.344,736.618,174.595z
		 M689.202,514.597c-0.829,2.129-1.607,4.277-2.386,6.424c-1.24,3.427-2.525,6.97-4.001,10.387
		c-5.563,12.878-10.222,26.229-13.88,39.76c5.615-5.76,10.703-11.998,15.655-18.068l3.083-3.77c0.615-0.748,1.242-1.489,1.872-2.233
		c3.225-3.813,6.272-7.414,7.812-11.894c3.758-10.939,8.974-21.355,14.021-31.429l2.634-5.266
		c6.706-13.427,13.668-27.218,21.478-40.42c0.188-2.536-0.183-5.666-1.649-9.748l-1.528-4.302c-0.867-2.458-1.725-4.872-2.611-7.238
		c-2.25-3.995-4.319-8.258-5.95-12.816c-0.005-0.012-0.015-0.026-0.021-0.039c-0.264,0.428-0.523,0.866-0.786,1.295
		c-2.446,6.357-5.609,12.412-8.703,18.268c-1.227,2.323-2.455,4.645-3.637,6.988c-5.92,11.724-12.837,23.113-19.527,34.125
		c-1.946,3.203-3.909,6.435-5.86,9.694c-4.26,8.761-8.783,18.353-13.108,28.385c2.809-4.106,5.605-8.236,8.339-12.359
		c0.892-1.346,2.134-3.219,4.291-3.219c0.393,0,0.818,0.062,1.276,0.202c0.297,0.091,0.609,0.214,0.936,0.372
		C688.501,508.451,690.853,510.353,689.202,514.597z M713.962,415.529c-0.022-0.009-0.041-0.016-0.063-0.025l-0.407-0.159
		c-2.596-1.017-5.342-1.883-8.119-2.697c-10.734-0.204-21.297-2.006-31.587-3.782c-4.777-0.824-9.718-1.678-14.579-2.348
		c-2.772-0.384-5.047-0.609-6.958-0.609c-3.045,0-5.157,0.596-6.909,2.009c-4.738,10.262-9.959,20.203-15.063,29.841
		c-0.372,0.703-0.749,1.42-1.123,2.127c-5.26,11.127-10.687,22.231-16.278,33.201c-0.635,1.246-1.302,2.486-1.944,3.732
		c-6.12,13.149-12.799,27.222-19.907,40.873c-4.328,8.317-8.745,16.622-13.016,24.653c-3.396,6.386-6.794,12.776-10.153,19.177
		c-1.349,2.926-3.732,5.128-6.571,6.319c-0.738,1.828-1.272,3.706-1.387,5.661c-0.942,16.019-0.883,30.797,0.174,45.181
		c0.339,4.609,1.079,6.222,4.734,6.647c10.007,0.67,19.764,3.235,29.2,5.714c2.314,0.608,4.628,1.215,6.947,1.799
		c0.182,0.046,0.31,0.058,0.389,0.058c0.052,0,0.083-0.005,0.095-0.011c0.113-0.059,0.364-0.487,0.515-0.74
		c1.122-1.889,2.192-3.681,3.064-5.517c5.605-11.772,12.047-23.315,18.276-34.477c4.942-8.857,10.052-18.012,14.697-27.204
		c1.868-3.696,3.841-7.347,5.815-10.998c2.759-5.109,5.562-10.344,8.067-15.677c-0.905-2.964-0.726-6.257,0.74-9.236
		c1.796-3.65,3.217-6.602,4.468-9.288c5.082-10.916,11.012-21.321,17.041-31.41c0.97-1.992,1.927-3.947,2.862-5.846
		c10.753-21.82,22.427-42.927,34.688-62.944C712.182,418.051,712.972,416.7,713.962,415.529z M701.72,324.011
		c0.956-1.035,3.205-3.586,6.208-3.586c0.59,0,1.209,0.098,1.854,0.326c0.557,0.172,1.237,0.343,1.822,0.343
		c0.006,0,0.01-0.004,0.017-0.004c0.816-2.494,1.622-4.994,2.445-7.484c0.061-0.186,0.147-0.355,0.211-0.539
		c1.571-8.524,4.886-16.257,8.112-23.768c0.973-2.265,1.946-4.53,2.872-6.813c3.04-7.491,3.203-13.033,0.514-17.451
		c-1.173-1.927-2.618-3.754-4.184-5.533c-3.713-3.018-7.676-5.54-11.08-7.588l-0.388,2.901c-3.196,23.881-6.491,48.51-11.925,73.066
		C699.414,326.529,700.559,325.261,701.72,324.011z M693.356,170.121c0.644,0.031,1.268,0.098,1.822,0.267
		c3.447,1.049,5.213,4.404,5.884,5.679c3.551,6.743,5.488,13.843,6.922,20.661c0.245-0.266,0.491-0.538,0.742-0.815
		c2.281-2.523,4.641-5.134,8.743-5.762c0.185-0.072,0.524-0.525,1.065-2.269c0.023-0.074,0.051-0.147,0.074-0.221
		c2.238-7.478,4.584-15.078,7.209-22.585c3.339-9.55,6.955-19.125,10.487-28.478l1.098-2.909c-0.09-0.053-0.135-0.109-0.231-0.161
		c-11.228-6.062-23.433-12.009-36.742-14.79c-1.207,9.503-2.691,19.131-4.383,28.793
		C695.335,155.131,694.399,162.678,693.356,170.121z M646.877,225.819c0.137-0.007,0.289-0.021,0.409-0.03
		c0.327-0.027,0.661-0.052,0.993-0.052c0.014,0,0.027,0,0.04,0l3.781,0.042c5.63,0.058,11.453,0.117,17.182,0.479
		c0.371,0.023,0.942,0.059,1.526,0.059c0.859,0,1.745-0.078,2.053-0.39c0.186-0.188,0.262-0.669,0.21-1.321l0.039-0.505
		c0.196-0.792,0.397-1.495,0.583-2.143c0.331-1.162,0.593-2.078,0.663-2.951c1.024-12.932,2.936-25.943,4.788-38.526
		c0.278-1.896,0.555-3.818,0.833-5.73c-0.97-2.454-1.206-5.166-0.53-7.777c0.056-0.215,0.117-0.436,0.141-0.518l0.038-0.117
		c1.434-6.827,2.725-13.666,3.925-20.49c0.156-1.705,0.339-3.412,0.465-5.114c0.659-8.891,1.593-15.689,3.025-22.034l0.134-0.544
		c0.159-0.623,0.456-1.783,0.198-2.16c-0.055-0.078-0.195-0.169-0.437-0.242c-0.145-0.044-0.326-0.083-0.547-0.106
		c-3.12-0.356-6.147-0.535-9.087-0.535c-9.035,0-17.257,1.688-24.945,5.103c-0.507,0.226-0.936,0.446-1.309,0.687
		c-0.134,1.571-0.255,3.165-0.39,4.724c-0.932,10.744-1.897,21.855-1.972,32.581c-0.002,0.394-0.036,0.757-0.058,1.131
		c-0.045,4.253-0.09,8.505-0.154,12.757c-0.071,4.583-0.083,9.169-0.095,13.754c-0.033,12.966-0.069,26.375-1.476,39.557
		C646.885,225.578,646.877,225.713,646.877,225.819z M601.855,69.42c0.043,0.344,0.087,0.685,0.129,1.026
		c0.311,2.453,0.606,4.777,0.799,7.111c1.994,24.207,2.129,48.72,1.978,71.602c-0.002,0.334-0.025,0.683-0.048,1.037
		c-0.105,1.62-0.061,2.285,0.806,2.874c2.362,1.59,3.335,4.048,4.193,6.218l0.46,1.143c2.312,5.514,4.717,10.99,7.262,16.78
		l1.951,4.453c0.773-1.439,1.465-2.838,2.141-4.207c1.039-2.104,2.021-4.093,3.186-5.991c0.629-1.027,1.096-2.298,1.592-3.648
		c1.403-3.822,3.142-8.559,9.7-8.633c0.012-0.055,0.023-0.147,0.035-0.224c0.006-0.586,0.015-1.171,0.021-1.757
		c0.113-10.745,0.229-21.855,0.606-32.928c0.107-3.114,0.849-5.827,2.145-8.176c0.486-5.936,0.931-11.912,1.152-17.855
		c0.23-6.184-1.764-10.239-6.468-13.158C624.086,79.241,613.713,74.106,601.855,69.42z M588.664,256.169
		c-2.101,6.234-4.109,12.571-6.063,18.907l-0.636,2.212c-4.021,14.015-8.155,28.379-12.875,42.549l-18.914,62.154
		c-0.253,0.831-0.611,1.608-1.018,2.353c-0.607,2.477-1.216,4.993-1.831,7.568c-0.089,0.377-0.115,0.648-0.125,0.869l0.926,1.168
		c4.071,5.141,8.282,10.458,12.884,14.743c4.02,3.752,5.57,8.454,4.608,13.975c-0.564,3.239-1.036,6.499-1.487,9.763
		c-0.039,1.804-0.085,3.608-0.121,5.413l-0.014,0.664c-0.357,18.468-1.898,37.058-3.578,55.265
		c-0.061,7.883-0.037,15.738-0.013,23.527l0.015,4.983l0.009,0.244c0.192,4.178-1.04,7.642-3.522,10.428
		c-0.118,1.487-0.259,2.981-0.37,4.462c-0.085,1.157-0.191,2.317-0.296,3.484c-0.306,3.404-0.576,6.867-0.413,10.322
		c4.835-8.824,9.787-17.697,14.593-26.295l0.33-0.591c9.68-17.312,19.636-35.176,28.875-53.079c1.636-3.514,3.24-6.977,4.791-10.329
		c4.186-9.049,8.866-17.979,13.463-26.667c3.707-7.847,7.343-15.706,10.841-23.544c1.262-2.828,3.047-6.781,6.162-10.209
		c0.407-0.9,0.841-1.791,1.237-2.694c1.593-3.632,3.207-7.254,4.82-10.877c6.249-14.028,12.709-28.535,17.788-43.269
		c3.695-10.721,8.118-21.317,12.397-31.564c2.782-6.664,5.658-13.553,8.297-20.391c1.806-4.682,3.743-9.479,5.646-14.164
		c0.761-1.873,1.546-3.742,2.333-5.614c3.042-7.24,6.188-14.728,7.813-22.486c0.558-2.661-0.084-5.289-1.715-7.026
		c-0.742-0.788-1.622-1.339-2.586-1.632c-0.539-0.164-1.104-0.248-1.685-0.248c-0.296,0-0.596,0.022-0.898,0.066
		c-6.928,1.006-13.918,1.276-20.838,1.276c-4.032,0-8.039-0.091-11.999-0.182l-4.473-0.095c-4.654-0.092-9.308-0.255-13.961-0.421
		c-6.838-0.242-13.79-0.488-20.767-0.488c-6.708,0-13.435,0.252-20.111,0.928c-0.543,0.477-1.078,0.893-1.55,1.203
		c-2.177,1.42-3.252,4.544-4.808,9.667C589.445,253.743,589.068,254.976,588.664,256.169z M551.624,424.335
		c-0.035-0.073-0.221-0.359-0.656-0.802c-5.347-5.437-8.682-12.145-11.628-18.072c-1.011-2.036-2.058-4.142-3.114-6.036
		c-0.108-0.194-0.188-0.402-0.286-0.601c-4.07-5.16-8.088-10.4-12.383-16.023c-1.134-1.483-2.287-2.99-3.464-4.528
		c0.221,11.949-2.141,22.466-4.259,31.877c0.08,12.18,0.234,24.412,0.503,36.685c0.137,0.104,0.337,0.198,0.691,0.342
		c0.033,0.013,0.064,0.026,0.098,0.039c0.013-0.092,0.028-0.174,0.045-0.246c0.574-2.43,2.249-3.762,4.665-3.762
		c0.344,0,0.703,0.027,1.076,0.082c0.428,0.06,0.827,0.149,1.201,0.263c2.197,0.668,3.457,2.241,3.838,4.774
		c1.203,7.956,2.766,16.007,4.28,23.788c2.028,10.438,4.126,21.228,5.393,32.022c1.044,8.892,2.59,17.714,4.228,27.053
		c0.383,2.173,0.768,4.373,1.152,6.604c0.022-0.08,0.041-0.161,0.061-0.242c0.112-0.464,0.131-1.021,0.151-1.609
		c0.015-0.439,0.031-0.881,0.078-1.313l0.078-0.741c0.205-1.973,0.452-4.25,1.33-6.104c0.696-8.332,1.451-16.667,2.222-24.848
		c0.305-3.24,0.605-6.522,0.907-9.792c0.167-20.518,0.934-41.28,3.729-61.814c0.031-1.363,0.053-2.725,0.091-4.088
		C551.68,426.235,551.724,424.711,551.624,424.335z M493.555,161.976c3.418,1.836,6.557,3.801,9.445,5.708
		c1.225,0.808,2.44,1.635,3.68,2.48c2.35,1.603,4.78,3.261,7.128,4.633c2.536,1.485,4.74,3.206,6.731,5.076
		c10.591,7.743,14.848,20.984,11.38,35.892l-0.709,2.95c-0.063,0.259-0.124,0.523-0.187,0.784
		c-0.372,8.557-0.918,17.078-1.463,25.425c-0.272,4.163-0.529,8.329-0.778,12.496c0.018,1.143,0.032,2.295,0.051,3.431
		c0.059,3.698,0.12,7.395,0.148,11.09c0.131,17.23-1.354,34.639-2.789,51.475c-0.776,9.093-1.578,18.496-2.114,27.745
		c-0.064,1.118-0.266,2.294-0.472,3.478c-0.444,2.554-0.864,4.969,0.283,6.571c3.307,4.631,7.073,8.927,11.06,13.476
		c0.935,1.066,1.882,2.148,2.831,3.242c4.282-17.185,8.583-32.338,14.18-47.318c1.773-4.747,3.454-9.555,5.07-14.396l2.764-9.082
		c1.581-5.197,3.134-10.403,4.687-15.609c1.975-6.623,3.991-13.36,6.071-20.107l1.268-4.412c2.506-8.699,4.879-17.377,7.054-25.796
		c1.606-6.209,5.277-9.253,9.039-10.724c-0.001-0.042-0.006-0.082-0.007-0.123c-0.047-3.771-0.045-7.54-0.044-11.309
		c0.003-4.424,0.005-8.849-0.072-13.268c-0.121-6.83-0.295-13.661-0.472-20.489c-0.298-11.66-0.609-23.712-0.626-35.578
		c-0.014-9.269,0.41-18.671,0.819-27.767c0.795-17.677,1.616-35.956-0.753-53.896c-0.433-3.285-1.483-4.671-3.184-5.188
		c-0.657-0.2-1.413-0.271-2.269-0.271c-0.041,0-0.081,0-0.121,0c-13.467,0.076-29.293,0.768-44.555,5.305l-3.091,0.907
		c-5.748,1.674-11.69,3.403-17.054,6.151c-10.882,5.574-13.647,16.687-15.546,27.591c-2.171,12.483-3.645,25.326-5.07,37.746
		c-0.74,6.433-1.478,12.867-2.311,19.285C493.438,160.497,493.439,161.278,493.555,161.976z M473.025,167.46
		c0.089,1.12,0.123,2.149,0.148,3.01c0.673,22.587,2.978,45.597,5.207,67.856c0.825,8.247,1.662,16.64,2.429,25.084
		c1.274-3.239,3.335-5.391,5.915-6.007c0.519-0.125,1.047-0.186,1.58-0.186c0.73,0,1.471,0.115,2.214,0.341
		c1.586,0.483,3.177,1.471,4.681,2.935c2.267,2.203,3.77,5.029,4.598,8.636c1.164,5.107,2.361,10.202,3.561,15.294l0.245,1.048
		c2.475-6.484,5.346-12.436,7.932-17.658c0.592-1.195,1.394-2.137,2.172-3.051c1.167-1.368,2.172-2.549,2.275-4.372
		c0.061-1.09,0.138-2.179,0.204-3.268c-0.129-8.595-0.205-17.395,0.181-26.194c0.206-4.69,1.166-9.143,2.135-13.204
		c0.13-3.15,0.236-6.298,0.302-9.434c0.169-8.016-1.696-13.892-5.888-18.331c-0.302-0.217-0.563-0.468-0.882-0.671l-2.826-1.798
		c-5.575-3.557-11.34-7.236-17.101-9.947c-3.632-1.707-6.124-3.848-7.83-6.13C480.798,169.771,477.047,168.39,473.025,167.46z
		 M445.964,576.861l-0.008,0.666c-0.031,0.997-0.04,1.299,0.864,1.896c18.953,12.548,39.853,23.047,63.82,32.06
		c-2.102-28.399-3.106-57.167-4.077-85.012c-0.503-14.463-1.025-29.417-1.693-44.111c-0.508-11.158-0.835-22.327-1.09-33.486
		c-0.175-0.88-0.26-1.671-0.281-2.257c-0.111-3.225-0.404-6.593-0.688-9.854c-0.761-8.787-1.513-17.868,0.421-27.727
		c-0.08-12.774-0.118-25.491-0.128-38.03c-0.004-2.331-0.241-3.036-0.439-3.215c-0.049-0.044-0.122-0.079-0.214-0.107
		c-0.232-0.071-0.586-0.095-0.971-0.095c-0.699,0-1.5,0.081-1.872,0.117c-8.15,0.828-16.23,2.312-24.218,4.106
		c-8.168,2.611-16.353,5.431-24.29,8.176l-8.41,2.898c-0.35,0.12-0.631,0.223-0.897,0.321c0.243,10.402,0.448,21.431,0.198,32.519
		c-0.146,6.505-0.474,13.105-0.792,19.491c-0.108,2.191-0.215,4.405-0.318,6.622c0.162,7.785,0.318,15.757,0.312,23.682
		l-0.002,3.546c-0.005,6.229-0.002,12.508,0.015,18.808c0.541,10.67,1.23,21.317,1.926,31.749
		C444.386,538.361,445.68,557.734,445.964,576.861z M374.923,251.737c1.286,1.372,30.273,20.603,31.827,35.296
		c1.83,17.294,4.007,49.974,3.422,68.166c1.43,11.017,1.716,22.98,0.918,37.351c-0.173,3.118,0.457,12.964,0.657,14.828
		c2.324,21.83,3.826,44.072,5.279,65.579l0.822,12.095c1.641,23.827,4.409,49.092,8.461,77.239c0.562,3.899,2,6.027,5.392,7.57
		c-2.541-27.434-3.009-54.828-3.085-81.654c-0.355-7.06-0.659-14.138-0.816-21.204c-0.188-8.499,0.101-16.992,0.484-25.335
		c-0.015-0.689-0.026-1.398-0.04-2.084c-0.381-18.089-0.775-36.796,0.635-55.234c0.114-1.494,0.257-2.735,0.432-3.876
		c0.671-8.417,6.709-11.434,10.465-12.448l6.371-1.728c8.494-2.314,17.137-4.664,25.971-6.664c0.159-0.051,0.318-0.107,0.477-0.157
		c2.877-0.915,3.414-1.355,3.124-4.364c-1.895-19.817-4.044-43.296-5.598-67.225c-0.315-4.837-0.693-9.695-1.098-14.555
		c-0.866-1.382-1.506-2.924-1.785-4.612c-3.669-22.185-4.943-44.574-6.18-66.33c-0.64-11.244-1.301-22.87-2.292-34.235
		c-0.111-1.286,0.044-2.546,0.314-3.777c-0.172-0.096-0.36-0.18-0.578-0.246c-1.018-0.31-2.57-0.329-4.956-0.358
		c-3.67-0.046-7.363-0.091-11.065-0.091c-17.854,0-35.952,1.063-53.077,8.334c-6.306,2.676-10.638,8.541-10.775,14.592
		C378.191,206.064,377.398,228.982,374.923,251.737z M348.78,251.356c6.458,32.851,11.651,66.027,16.679,98.144
		c1.898,12.127,3.795,24.241,5.758,36.346c2.764-3.242,7.694,0.101,8.855,3.1c2.223,5.741,4.725,11.372,6.862,17.147
		c3.276,8.854,6.473,17.736,9.813,27.014l1.18,3.274c0-2.683-0.005-5.346-0.012-7.986c-0.103-41.592-2.974-91.262-3.143-133.025
		c-0.044-10.685-8.581-15.697-16.275-21.396c-9.478-7.021-18.916-14.107-27.951-21.693L348.78,251.356z M286.498,365.473
		c8.996,23.271,14.466,47.643,24.843,70.463c7.731,17.004,17.122,33.683,28.708,50.988c11.385,16.997,26.009,32.608,47.073,50.189
		c-0.922-3.398-1.868-6.758-2.808-10.097c-3.117-11.078-6.061-21.544-8.02-32.413c-0.845-4.695-1.726-9.382-2.606-14.072
		c-2.691-14.326-5.474-29.142-7.155-43.967c-1.589-14.013-4.331-28.167-6.983-41.854c-1.196-6.164-2.392-12.332-3.491-18.509
		l-22.327-125.526c-0.547-3.075-0.942-5.296-1.59-5.738c-0.058-0.04-0.132-0.072-0.218-0.099c-0.188-0.057-0.437-0.082-0.732-0.082
		c-1.136,0-2.972,0.372-4.765,0.736c-17.171,3.474-34.474,9.176-52.895,17.428c-5.322,2.384-10.229,5.477-10.1,11.911
		c0.122,6.104,0.286,11.183,1.174,16.39C268.966,316.744,277.185,341.377,286.498,365.473z M581.452,1136.517
		c-0.178-0.408-0.36-0.797-0.576-1.172c-8.77-15.005-22.117-26.063-34.018-34.9c-30.198-22.433-66.16-41.082-113.172-58.692
		c-10.362-3.883-20.867-7.443-31.449-10.663c-13.596-4.137-27.322-7.713-41.067-10.697c-16.215-3.514-33.694-7.004-51.63-8.741
		c-9.391-0.908-18.114-1.504-26.454-1.504c-10.706,0-20.784,0.982-30.844,3.548c-8.634,2.197-13.789,5.416-17.238,10.758
		c-1.842,2.852-2.527,4.733-2.218,6.096c0.262,1.17,1.35,2.31,3.422,3.59l0.988,0.609c7.809,4.831,15.882,9.827,24.42,13.47
		l2.868,1.223c12.409,5.302,25.239,10.782,38.049,15.622l7.147,2.708c17.258,6.543,35.102,13.314,52.979,18.834
		c6.25,1.931,12.493,3.891,18.736,5.852c21.583,6.79,43.9,13.797,66.258,19.322l15.522,3.846c14.31,3.551,28.62,7.103,42.966,10.524
		c16.691,3.977,36.139,8.368,55.726,10.148c1.359,0.124,2.719,0.281,4.081,0.441c2.894,0.34,5.708,0.669,8.495,0.669
		C576.787,1137.407,579.113,1137.174,581.452,1136.517z M908.836,583.825l-1.204,1.044c-1.845,1.595-3.602,3.114-5.338,4.658
		c-17.159,15.261-35.545,27.264-54.644,35.675c-18.937,8.339-39.516,15.468-60.417,20.626
		c-60.165,14.849-124.289,13.848-185.268,4.858c-33.61-4.955-69.728-12.484-100.869-26.388
		c-23.105-10.316-46.851-19.999-68.653-32.923c-17.781-10.54-33.704-21.555-48.68-33.671c-29.98-24.265-51.986-49.283-67.272-76.49
		c-14.722-26.208-24.786-51.142-30.787-76.199c-2.459-7.399-4.66-14.837-6.601-22.288c-1.154,1.065-2.176,2.087-3.077,3.144
		c-5.129,6.004-5.253,13.464-5.372,20.68c-0.021,1.298-0.042,2.593-0.091,3.87c-1.259,32.948-3.728,67.958-8.001,113.508
		c-2.254,24.001-4.748,48.378-7.163,71.951c-2.413,23.567-4.907,47.938-7.159,71.923c-3.683,39.229-6.672,79.414-8.883,119.442
		c-4.173,75.515-8.719,136.497-14.308,191.915c-1.378,13.659-1.524,25.437-0.436,36.682c1.09-1.539,2.151-2.996,3.36-4.341
		c10.606-11.773,25.214-15.054,39.419-16.843c9.525-1.199,18.962-1.727,28.25-1.727c32.212,0,62.685,6.34,89.245,13.002
		c21.213,5.317,42.071,11.861,61.996,19.454c17.68,6.733,31.058,12.314,43.374,18.103c26.044,12.238,47.931,25.053,66.911,39.174
		c13.125,9.766,28.04,21.959,39.141,38.375c0.216,0.319,0.702,1.039,1.059,1.46c0.187-0.216,0.47-0.593,0.886-1.227
		c5.226-7.996,10.197-16.346,15.002-24.424l3.17-5.318c14.822-24.791,30.06-49.889,44.797-74.165
		c15.29-25.182,31.1-51.221,46.459-76.941c33.309-55.777,67.748-112.133,101.051-166.633l8.744-14.307
		c6.237-10.211,12.536-20.39,18.832-30.567c24.836-40.144,50.518-81.654,72.028-124.649
		C911.651,597.642,911.825,591.431,908.836,583.825z M976.833,462.158c-1.265-11.405-4.558-22.846-10.409-32.878
		c-0.457-0.783-2.613-4.344-4.607-7.296c-1.077,1.361-2.274,2.537-3.371,3.595c-12.031,11.606-22.353,24.855-33.839,36.981
		c-6.625,6.994-13.699,13.549-20.624,20.241c-17.445,20.709-36.426,40.151-54.847,58.984c-0.409,0.418-0.815,0.839-1.224,1.256
		c6.289-5.019,12.762-10.196,18.96-15.485c1.564-1.334,3.072-2,4.579-2c0.522,0,1.043,0.08,1.567,0.239
		c0.927,0.282,1.862,0.814,2.816,1.593c2.898,2.373,3.364,5.709,1.282,9.157c-5.736,9.492-11.518,18.961-17.504,28.766l-3.895,6.38
		c19.755-8.832,37.361-19.69,56.512-31.848c9.295-5.892,21.663-11.368,28.991-19.629c8.62-9.717,16.703-19.918,25.729-29.272
		C974.527,483.086,978.011,472.771,976.833,462.158z M423.003,1069.616c-9.314-6.704-20.122-10.198-30.575-13.576l-0.601-0.195
		c-3.132-1.015-6.259-2.043-9.388-3.073c-16.337-5.366-33.231-10.932-50.512-14.207c-5.424-1.031-10.988-1.666-16.368-2.282
		l-3.488-0.403c-0.316-0.037-0.623-0.055-0.922-0.055c-3.13,0-5.311,2.012-5.914,5.534c-0.277,1.619-0.928,5.402,3.452,6.735
		c0.002,0.001,0.005,0.002,0.008,0.002l7.102,2.164c1.696,0.52,3.397,1.04,5.107,1.56c11.925,3.629,24.174,7.225,36.542,9.793
		c3.167,0.655,6.333,1.323,9.497,1.99c10.762,2.273,21.89,4.618,32.923,6.497c3.009,0.514,5.914,1.311,8.989,2.154
		c4.678,1.286,9.517,2.613,14.695,2.836l1.773,0.077l-0.137-1.77C425.006,1071.055,423.849,1070.223,423.003,1069.616z
		 M688.863,768.241c-19.598,37.5-42.954,72.898-61.521,111.053c-14.033,28.831-30.137,56.616-45.05,85.009
		c-1.857,9.969-13.514,1.398-17.268-2.033c-10.512-9.608-22.313-16.721-34.976-23.075c-1.795-0.901-3.592-1.805-5.377-2.718
		c-48.52-24.916-100.792-38.356-154.756-44.877c-10.303-1.245-20.935-2.527-31.434-2.644c-2.043-0.021-6.827-0.074-10.002-4.427
		l7.589-103.656c0.329-6.581,0.751-13.216,1.45-19.805c1.262-11.916,2.452-23.839,3.642-35.767l2.782-27.808
		c0.981-9.881,1.965-19.768,3.045-29.643c0.624-5.703,1.54-11.358,2.381-17.031c0.438-2.954,0.371-7.159,3.919-8.052
		c5.388-1.356,18.536,14.134,63.327,32.922c5.202,2.182,10.62,4.618,15.481,6.591c3.522,1.427,7.042,2.853,10.53,4.363
		c31.831,13.776,66.462,24.682,99.819,34.076c14.876,4.2,29.701,7.053,42.241,9.288c5.105,0.907,10.228,2.044,15.183,3.145
		c23.732,5.239,47.937,8.327,72.251,8.633c8.587,0.108,18.787-0.362,22.313,9.013c0.681,1.81,0.269,4.309-0.603,6.91
		C692.496,761.679,690.094,765.885,688.863,768.241z M672.161,760.604c-31.601,0-63.272-7.714-93.79-14.794
		c-33.287-7.721-66.027-17.671-97.876-30.049c-33.268-12.929-65.941-26.579-97.65-42.475c-5.919-2.967-11.979-6.008-17.798-9.917
		c-2.304-1.549-5.422-0.111-5.708,2.65c-0.901,8.68-1.742,16.786-1.885,24.96c-0.272,15.609-1.485,31.368-2.658,46.61
		c-2.224,28.894-2.032,57.928-4.684,86.796c-0.449,4.867-0.762,9.829-1.065,14.625c-0.527,8.341-1.071,16.927-2.318,25.327
		c-0.148,1.002-0.266,2.032-0.383,3.077c-0.241,2.124-0.497,4.374-1.03,6.644c-0.665,2.833,1.564,5.518,4.475,5.504
		c0.558-0.003,1.116-0.005,1.672-0.005c6.284,0,11.46,0.206,16.29,0.652l7.881,0.707c13.518,1.199,27.465,2.432,41.133,4.808
		c11.006,1.906,21.599,4.335,33.314,7.077c10.657,2.496,19.352,4.953,27.36,7.735c13.679,4.759,29.754,10.653,45.253,18.296
		c11.93,5.881,24.191,11.929,35.966,19c3.44,2.066,6.536,4.386,9.583,6.98c0.132,0.112,0.381,0.305,0.707,0.556
		c2.936,2.257,7.163,1.074,8.601-2.338c4.805-11.401,11.318-22.03,17.323-32.873c6.692-12.085,13.39-24.182,19.305-36.673
		c14.002-29.568,31.412-57.6,48.732-85.311c0,0,0.169-0.271,0.169-0.271c4.293-6.82,8.648-13.744,12.853-20.745
		C677.683,764.245,675.561,760.599,672.161,760.604z M498.091,967.728c-18.651-14.462-40.29-22.438-62.673-29.991
		c-16.217-5.459-33.642-9.386-51.81-11.63c-19.006-2.355-38.788-4.311-58.839-4.311c-14.905,0-29.961,1.081-44.946,3.884
		c-0.505,0.094-0.824,0.103-1,0.103c-0.043,0-0.078,0-0.171,0.006c-0.035-0.091-0.11-0.4-0.038-1.29
		c0.284-3.516,0.541-7.036,0.798-10.557c0.618-8.498,1.258-17.286,2.305-25.859c1.088-8.911,2.031-17.985,2.944-26.76
		c1.371-13.198,2.79-26.848,4.73-40.202c1.382-9.509,2.277-19.231,3.142-28.631c0.596-6.468,1.211-13.154,1.979-19.698
		c0.819-6.994,1.689-13.982,2.556-20.968c2.399-19.287,4.879-39.234,6.237-59.012c1.284-18.682,3.02-37.65,4.702-55.999
		c0.799-8.732,1.598-17.465,2.355-26.2c0.2-2.308,0.22-4.634,0.239-6.888c0.016-1.874,0.032-3.693,0.142-5.474
		c1.291-0.686,1.31-0.696,2.601-1.382c4.775,2.585,9.18,5.054,13.93,7.026c13.171,5.467,26.764,9.52,39.91,13.433
		c2.279,0.679,8.71,2.143,10.32-0.359c1.001-1.556-0.214-3.481-0.613-4.113c-2.159-3.427-4.569-6.095-7.365-8.148
		c-1.779-1.306-3.542-2.636-5.297-3.974c12.582,7.125,25.612,12.876,37.335,18.093c14.084,6.267,29.366,11.149,44.409,14.52
		c2.412,0.54,7.305,0.867,8.853-0.835c3.964-4.359-6.884-10.557-10.408-12.67c-12.762-7.652-25.955-14.31-38.24-22.764
		c-41.213-28.356-73.731-58.86-99.417-93.252c-4.329-5.804-9.025-11.921-14.615-17.372c-1.1-1.07-2.539-2.188-4.431-2.188
		c-0.572,0-1.186,0.102-1.845,0.339c-2.654,0.954-2.302,3.272-2.154,4.262c0.044,0.283,0.089,0.573,0.077,0.746
		c-0.321,4.523-0.581,9.053-0.841,13.582c-0.557,9.702-1.134,19.733-2.317,29.499c-3.304,27.242-5.403,54.911-7.18,80.757
		c-2.12,30.858-3.82,62.168-5.201,88.725c-0.791,15.214-2.417,30.616-3.99,45.514c-0.632,5.978-1.262,11.956-1.844,17.939
		c-1.44,14.807-2.734,29.874-3.987,44.442c-1.494,17.377-3.037,35.344-4.838,52.982l-0.352,3.453
		c-3.348,32.775-6.81,66.666-8.15,100.191c-0.164,4.137-0.247,6.21,1.181,7.509c0.367,0.334,0.781,0.566,1.266,0.713
		c0.501,0.152,1.078,0.217,1.759,0.217c1.254,0,2.861-0.218,4.996-0.507c12.509-1.695,27.361-3.461,42.662-3.692
		c1.858-0.028,3.715-0.042,5.578-0.042c18.71,0.001,37.59,1.407,56.201,4.185c21.558,3.22,40.911,6.395,59.647,12.871
		c6.173,2.134,12.434,4.023,18.793,5.517c2.882,0.677,6.304,1.593,9.727,2.123c4.175,0.646,6.62-4.653,3.323-7.295
		c-4.937-3.958-11.23-6.778-16.432-9.172c-2.043-0.94-4.077-1.871-6.066-2.884c-6.244-3.183-12.852-5.479-19.242-7.697
		c-3.324-1.153-6.648-2.31-9.928-3.587c-4.14-1.607-8.318-2.663-12.743-3.781c-3.108-0.786-6.266-1.598-9.474-2.603
		c19.8,0.366,40.188,2.618,63.407,6.977c10.625,1.995,21.527,4.775,32.214,7.271c5.465,1.277,10.946,2.499,16.463,3.535
		c4.359,0.818,9.563,2.474,13.976,2.475c3.074,0.001,3.271-3.899,1.619-5.65C502.033,971.062,500.093,969.279,498.091,967.728z
		 M646.595,958.237c-1.26-0.825-2.795-1.506-4.423-1.506c-1.852,0-3.826,0.881-5.661,3.429l-1.929,2.669
		c-4.395,6.073-8.938,12.354-12.769,18.953c-8.871,15.28-17.409,31.096-24.713,44.719c-1.992,3.716-3.646,7.6-5.398,11.707
		c-0.827,1.943-1.682,3.948-2.609,6.022l-1.38,3.092l3.253-0.938c0.625-0.179,1.09-0.285,1.437-0.366
		c0.716-0.165,1.284-0.297,1.774-0.794l1.081-1.078c1.388-1.377,2.821-2.805,4.056-4.406l0.211-0.274
		c17.368-22.564,35.327-45.895,48.288-72.078l0.437-0.835C649.324,964.546,651.122,961.193,646.595,958.237z M570.592,768.785
		c-4.826-2.981-10.391-4.153-15.791-5.661c-6.04-1.687-12.111-3.263-18.182-4.838c-26.854-6.951-53.175-15.863-78.98-26.012
		c-12.769-5.022-25.414-10.352-37.955-15.918c-11.523-5.115-15.658-7.32-33.508-16.953c-1.913-1.032-4.361-2.35-5.696,0.06
		c-0.44,0.795-0.57,1.721-0.686,2.622c-1.219,9.403-1.614,17.625-2.426,27.07c-2.054,24.094-3.878,48.206-5.886,72.304
		c-1.387,17.483-2.802,35.556-4.174,53.273c-0.062,0.804-0.572,2.303-0.097,3.036c0.959,1.476,4.096,0.611,5.53,0.66
		c45.047,1.538,55.051,3.246,81.952,9.165c29.514,6.493,53.552,17.016,86.248,34.385c2.916,1.549,7.378,3.523,9.358-0.487
		c1.403-2.855-1.245-4.117-2.463-4.878c-41.717-26.076-79.232-48.853-117.189-71.667c-1.637-0.982-3.281-1.971-4.941-2.965
		l3.412-0.523c8.208-0.97,13.569-1.383,20.405-1.874c4.571-0.328,14.702-0.837,17.452-2.786c2.42-1.715,3.903-4.892,1.625-7.366
		c-2.593-2.816-15.599-6.106-19.007-7.444c-7.781-3.052-15.825-6.21-23.576-9.644c-0.221-0.098-0.452-0.191-0.689-0.282
		c7.072,1.468,13.928,2.414,20.87,3.317c15.174,1.969,30.476,3.575,45.755,4.136c8.75,0.321,17.483,0.517,26.25,0.058
		c4.271-0.224,8.664-0.771,12.718-2.196c3.499-1.229,5.004-4.383,1.428-6.853c-2.38-1.644-4.71-2.958-7.518-3.718
		c-27.764-7.512-55.034-16.283-81.848-26.684c0.105,0.026,0.211,0.053,0.314,0.082c10.901,2.809,22.152,4.735,32.079,6.434
		c29.214,5.001,58.815,9.296,88.527,8.036c2.142-0.091,4.481,0.036,6.527-0.711c1.963-0.717,2.45-2.289,1.669-3.678
		C571.792,769.734,571.285,769.213,570.592,768.785z"/>
</g>
</svg>
