<?xml version="1.0" encoding="utf-8"?>
<!-- Generator: Adobe Illustrator 23.0.3, SVG Export Plug-In . SVG Version: 6.00 Build 0)  -->
<svg version="1.1" id="Capa_1" xmlns="http://www.w3.org/2000/svg" xmlns:xlink="http://www.w3.org/1999/xlink" x="0px" y="0px"
	 viewBox="0 0 1200 1200" enable-background="new 0 0 1200 1200" xml:space="preserve">
<g>
	<g>
		<path fill="#F6924C" d="M670.088,444.403c9.717,9.031,18.458,19.215,25.877,29.984c-5.142-26.936-9.399-54.535-7.656-82.355
			c2.115-33.772,13.701-64.431,32.571-88.77c-9.808-20.651-19.668-44.453-24.253-70.513c-1.311,0.536-2.715,0.884-4.184,0.956
			c-4.747,0.157-9.17-2.164-11.569-6.255l-1.868-3.186l-5.052,5.799c-2.432,2.619-5.783,4.057-9.275,4.057
			c-0.77,0-1.547-0.069-2.322-0.211c-4.294-0.792-7.835-3.679-9.472-7.726l-1.274-3.151l-1.355,1.686
			c-2.871,3.569-7.456,5.336-11.978,4.566c-4.516-0.752-8.291-3.893-9.849-8.198l-1.45-3.997c-3.011,3.308-7.833,4.478-12.27,3.135
			c-0.318-0.097-0.616-0.231-0.921-0.352c-14.972,34.706-40.461,62.447-65.228,89.343c-7.193,7.81-14.574,15.852-21.624,23.972
			c22.33,22.956,49.179,41.486,75.414,59.55C625.409,408.617,649.255,425.035,670.088,444.403z"/>
		<path fill="#FCF5F5" d="M375.824,292.843c7.701,1.113,15.686,0.522,23.307-1.55c0.164-0.053,0.329-0.101,0.494-0.138
			c9.143-2.572,17.736-7.286,24.632-13.78c2.591-2.437,6.667-2.318,9.104,0.274c2.439,2.591,2.316,6.667-0.274,9.104
			c-6.629,6.242-14.553,11.135-23.08,14.462c3.415,7.811,8.756,21.884,12.258,40.088c1.296-4.006,4.447-7.082,8.494-8.274
			c4.159-1.22,8.602-0.264,11.884,2.569l2.969,2.566l0.357-2.123c0.753-4.487,3.741-8.135,7.992-9.758
			c4.252-1.623,8.91-0.89,12.462,1.956l2.904,2.327l1.55-7.541c0.954-3.94,3.642-7.107,7.373-8.695
			c3.733-1.575,7.877-1.314,11.376,0.726l2.876,1.689l-0.486-6.23c-0.264-0.415-0.681-1.063-1.195-1.868
			c-3.399-5.327-10.473-16.415-17.083-35.594c-1.951-5.664-0.113-12.085,4.572-15.978c19.67-16.346,26.492-40.355,17.38-61.167
			c-5.165-11.796-16.3-20.255-28.368-21.55c-22.939-2.428-41.495,19.132-43.789,40.053c-0.362,3.283-2.513,6.05-5.613,7.226
			c-3.112,1.17-6.563,0.525-9.014-1.701c-14.983-13.623-42.234-18.135-58.929-3.142c-14.525,13.047-17.61,36.346-7.176,54.195
			C349.834,283.025,361.562,290.786,375.824,292.843z"/>
		<path fill="#F37075" d="M644.469,869.922c2.821-6.175,4.434-13.013,4.434-20.233v-24.003c0-1.865-1.517-3.38-3.382-3.38h-91.064
			c-1.865,0-3.382,1.516-3.382,3.38v24.003c0,7.22,1.615,14.058,4.436,20.233c11.604-11.901,27.624-18.808,44.48-18.808
			C616.846,851.113,632.865,858.021,644.469,869.922z"/>
		<path fill="#FAA291" d="M599.989,863.994c-14.409,0-28.019,6.395-37.327,17.234c8.98,10.61,22.371,17.373,37.327,17.373
			c14.956,0,28.347-6.763,37.327-17.373C628.008,870.388,614.398,863.994,599.989,863.994z"/>
		<path fill="#F6924C" d="M280.631,545.34h103.692c1.168-27.824,7.62-55.679,13.94-82.679c9.145-39.057,18.601-79.44,11.348-118.953
			c-3.525-18.321-9.074-32.184-12.082-38.843c-7.786,1.553-15.781,1.84-23.544,0.726c-18.009-2.597-32.868-12.393-41.954-27.572
			c-60.053,9.736-109.747,50.324-127.302,104.421c-14.758,45.481-2.984,95.969,31.495,135.05
			c9.387,10.643,19.77,20.193,33.212,30.574C272.867,546.312,276.686,545.34,280.631,545.34z"/>
		<path fill="#FBD675" d="M345.426,1095.242c3.486,23.874,24.308,41.877,48.434,41.877h412.256
			c24.126,0,44.948-18.003,48.434-41.877l2.489-17.041h-514.1L345.426,1095.242z"/>
		<path fill="#F6924C" d="M483.115,326.173l-1.571,7.528c-1.028,4.245-4.11,7.616-8.242,9.025c-4.131,1.412-8.629,0.616-12.036-2.11
			l-2.649-2.126l-0.36,2.135c-0.758,4.519-3.906,8.286-8.215,9.84c-4.308,1.547-9.135,0.657-12.601-2.336l-3.22-2.786
			c-1.005,4.365-4.634,7.745-9.168,8.736c-0.327,0.071-0.656,0.061-0.983,0.105c3.928,37.796-4.777,75.16-13.264,111.413
			c-6.142,26.23-12.407,53.275-13.593,79.742h311.244c-0.892-7.813-2.064-15.653-3.399-23.469
			c-7.085-23.989-23.006-48.767-43.739-68.035c-20.143-18.726-43.594-34.874-66.274-50.491
			c-32.932-22.679-66.846-46.036-92.494-78.274c-0.866,1.066-1.892,2.017-3.099,2.774c-4.016,2.516-9.053,2.597-13.146,0.195
			L483.115,326.173z"/>
		<path fill="#FBD675" d="M919.348,558.22H390.521c-0.025,0-0.05,0-0.075,0H280.631c-3.423,0-6.671,1.484-8.909,4.076
			c-2.239,2.588-3.239,6.013-2.744,9.399l11.923,81.654h638.174l11.923-81.654c0.495-3.387-0.505-6.811-2.744-9.399
			C926.017,559.705,922.771,558.22,919.348,558.22z"/>
		<path fill="#F37075" d="M341.057,1065.321H858.92l58.275-399.091H282.782L341.057,1065.321z M771.183,735.689
			c20.833,0,37.722,16.528,37.722,36.915c0,20.388-16.888,36.917-37.722,36.917s-37.723-16.528-37.723-36.917
			C733.459,752.217,750.349,735.689,771.183,735.689z M538.194,825.686c0-8.965,7.296-16.261,16.263-16.261h91.064
			c8.967,0,16.263,7.296,16.263,16.261v24.003c0,34.072-27.72,61.792-61.794,61.792c-34.074,0-61.796-27.72-61.796-61.792V825.686z
			 M428.796,735.689c20.833,0,37.723,16.528,37.723,36.915c0,20.388-16.89,36.917-37.723,36.917s-37.722-16.528-37.722-36.917
			C391.074,752.217,407.963,735.689,428.796,735.689z"/>
		<path fill="#F6924C" d="M920.818,280.327c-47.313-25.921-102.052-27.89-146.426-5.258c-42.596,21.723-69.97,65.748-73.226,117.767
			c-1.992,31.799,4.425,64.11,10.629,95.358c3.701,18.638,7.497,37.855,9.612,57.145h190.863
			c22.281-14.64,37.969-27.401,50.597-41.201c27.896-30.481,41.77-69.868,38.068-108.057
			C996.326,348.563,966.376,305.29,920.818,280.327z"/>
		<path fill="#FCF5F5" d="M623.241,152.887c9.245,2.239,19.063,2.324,28.274,0.031c3.451-0.877,6.947,1.236,7.808,4.689
			c0.862,3.45-1.237,6.947-4.689,7.808c-8.836,2.204-18.138,2.604-27.204,1.333c-0.841,8.487-3.058,23.371-8.904,40.965
			c3.09-2.865,7.338-4.009,11.458-3.066c4.226,0.965,7.63,3.975,9.107,8.053l1.336,3.686l1.346-1.676
			c2.45-3.044,6.031-4.745,9.844-4.745c0.63,0,1.267,0.047,1.907,0.142c4.502,0.667,8.206,3.582,9.91,7.802l1.393,3.447l5.039-5.824
			c2.759-2.972,6.657-4.421,10.682-3.978c4.03,0.44,7.517,2.698,9.568,6.195l1.685,2.874l2.621-5.673
			c-0.028-0.491-0.075-1.258-0.129-2.214c-0.362-6.311-1.113-19.437,2.495-39.399c1.069-5.899,5.813-10.601,11.803-11.704
			c25.148-4.645,42.836-22.255,45.06-44.862c1.261-12.814-4.318-25.638-14.212-32.67c-18.808-13.358-45.549-3.588-57.781,13.538
			c-1.918,2.689-5.148,4.035-8.429,3.557c-3.288-0.494-5.981-2.752-7.03-5.89c-6.414-19.208-27.992-36.453-49.874-31.547
			c-19.049,4.28-33.129,23.097-32.753,43.774c0.255,13.934,6.693,26.44,18.13,35.208c6.186,4.739,13.459,8.135,21.138,10.05
			C622.977,152.818,623.109,152.849,623.241,152.887z"/>
		<path fill="#873249" d="M927.008,269.032c-51.057-27.972-110.297-30.006-158.469-5.434c-14.555,7.423-27.486,17.2-38.5,28.854
			c-10.564-22.89-20.626-49.406-22.767-77.965c-0.019-0.668-0.06-1.475-0.12-2.486c-0.333-5.814-1.025-17.915,2.311-36.371
			c0.12-0.657,0.708-1.192,1.465-1.33c30.94-5.714,52.742-27.802,55.541-56.267c1.706-17.33-5.975-34.77-19.569-44.431
			c-22.807-16.201-53.935-7.431-71.178,11.013c-10.437-21.641-35.299-39.465-62.222-33.421
			c-24.89,5.591-43.292,29.912-42.807,56.572c0.326,17.94,8.555,33.994,23.171,45.195c6.22,4.77,13.335,8.425,20.885,10.874
			c-0.642,7.31-2.588,22.181-8.45,39.818c-12.967,37.926-39.318,66.541-67.217,96.836c-6.943,7.539-14.066,15.296-20.947,23.179
			c-5.424-6.256-10.502-12.841-15.138-19.832c-0.343-0.572-0.775-1.258-1.324-2.115c-3.132-4.912-9.651-15.126-15.763-32.862
			c-0.217-0.629,0.035-1.384,0.627-1.877c24.198-20.107,32.42-50.035,20.947-76.236c-6.984-15.956-22.212-27.415-38.792-29.192
			c-27.825-3.057-50.682,19.884-56.711,44.399c-19.684-13.78-50.091-17.176-70.616,1.258c-15.925,14.305-21.371,37.866-14.78,58.679
			c-63.261,11.462-115.406,54.929-134.112,112.575c-16.178,49.855-3.436,105.013,34.086,147.547
			c9.535,10.807,19.953,20.498,33.222,30.879c-3.102,4.931-4.406,10.818-3.552,16.665l76.448,523.547
			c4.404,30.157,30.704,52.896,61.179,52.896h412.256c30.475,0,56.777-22.739,61.179-52.896l76.448-523.547
			c1.036-7.091-1.058-14.267-5.745-19.686c-2.016-2.333-4.439-4.206-7.097-5.62c17.272-12.119,30.432-23.358,41.469-35.415
			c30.355-33.173,45.44-76.182,41.385-118C1008.734,343.073,976.307,296.044,927.008,269.032z M601.703,142.739
			c-11.437-8.767-17.876-21.274-18.13-35.208c-0.376-20.676,13.704-39.494,32.753-43.774c21.882-4.906,43.461,12.34,49.874,31.547
			c1.049,3.138,3.742,5.396,7.03,5.89c3.281,0.478,6.511-0.868,8.429-3.557c12.233-17.126,38.973-26.896,57.781-13.538
			c9.895,7.031,15.473,19.855,14.212,32.67c-2.223,22.607-19.912,40.217-45.06,44.862c-5.991,1.104-10.734,5.805-11.803,11.704
			c-3.608,19.962-2.857,33.088-2.495,39.399c0.053,0.956,0.101,1.723,0.129,2.214l-2.621,5.673l-1.685-2.874
			c-2.05-3.497-5.538-5.755-9.568-6.195c-4.025-0.443-7.923,1.006-10.682,3.978l-5.039,5.824l-1.393-3.447
			c-1.704-4.22-5.409-7.135-9.91-7.802c-0.64-0.094-1.277-0.142-1.907-0.142c-3.813,0-7.395,1.701-9.844,4.745l-1.346,1.676
			l-1.336-3.686c-1.476-4.079-4.88-7.088-9.107-8.053c-4.119-0.943-8.368,0.201-11.458,3.066
			c5.846-17.594,8.063-32.478,8.904-40.965c9.066,1.27,18.368,0.871,27.204-1.333c3.451-0.862,5.55-4.358,4.689-7.808
			c-0.862-3.453-4.357-5.566-7.808-4.689c-9.211,2.292-19.028,2.208-28.274-0.031c-0.132-0.038-0.264-0.069-0.399-0.097
			C615.162,150.875,607.889,147.478,601.703,142.739z M548.56,309.214c24.767-26.896,50.256-54.637,65.228-89.343
			c0.305,0.121,0.604,0.255,0.921,0.352c4.437,1.343,9.259,0.173,12.27-3.135l1.45,3.997c1.558,4.305,5.333,7.447,9.849,8.198
			c4.522,0.77,9.107-0.997,11.978-4.566l1.355-1.686l1.274,3.151c1.637,4.047,5.178,6.934,9.472,7.726
			c0.775,0.142,1.552,0.211,2.322,0.211c3.492,0,6.843-1.437,9.275-4.057l5.052-5.799l1.868,3.186
			c2.399,4.091,6.822,6.412,11.569,6.255c1.469-0.072,2.873-0.42,4.184-0.956c4.585,26.06,14.445,49.862,24.253,70.513
			c-18.869,24.34-30.456,54.998-32.571,88.77c-1.744,27.821,2.514,55.42,7.656,82.355c-7.42-10.769-16.16-20.953-25.877-29.984
			c-20.833-19.368-44.679-35.786-67.739-51.667c-26.234-18.064-53.083-36.594-75.414-59.55
			C533.986,325.066,541.367,317.024,548.56,309.214z M499.452,327.846c1.208-0.756,2.233-1.708,3.099-2.774
			c25.648,32.237,59.561,55.594,92.494,78.274c22.679,15.616,46.13,31.764,66.274,50.491c20.733,19.267,36.654,44.046,43.739,68.035
			c1.335,7.816,2.508,15.656,3.399,23.469H397.213c1.186-26.467,7.451-53.513,13.593-79.742
			c8.487-36.253,17.192-73.618,13.264-111.413c0.327-0.044,0.656-0.035,0.983-0.105c4.535-0.991,8.164-4.371,9.168-8.736l3.22,2.786
			c3.465,2.994,8.292,3.884,12.601,2.336c4.31-1.553,7.458-5.321,8.215-9.84l0.36-2.135l2.649,2.126
			c3.407,2.726,7.906,3.522,12.036,2.11c4.132-1.409,7.214-4.78,8.242-9.025l1.571-7.528l3.19,1.868
			C490.398,330.444,495.436,330.362,499.452,327.846z M349.975,216.796c16.695-14.994,43.947-10.481,58.929,3.142
			c2.451,2.226,5.903,2.871,9.014,1.701c3.101-1.176,5.252-3.943,5.613-7.226c2.294-20.921,20.851-42.481,43.789-40.053
			c12.068,1.296,23.203,9.755,28.368,21.55c9.112,20.811,2.289,44.821-17.38,61.167c-4.686,3.893-6.524,10.314-4.572,15.978
			c6.61,19.179,13.684,30.267,17.083,35.594c0.514,0.805,0.931,1.453,1.195,1.868l0.486,6.23l-2.876-1.689
			c-3.498-2.041-7.643-2.302-11.376-0.726c-3.731,1.588-6.418,4.755-7.373,8.695l-1.55,7.541l-2.904-2.327
			c-3.552-2.846-8.211-3.579-12.462-1.956c-4.252,1.623-7.239,5.27-7.992,9.758l-0.357,2.123l-2.969-2.566
			c-3.281-2.833-7.725-3.789-11.884-2.569c-4.047,1.192-7.198,4.267-8.494,8.274c-3.502-18.204-8.843-32.277-12.258-40.088
			c8.527-3.327,16.451-8.22,23.08-14.462c2.59-2.437,2.712-6.513,0.274-9.104c-2.437-2.591-6.513-2.711-9.104-0.274
			c-6.896,6.494-15.489,11.208-24.632,13.78c-0.165,0.038-0.33,0.085-0.494,0.138c-7.621,2.072-15.605,2.664-23.307,1.55
			c-14.263-2.057-25.991-9.818-33.025-21.852C332.365,253.142,335.45,229.843,349.975,216.796z M236.224,517.491
			c-34.48-39.082-46.253-89.569-31.495-135.05c17.555-54.097,67.248-94.685,127.302-104.421
			c9.086,15.179,23.945,24.975,41.954,27.572c7.763,1.113,15.758,0.827,23.544-0.726c3.008,6.659,8.557,20.522,12.082,38.843
			c7.253,39.513-2.203,79.896-11.348,118.953c-6.321,27-12.772,54.855-13.94,82.679H280.631c-3.945,0-7.764,0.972-11.195,2.725
			C255.994,537.684,245.61,528.134,236.224,517.491z M854.551,1095.242c-3.486,23.874-24.308,41.877-48.434,41.877H393.86
			c-24.126,0-44.948-18.003-48.434-41.877l-2.487-17.041h514.1L854.551,1095.242z M858.92,1065.321H341.057L282.782,666.23h634.413
			L858.92,1065.321z M930.999,571.695l-11.923,81.654H280.901l-11.923-81.654c-0.495-3.387,0.505-6.811,2.744-9.399
			c2.237-2.591,5.486-4.076,8.909-4.076h109.814c0.025,0,0.05,0,0.075,0h528.827c3.423,0,6.67,1.484,8.907,4.076
			C930.494,564.884,931.494,568.308,930.999,571.695z M962.867,504.139c-12.629,13.8-28.316,26.561-50.597,41.201H721.406
			c-2.115-19.289-5.91-38.506-9.612-57.145c-6.204-31.248-12.621-63.56-10.629-95.358c3.256-52.019,30.63-96.044,73.226-117.767
			c44.374-22.632,99.113-20.663,146.426,5.258c45.558,24.962,75.508,68.236,80.116,115.755
			C1004.637,434.271,990.763,473.657,962.867,504.139z"/>
		<path fill="#873249" d="M428.796,809.521c20.833,0,37.723-16.528,37.723-36.917c0-20.387-16.89-36.915-37.723-36.915
			s-37.722,16.528-37.722,36.915C391.074,792.992,407.963,809.521,428.796,809.521z"/>
		<path fill="#873249" d="M771.183,809.521c20.833,0,37.722-16.528,37.722-36.917c0-20.387-16.888-36.915-37.722-36.915
			s-37.723,16.528-37.723,36.915C733.459,792.992,750.349,809.521,771.183,809.521z"/>
		<path fill="#873249" d="M599.989,911.481c34.074,0,61.794-27.72,61.794-61.792v-24.003c0-8.965-7.296-16.261-16.263-16.261
			h-91.064c-8.967,0-16.263,7.296-16.263,16.261v24.003C538.194,883.761,565.915,911.481,599.989,911.481z M599.989,898.601
			c-14.956,0-28.347-6.763-37.327-17.373c9.308-10.84,22.918-17.234,37.327-17.234c14.409,0,28.019,6.395,37.327,17.234
			C628.337,891.838,614.945,898.601,599.989,898.601z M551.074,849.689v-24.003c0-1.865,1.517-3.38,3.382-3.38h91.064
			c1.865,0,3.382,1.516,3.382,3.38v24.003c0,7.22-1.613,14.058-4.434,20.233c-11.604-11.901-27.623-18.808-44.479-18.808
			c-16.855,0-32.876,6.907-44.48,18.808C552.689,863.747,551.074,856.909,551.074,849.689z"/>
		<linearGradient id="SVGID_1_" gradientUnits="userSpaceOnUse" x1="427.6038" y1="777.9215" x2="450.7228" y2="754.8026">
			<stop  offset="0" style="stop-color:#FFFFFF;stop-opacity:0"/>
			<stop  offset="0.4979" style="stop-color:#FEF9E5;stop-opacity:0.4979"/>
			<stop  offset="1" style="stop-color:#FCF2C7"/>
		</linearGradient>
		<circle fill="url(#SVGID_1_)" cx="439.642" cy="765.884" r="16.347"/>
		<linearGradient id="SVGID_2_" gradientUnits="userSpaceOnUse" x1="769.9905" y1="777.9215" x2="793.1095" y2="754.8026">
			<stop  offset="0" style="stop-color:#FFFFFF;stop-opacity:0"/>
			<stop  offset="0.4979" style="stop-color:#FEF9E5;stop-opacity:0.4979"/>
			<stop  offset="1" style="stop-color:#FCF2C7"/>
		</linearGradient>
		<circle fill="url(#SVGID_2_)" cx="782.029" cy="765.884" r="16.347"/>
		<radialGradient id="SVGID_3_" cx="623.9083" cy="345.7377" r="135.939" gradientUnits="userSpaceOnUse">
			<stop  offset="0" style="stop-color:#DD5E32;stop-opacity:0"/>
			<stop  offset="0.7627" style="stop-color:#DD5E32;stop-opacity:0.8625"/>
			<stop  offset="0.8843" style="stop-color:#DD5E32"/>
		</radialGradient>
		<path fill="url(#SVGID_3_)" d="M670.088,444.403c9.717,9.031,18.458,19.215,25.877,29.984
			c-5.142-26.936-9.399-54.535-7.656-82.355c2.115-33.772,13.701-64.431,32.571-88.77c-9.808-20.651-19.668-44.453-24.253-70.513
			c-1.311,0.536-2.715,0.884-4.184,0.956c-4.747,0.157-9.17-2.164-11.569-6.255l-1.868-3.186l-5.052,5.799
			c-2.432,2.619-5.783,4.057-9.275,4.057c-0.77,0-1.547-0.069-2.322-0.211c-4.294-0.792-7.835-3.679-9.472-7.726l-1.274-3.151
			l-1.355,1.686c-2.871,3.569-7.456,5.336-11.978,4.566c-4.516-0.752-8.291-3.893-9.849-8.198l-1.45-3.997
			c-3.011,3.308-7.833,4.478-12.27,3.135c-0.318-0.097-0.616-0.231-0.921-0.352c-14.972,34.706-40.461,62.447-65.228,89.343
			c-7.193,7.81-14.574,15.852-21.624,23.972c22.33,22.956,49.179,41.486,75.414,59.55
			C625.409,408.617,649.255,425.035,670.088,444.403z"/>
		<radialGradient id="SVGID_4_" cx="305.3351" cy="413.0419" r="162.1546" gradientUnits="userSpaceOnUse">
			<stop  offset="0" style="stop-color:#DD5E32;stop-opacity:0"/>
			<stop  offset="0.8226" style="stop-color:#DD5E32"/>
		</radialGradient>
		<path fill="url(#SVGID_4_)" d="M280.631,545.34h103.692c1.168-27.824,7.62-55.679,13.94-82.679
			c9.145-39.057,18.601-79.44,11.348-118.953c-3.525-18.321-9.074-32.184-12.082-38.843c-7.786,1.553-15.781,1.84-23.544,0.726
			c-18.009-2.597-32.868-12.393-41.954-27.572c-60.053,9.736-109.747,50.324-127.302,104.421
			c-14.758,45.481-2.984,95.969,31.495,135.05c9.387,10.643,19.77,20.193,33.212,30.574
			C272.867,546.312,276.686,545.34,280.631,545.34z"/>
		<radialGradient id="SVGID_5_" cx="552.8344" cy="435.2062" r="181.2018" gradientUnits="userSpaceOnUse">
			<stop  offset="0" style="stop-color:#DD5E32;stop-opacity:0"/>
			<stop  offset="0.8843" style="stop-color:#DD5E32"/>
		</radialGradient>
		<path fill="url(#SVGID_5_)" d="M483.115,326.173l-1.571,7.528c-1.028,4.245-4.11,7.616-8.242,9.025
			c-4.131,1.412-8.629,0.616-12.036-2.11l-2.649-2.126l-0.36,2.135c-0.758,4.519-3.906,8.286-8.215,9.84
			c-4.308,1.547-9.135,0.657-12.601-2.336l-3.22-2.786c-1.005,4.365-4.634,7.745-9.168,8.736c-0.327,0.071-0.656,0.061-0.983,0.105
			c3.928,37.796-4.777,75.16-13.264,111.413c-6.142,26.23-12.407,53.275-13.593,79.742h311.244
			c-0.892-7.813-2.064-15.653-3.399-23.469c-7.085-23.989-23.006-48.767-43.739-68.035c-20.143-18.726-43.594-34.874-66.274-50.491
			c-32.932-22.679-66.846-46.036-92.494-78.274c-0.866,1.066-1.892,2.017-3.099,2.774c-4.016,2.516-9.053,2.597-13.146,0.195
			L483.115,326.173z"/>
		<radialGradient id="SVGID_6_" cx="851.1595" cy="402.365" r="170.7849" gradientUnits="userSpaceOnUse">
			<stop  offset="0" style="stop-color:#DD5E32;stop-opacity:0"/>
			<stop  offset="0.7627" style="stop-color:#DD5E32;stop-opacity:0.8625"/>
			<stop  offset="0.8843" style="stop-color:#DD5E32"/>
		</radialGradient>
		<path fill="url(#SVGID_6_)" d="M920.818,280.327c-47.313-25.921-102.052-27.89-146.426-5.258
			c-42.596,21.723-69.97,65.748-73.226,117.767c-1.992,31.799,4.425,64.11,10.629,95.358c3.701,18.638,7.497,37.855,9.612,57.145
			h190.863c22.281-14.64,37.969-27.401,50.597-41.201c27.896-30.481,41.77-69.868,38.068-108.057
			C996.326,348.563,966.376,305.29,920.818,280.327z"/>
		<linearGradient id="SVGID_7_" gradientUnits="userSpaceOnUse" x1="526.9359" y1="345.7377" x2="720.8807" y2="345.7377">
			<stop  offset="0.1563" style="stop-color:#F9BF56"/>
			<stop  offset="0.4617" style="stop-color:#F9BF56;stop-opacity:0"/>
		</linearGradient>
		<path fill="url(#SVGID_7_)" d="M670.088,444.403c9.717,9.031,18.458,19.215,25.877,29.984
			c-5.142-26.936-9.399-54.535-7.656-82.355c2.115-33.772,13.701-64.431,32.571-88.77c-9.808-20.651-19.668-44.453-24.253-70.513
			c-1.311,0.536-2.715,0.884-4.184,0.956c-4.747,0.157-9.17-2.164-11.569-6.255l-1.868-3.186l-5.052,5.799
			c-2.432,2.619-5.783,4.057-9.275,4.057c-0.77,0-1.547-0.069-2.322-0.211c-4.294-0.792-7.835-3.679-9.472-7.726l-1.274-3.151
			l-1.355,1.686c-2.871,3.569-7.456,5.336-11.978,4.566c-4.516-0.752-8.291-3.893-9.849-8.198l-1.45-3.997
			c-3.011,3.308-7.833,4.478-12.27,3.135c-0.318-0.097-0.616-0.231-0.921-0.352c-14.972,34.706-40.461,62.447-65.228,89.343
			c-7.193,7.81-14.574,15.852-21.624,23.972c22.33,22.956,49.179,41.486,75.414,59.55
			C625.409,408.617,649.255,425.035,670.088,444.403z"/>
		<linearGradient id="SVGID_8_" gradientUnits="userSpaceOnUse" x1="198.4869" y1="413.0419" x2="412.1833" y2="413.0419">
			<stop  offset="0.1563" style="stop-color:#F9BF56"/>
			<stop  offset="0.4617" style="stop-color:#F9BF56;stop-opacity:0"/>
		</linearGradient>
		<path fill="url(#SVGID_8_)" d="M280.631,545.34h103.692c1.168-27.824,7.62-55.679,13.94-82.679
			c9.145-39.057,18.601-79.44,11.348-118.953c-3.525-18.321-9.074-32.184-12.082-38.843c-7.786,1.553-15.781,1.84-23.544,0.726
			c-18.009-2.597-32.868-12.393-41.954-27.572c-60.053,9.736-109.747,50.324-127.302,104.421
			c-14.758,45.481-2.984,95.969,31.495,135.05c9.387,10.643,19.77,20.193,33.212,30.574
			C272.867,546.312,276.686,545.34,280.631,545.34z"/>
		<linearGradient id="SVGID_9_" gradientUnits="userSpaceOnUse" x1="397.2126" y1="435.2062" x2="708.4562" y2="435.2062">
			<stop  offset="0.1563" style="stop-color:#F9BF56"/>
			<stop  offset="0.4617" style="stop-color:#F9BF56;stop-opacity:0"/>
		</linearGradient>
		<path fill="url(#SVGID_9_)" d="M483.115,326.173l-1.571,7.528c-1.028,4.245-4.11,7.616-8.242,9.025
			c-4.131,1.412-8.629,0.616-12.036-2.11l-2.649-2.126l-0.36,2.135c-0.758,4.519-3.906,8.286-8.215,9.84
			c-4.308,1.547-9.135,0.657-12.601-2.336l-3.22-2.786c-1.005,4.365-4.634,7.745-9.168,8.736c-0.327,0.071-0.656,0.061-0.983,0.105
			c3.928,37.796-4.777,75.16-13.264,111.413c-6.142,26.23-12.407,53.275-13.593,79.742h311.244
			c-0.892-7.813-2.064-15.653-3.399-23.469c-7.085-23.989-23.006-48.767-43.739-68.035c-20.143-18.726-43.594-34.874-66.274-50.491
			c-32.932-22.679-66.846-46.036-92.494-78.274c-0.866,1.066-1.892,2.017-3.099,2.774c-4.016,2.516-9.053,2.597-13.146,0.195
			L483.115,326.173z"/>
		<linearGradient id="SVGID_10_" gradientUnits="userSpaceOnUse" x1="700.7956" y1="402.365" x2="1001.5234" y2="402.365">
			<stop  offset="0.1563" style="stop-color:#F9BF56"/>
			<stop  offset="0.4617" style="stop-color:#F9BF56;stop-opacity:0"/>
		</linearGradient>
		<path fill="url(#SVGID_10_)" d="M920.818,280.327c-47.313-25.921-102.052-27.89-146.426-5.258
			c-42.596,21.723-69.97,65.748-73.226,117.767c-1.992,31.799,4.425,64.11,10.629,95.358c3.701,18.638,7.497,37.855,9.612,57.145
			h190.863c22.281-14.64,37.969-27.401,50.597-41.201c27.896-30.481,41.77-69.868,38.068-108.057
			C996.326,348.563,966.376,305.29,920.818,280.327z"/>
		<linearGradient id="SVGID_11_" gradientUnits="userSpaceOnUse" x1="336.6343" y1="257.7367" x2="499.6721" y2="257.7367">
			<stop  offset="0.0208" style="stop-color:#CEDEF5"/>
			<stop  offset="0.0355" style="stop-color:#CFDEF4;stop-opacity:0.985"/>
			<stop  offset="0.3218" style="stop-color:#E0E4E5;stop-opacity:0.6926"/>
			<stop  offset="0.6304" style="stop-color:#EBE8DC;stop-opacity:0.3775"/>
			<stop  offset="1" style="stop-color:#EEE9D9;stop-opacity:0"/>
		</linearGradient>
		<path fill="url(#SVGID_11_)" d="M375.824,292.843c7.701,1.113,15.686,0.522,23.307-1.55c0.164-0.053,0.329-0.101,0.494-0.138
			c9.143-2.572,17.736-7.286,24.632-13.78c2.591-2.437,6.667-2.318,9.104,0.274c2.439,2.591,2.316,6.667-0.274,9.104
			c-6.629,6.242-14.553,11.135-23.08,14.462c3.415,7.811,8.756,21.884,12.258,40.088c1.296-4.006,4.447-7.082,8.494-8.274
			c4.159-1.22,8.602-0.264,11.884,2.569l2.969,2.566l0.357-2.123c0.753-4.487,3.741-8.135,7.992-9.758
			c4.252-1.623,8.91-0.89,12.462,1.956l2.904,2.327l1.55-7.541c0.954-3.94,3.642-7.107,7.373-8.695
			c3.733-1.575,7.877-1.314,11.376,0.726l2.876,1.689l-0.486-6.23c-0.264-0.415-0.681-1.063-1.195-1.868
			c-3.399-5.327-10.473-16.415-17.083-35.594c-1.951-5.664-0.113-12.085,4.572-15.978c19.67-16.346,26.492-40.355,17.38-61.167
			c-5.165-11.796-16.3-20.255-28.368-21.55c-22.939-2.428-41.495,19.132-43.789,40.053c-0.362,3.283-2.513,6.05-5.613,7.226
			c-3.112,1.17-6.563,0.525-9.014-1.701c-14.983-13.623-42.234-18.135-58.929-3.142c-14.525,13.047-17.61,36.346-7.176,54.195
			C349.834,283.025,361.562,290.786,375.824,292.843z"/>
		<linearGradient id="SVGID_12_" gradientUnits="userSpaceOnUse" x1="583.5653" y1="142.1347" x2="753.8292" y2="142.1347">
			<stop  offset="0.0208" style="stop-color:#CEDEF5"/>
			<stop  offset="0.0355" style="stop-color:#CFDEF4;stop-opacity:0.985"/>
			<stop  offset="0.3218" style="stop-color:#E0E4E5;stop-opacity:0.6926"/>
			<stop  offset="0.6304" style="stop-color:#EBE8DC;stop-opacity:0.3775"/>
			<stop  offset="1" style="stop-color:#EEE9D9;stop-opacity:0"/>
		</linearGradient>
		<path fill="url(#SVGID_12_)" d="M623.241,152.887c9.245,2.239,19.063,2.324,28.274,0.031c3.451-0.877,6.947,1.236,7.808,4.689
			c0.862,3.45-1.237,6.947-4.689,7.808c-8.836,2.204-18.138,2.604-27.204,1.333c-0.841,8.487-3.058,23.371-8.904,40.965
			c3.09-2.865,7.338-4.009,11.458-3.066c4.226,0.965,7.63,3.975,9.107,8.053l1.336,3.686l1.346-1.676
			c2.45-3.044,6.031-4.745,9.844-4.745c0.63,0,1.267,0.047,1.907,0.142c4.502,0.667,8.206,3.582,9.91,7.802l1.393,3.447l5.039-5.824
			c2.759-2.972,6.657-4.421,10.682-3.978c4.03,0.44,7.517,2.698,9.568,6.195l1.685,2.874l2.621-5.673
			c-0.028-0.491-0.075-1.258-0.129-2.214c-0.362-6.311-1.113-19.437,2.495-39.399c1.069-5.899,5.813-10.601,11.803-11.704
			c25.148-4.645,42.836-22.255,45.06-44.862c1.261-12.814-4.318-25.638-14.212-32.67c-18.808-13.358-45.549-3.588-57.781,13.538
			c-1.918,2.689-5.148,4.035-8.429,3.557c-3.288-0.494-5.981-2.752-7.03-5.89c-6.414-19.208-27.992-36.453-49.874-31.547
			c-19.049,4.28-33.129,23.097-32.753,43.774c0.255,13.934,6.693,26.44,18.13,35.208c6.186,4.739,13.459,8.135,21.138,10.05
			C622.977,152.818,623.109,152.849,623.241,152.887z"/>
		<radialGradient id="SVGID_13_" cx="599.9885" cy="865.7753" r="464.4613" gradientUnits="userSpaceOnUse">
			<stop  offset="0.0626" style="stop-color:#ED3D2A;stop-opacity:0"/>
			<stop  offset="0.3536" style="stop-color:#E53928;stop-opacity:0.3104"/>
			<stop  offset="0.81" style="stop-color:#CE2F23;stop-opacity:0.7973"/>
			<stop  offset="1" style="stop-color:#C32A20"/>
		</radialGradient>
		<path fill="url(#SVGID_13_)" d="M341.057,1065.321H858.92l58.275-399.091H282.782L341.057,1065.321z M771.183,735.689
			c20.833,0,37.722,16.528,37.722,36.915c0,20.388-16.888,36.917-37.722,36.917s-37.723-16.528-37.723-36.917
			C733.459,752.217,750.349,735.689,771.183,735.689z M538.194,825.686c0-8.965,7.296-16.261,16.263-16.261h91.064
			c8.967,0,16.263,7.296,16.263,16.261v24.003c0,34.072-27.72,61.792-61.794,61.792c-34.074,0-61.796-27.72-61.796-61.792V825.686z
			 M428.796,735.689c20.833,0,37.723,16.528,37.723,36.915c0,20.388-16.89,36.917-37.723,36.917s-37.722-16.528-37.722-36.917
			C391.074,752.217,407.963,735.689,428.796,735.689z"/>
		<linearGradient id="SVGID_14_" gradientUnits="userSpaceOnUse" x1="342.9391" y1="1107.6604" x2="857.0395" y2="1107.6604">
			<stop  offset="0" style="stop-color:#F69F66"/>
			<stop  offset="1" style="stop-color:#F69F66;stop-opacity:0"/>
		</linearGradient>
		<path fill="url(#SVGID_14_)" d="M345.426,1095.242c3.486,23.874,24.308,41.877,48.434,41.877h412.256
			c24.126,0,44.948-18.003,48.434-41.877l2.489-17.041h-514.1L345.426,1095.242z"/>
		<linearGradient id="SVGID_15_" gradientUnits="userSpaceOnUse" x1="268.8542" y1="605.7848" x2="931.1229" y2="605.7848">
			<stop  offset="0" style="stop-color:#F69F66"/>
			<stop  offset="1" style="stop-color:#F69F66;stop-opacity:0"/>
		</linearGradient>
		<path fill="url(#SVGID_15_)" d="M919.348,558.22H390.521c-0.025,0-0.05,0-0.075,0H280.631c-3.423,0-6.671,1.484-8.909,4.076
			c-2.239,2.588-3.239,6.013-2.744,9.399l11.923,81.654h638.174l11.923-81.654c0.495-3.387-0.505-6.811-2.744-9.399
			C926.017,559.705,922.771,558.22,919.348,558.22z"/>
		
			<radialGradient id="SVGID_16_" cx="599.9885" cy="846.1133" r="62.2375" gradientTransform="matrix(1 0 0 0.838 0 137.1076)" gradientUnits="userSpaceOnUse">
			<stop  offset="0.0626" style="stop-color:#ED3D2A;stop-opacity:0"/>
			<stop  offset="0.556" style="stop-color:#D43224;stop-opacity:0.6302"/>
			<stop  offset="0.8456" style="stop-color:#C32A20"/>
		</radialGradient>
		<path fill="url(#SVGID_16_)" d="M644.469,869.922c2.821-6.175,4.434-13.013,4.434-20.233v-24.003c0-1.865-1.517-3.38-3.382-3.38
			h-91.064c-1.865,0-3.382,1.516-3.382,3.38v24.003c0,7.22,1.615,14.058,4.436,20.233c11.604-11.901,27.624-18.808,44.48-18.808
			C616.846,851.113,632.865,858.021,644.469,869.922z"/>
		
			<radialGradient id="SVGID_17_" cx="413.987" cy="874.2375" r="68.5788" gradientTransform="matrix(0.9996 0.0266 -0.0201 0.7543 17.7105 203.741)" gradientUnits="userSpaceOnUse">
			<stop  offset="0" style="stop-color:#C31C28"/>
			<stop  offset="0.5211" style="stop-color:#DE2C2E;stop-opacity:0.4332"/>
			<stop  offset="0.9194" style="stop-color:#EE3632;stop-opacity:0"/>
		</radialGradient>
		<path fill="url(#SVGID_17_)" d="M413.987,832.821c-34.287,0-61.144,18.193-61.144,41.419c0,23.222,26.857,41.415,61.144,41.415
			s61.144-18.193,61.144-41.415C475.131,851.014,448.274,832.821,413.987,832.821z"/>
		
			<radialGradient id="SVGID_18_" cx="785.99" cy="874.2375" r="68.5788" gradientTransform="matrix(0.9996 0.0266 -0.0201 0.7543 17.8424 193.8369)" gradientUnits="userSpaceOnUse">
			<stop  offset="0" style="stop-color:#C31C28"/>
			<stop  offset="0.5211" style="stop-color:#DE2C2E;stop-opacity:0.4332"/>
			<stop  offset="0.9194" style="stop-color:#EE3632;stop-opacity:0"/>
		</radialGradient>
		<path fill="url(#SVGID_18_)" d="M785.99,832.821c-34.287,0-61.144,18.193-61.144,41.419c0,23.222,26.857,41.415,61.144,41.415
			s61.144-18.193,61.144-41.415C847.134,851.014,820.277,832.821,785.99,832.821z"/>
	</g>
	<g opacity="0.8">
		<linearGradient id="SVGID_19_" gradientUnits="userSpaceOnUse" x1="432.878" y1="519.0091" x2="494.1516" y2="412.88">
			<stop  offset="0" style="stop-color:#FFFFFF;stop-opacity:0"/>
			<stop  offset="1" style="stop-color:#FFFFFF"/>
		</linearGradient>
		<path fill="url(#SVGID_19_)" d="M454.656,408.021c0.874,21.818-0.077,43.618-1.38,65.41c-1.034,17.302-7.913,41.861,1.762,57.182
			c2.883,4.566,9.569,5.878,13.513,1.741c12.75-13.371,10.015-38.422,10.263-55.809c0.327-22.9-1.447-45.692-2.876-68.525
			C475.091,394.458,454.105,394.246,454.656,408.021L454.656,408.021z"/>
	</g>
	<g opacity="0.8">
		<linearGradient id="SVGID_20_" gradientUnits="userSpaceOnUse" x1="591.0743" y1="351.736" x2="642.7452" y2="262.2393">
			<stop  offset="0" style="stop-color:#FFFFFF;stop-opacity:0"/>
			<stop  offset="1" style="stop-color:#FFFFFF"/>
		</linearGradient>
		<path fill="url(#SVGID_20_)" d="M624.304,263.203c-3.352,17.53-9.578,33.998-18.448,49.506
			c-6.36,11.12-20.404,22.028-16.869,35.627c0.813,3.128,3.608,4.775,6.623,5.042c16.064,1.424,25.79-22.438,31.331-34.489
			c7.812-16.989,11.546-34.972,13.226-53.539C640.98,256.348,626.012,254.267,624.304,263.203L624.304,263.203z"/>
	</g>
	<g opacity="0.8">
		<linearGradient id="SVGID_21_" gradientUnits="userSpaceOnUse" x1="752.8877" y1="458.5298" x2="852.1225" y2="286.6501">
			<stop  offset="0" style="stop-color:#FFFFFF;stop-opacity:0"/>
			<stop  offset="1" style="stop-color:#FFFFFF"/>
		</linearGradient>
		<path fill="url(#SVGID_21_)" d="M862.583,295.711c-36.135,8.13-68.931,30.674-87.289,63.203
			c-16.956,30.046-28.112,81.433-3.236,110.24c4.275,4.95,11.407,0.57,11.853-4.91c1.224-15.041-2.373-30.066-1.7-45.226
			c0.787-17.736,5.379-35.137,14.192-50.602c15.558-27.304,40.961-46.414,71.156-54.657
			C879.22,310.577,874.307,293.073,862.583,295.711L862.583,295.711z"/>
	</g>
	<g opacity="0.8">
		<linearGradient id="SVGID_22_" gradientUnits="userSpaceOnUse" x1="227.7498" y1="477.5172" x2="326.9846" y2="305.6375">
			<stop  offset="0" style="stop-color:#FFFFFF;stop-opacity:0"/>
			<stop  offset="1" style="stop-color:#FFFFFF"/>
		</linearGradient>
		<path fill="url(#SVGID_22_)" d="M337.445,314.699c-36.135,8.13-68.931,30.674-87.289,63.203
			c-16.956,30.046-28.112,81.433-3.236,110.24c4.275,4.951,11.407,0.57,11.853-4.91c1.224-15.041-2.373-30.066-1.7-45.226
			c0.787-17.736,5.379-35.137,14.192-50.602c15.558-27.304,40.961-46.414,71.156-54.657
			C354.082,329.564,349.169,312.061,337.445,314.699L337.445,314.699z"/>
	</g>
	<g opacity="0.8">
		<linearGradient id="SVGID_23_" gradientUnits="userSpaceOnUse" x1="297.7983" y1="958.7416" x2="410.8679" y2="762.8994">
			<stop  offset="0" style="stop-color:#FFFFFF;stop-opacity:0"/>
			<stop  offset="1" style="stop-color:#FFFFFF"/>
		</linearGradient>
		<path fill="url(#SVGID_23_)" d="M323.051,730.011c6.907,47.123,13.872,94.21,21.078,141.289
			c3.513,22.952,7.246,45.875,10.871,68.81c2.919,18.467,2.271,47.881,16.764,61.117c3.507,3.203,9.104,2.746,11.616-1.497
			c9.613-16.237,1.004-42.706-1.681-60.456c-3.625-23.967-7.641-47.917-11.963-71.767c-8.644-47.702-18.679-94.975-29.656-142.19
			C337.448,713.988,321.449,719.076,323.051,730.011L323.051,730.011z"/>
	</g>
	<g opacity="0.8">
		<linearGradient id="SVGID_24_" gradientUnits="userSpaceOnUse" x1="778.9361" y1="1016.4142" x2="878.5984" y2="843.7941">
			<stop  offset="0" style="stop-color:#FFFFFF;stop-opacity:0"/>
			<stop  offset="1" style="stop-color:#FFFFFF"/>
		</linearGradient>
		<path fill="url(#SVGID_24_)" d="M831.699,829.767c-5.36,34.862-10.108,69.729-14.501,104.726
			c-2.203,17.555-4.264,35.123-6.294,52.699c-1.728,14.963-7.514,33.457,0.559,46.98c2.305,3.861,7.935,4.757,11.142,1.436
			c9.694-10.037,9.029-25.774,10.62-39.116c2.217-18.585,4.336-37.185,6.3-55.799c3.814-36.151,7.304-72.253,10.112-108.498
			C850.422,822.064,833.27,819.552,831.699,829.767L831.699,829.767z"/>
	</g>
</g>
</svg>
