<?xml version="1.0" encoding="utf-8"?>
<!-- Generator: Adobe Illustrator 23.0.3, SVG Export Plug-In . SVG Version: 6.00 Build 0)  -->
<svg version="1.1" id="Capa_1" xmlns="http://www.w3.org/2000/svg" xmlns:xlink="http://www.w3.org/1999/xlink" x="0px" y="0px"
	 viewBox="0 0 1200 1200" enable-background="new 0 0 1200 1200" xml:space="preserve">
<g>
	<path fill="#FFEDE0" d="M809.712,408.636c-4.504,4.254-8.27,4.379-11.014,2.413c-3.662,6.74-9.384,11.412-12.991,13.871
		c-24.171,132.273-99.922,545.657-104.069,554.64c-3.06,6.63-6.808,14.261-8.616,17.915c2.31,13.628,9.73,44.196,22.173,53.875
		c14.012,10.897,34.878,19.815,50.118,26.328c3.999,1.709,7.636,3.264,10.707,4.661c11.647,5.292,18.524,13.128,21.024,23.952
		c1.913,8.273-2.188,16.321-10.964,21.526C735.157,1146.151,651.735,1150,587.196,1150c-63.08,0-145.904-3.833-182.238-22.094
		c-9.161-4.61-13.735-13.211-11.649-21.915c2.561-10.671,9.412-18.408,20.954-23.653c3.071-1.397,6.703-2.95,10.702-4.658
		c15.24-6.512,36.112-15.431,50.124-26.331c12.475-9.704,19.88-40.251,22.179-53.871c-1.811-3.653-5.559-11.288-8.622-17.92
		c-4.11-8.906-53.796-388.508-75.506-555.459c-5.688-3.922-16.267-13.095-16.267-27.059c0-6.713,0.718-28.432,1.498-50.026
		c-0.487-0.362-0.972-0.724-1.48-1.079c-2.964-2.072-6.271-4.079-9.684-6.695c-11.867-9.099-1.394-28.01,3.746-37.743
		c4.404-8.339,8.319-18.583,14.819-25.483c10.349-10.984,23.474-9.081,30.026-24.864c3.569-8.596,17.898-17.655,26.431-21.546
		c21.12-9.629,43.3-19.488,66.879-19.034c11.657,0.225,23.899,2.909,34.605-1.328c0.995-0.394,1.96-0.852,2.908-1.341
		c-0.317-5.317,3.47-11.793,7.028-15.644c2.259-2.445,4.935-4.424,7.737-6.236c-21.241-18.627-89.409-109.441-89.409-109.441
		c-10.256-2.82-19.001-10.663-22.918-20.552c-0.301-0.761-0.58-1.557-0.555-2.375c0.082-2.668,3.448-4.205,6.014-3.469
		c2.566,0.736,4.416,2.914,6.104,4.981c2.643-2.85,7.685-1.576,10.246,1.349c2.561,2.925,3.472,6.889,4.903,10.503
		c1.816,4.588,4.552,8.746,7.312,12.836c24.059,35.636,54.972,71.27,85.713,101.72c8.44-4.849,17.362-9.486,27.039-9.594
		c10.815-0.12,21.038,5.586,28.674,13.246c7.482,7.507,15.082,21.033,20.422,30.417c4.42-2.341,8.921-4.517,13.795-5.468
		c16.869-3.293,37.343,4.801,53.797,8.09c11.257,2.25,21.693,6.406,28.338,16.289c6.708,9.978,11.432,20.88,20.972,28.475
		c5.986,4.765,12.703,9.134,17.534,15.161c4.328,5.4,5.714,12.008,8.779,18.098c4.163,8.269,7.069,17.355,7.309,26.668
		c0.226,8.765-5.257,15.853-6,24.262c-0.64,7.25,3.858,11.825,6.361,18.227C820.177,376.596,818.937,399.918,809.712,408.636z"/>
	<path fill="#FFB3B3" d="M793.81,397.298c1.074-11.09,1.51-15.77-7.039-22.166c-0.038-0.028-0.066-0.062-0.103-0.09
		c-5.854-4.511-3.886-13.516-5.904-20.263c-0.015-0.05-0.025-0.102-0.04-0.152c-0.14-0.453-0.299-0.896-0.48-1.326
		c-3.727-8.854-8.947-17.036-15.148-24.358c-3.997-4.72-16.381-18.951-22.515-19.489c-13.062-1.146-16.186,16.111-30.895,6.623
		c-10.907-7.035-14.684-23.591-26.943-11.075c-8.747,8.93-16.316,21.793-30.488,21.716c-6.958-0.038-13.316-3.646-19.927-5.811
		c-6.612-2.165-14.881-2.485-19.505,2.714c-7.177,8.07-0.812,23.727-9.671,29.905c-5.018,3.499-12.242,1.311-16.707-2.87
		c-4.465-4.181-7.086-9.909-10.54-14.957c-8.539-12.479-22.907-20.651-37.885-22.24c-16.754-1.777-24.109,6.917-26.267,23.525
		c-1.58,12.175-11.403,12.545-18.026,4.402c-5.333-6.556-0.794-16.243-7.306-22.248c-0.599-0.552-1.246-1.001-1.925-1.377
		c-5.38-3.101-12.893-1.251-18.552,1.947c-22.083,12.482-21.257,29.626-24.985,51.36c-2.128,12.406-5.104,29.154-21.85,21.517
		c-12.253-5.588-10.703-18.718-12.713-29.858c-1.442-7.989-5.182-12.111-10.022-15.714c-0.78,21.594-1.498,43.313-1.498,50.026
		c0,13.964,10.579,23.137,16.267,27.059c21.709,166.951,71.396,546.553,75.506,555.459c3.063,6.633,6.811,14.267,8.622,17.92
		c-2.298,13.62-9.704,44.167-22.179,53.871c-14.012,10.9-34.884,19.819-50.124,26.331c-3.999,1.708-7.63,3.261-10.702,4.658
		c-11.542,5.246-18.393,12.982-20.954,23.653c-2.085,8.703,2.488,17.305,11.649,21.915C441.292,1146.167,524.116,1150,587.196,1150
		c64.539,0,147.96-3.849,178.884-22.185c8.776-5.205,12.877-13.252,10.964-21.526c-2.5-10.824-9.377-18.66-21.024-23.952
		c-3.071-1.397-6.708-2.952-10.707-4.661c-15.24-6.513-36.106-15.431-50.118-26.328c-12.443-9.679-19.863-40.247-22.173-53.875
		c1.808-3.653,5.556-11.285,8.616-17.915c4.148-8.982,79.898-422.367,104.069-554.64c3.607-2.459,9.329-7.131,12.991-13.871
		C795.147,408.504,793.31,402.457,793.81,397.298z M497.204,413.268c43.423,5.686,72.871,11.165,110.539,14.589
		c8.029,0,30.881-1.705,52.965-3.323c2.214-0.162,4.418-0.323,6.601-0.482c0.228-0.017,0.459-0.034,0.687-0.05
		c0.695-0.051,1.381-0.1,2.07-0.15c0.506-0.037,1.015-0.073,1.517-0.11c0.665-0.048,1.32-0.095,1.978-0.142
		c0.575-0.041,1.151-0.082,1.719-0.123c0.657-0.047,1.304-0.092,1.952-0.138c0.477-0.034,0.956-0.067,1.427-0.1
		c0.634-0.044,1.257-0.088,1.881-0.131c0.594-0.041,1.186-0.082,1.77-0.122c0.462-0.032,0.917-0.062,1.372-0.093
		c0.64-0.043,1.275-0.086,1.901-0.128c0.493-0.033,0.978-0.065,1.461-0.097c0.595-0.039,1.183-0.077,1.762-0.115
		c0.44-0.028,0.874-0.056,1.304-0.083c0.569-0.036,1.126-0.071,1.677-0.105c0.453-0.028,0.902-0.056,1.343-0.082
		c0.504-0.03,0.993-0.059,1.48-0.088c0.44-0.026,0.879-0.051,1.305-0.075c0.483-0.027,0.948-0.052,1.412-0.077
		c0.383-0.021,0.769-0.042,1.139-0.061c0.465-0.024,0.906-0.045,1.348-0.067c0.347-0.017,0.702-0.034,1.035-0.05
		c0.435-0.02,0.839-0.036,1.248-0.053c0.294-0.012,0.602-0.026,0.882-0.036c0.444-0.017,0.85-0.029,1.258-0.041
		c0.21-0.006,0.439-0.015,0.639-0.02c0.587-0.015,1.135-0.026,1.632-0.031c10.31-0.104,20.616,0.277,30.869,1.437
		c-19.341,7.301-40.058,10.616-60.292,14.462c-3.595,0.683-7.271,1.428-10.995,2.186c-3.858,0.785-7.771,1.585-11.72,2.353
		c-17.449,3.391-35.566,6.125-52.345,3.903c-15.673-2.076-30.828-6.821-46.27-10.057c-20.119-4.216-40.231-8.711-60.079-14.076
		c-12.907-3.489-25.823-6.925-38.6-11.157C470.54,411.067,483.937,411.531,497.204,413.268z M630.474,559.708
		c0.058,13.777-0.205,27.546-0.317,41.319l-0.817,41.307l-1.299,41.294c-0.604,13.76-1.039,27.525-1.81,41.281
		c-1.365,27.516-3.049,55.025-5.623,82.51c-1.155-27.581-1.42-55.14-1.367-82.69c-0.062-13.777,0.213-27.546,0.318-41.319
		l0.829-41.306l1.311-41.294c0.598-13.76,1.044-27.525,1.811-41.281c1.368-27.516,3.047-55.025,5.61-82.51
		C630.264,504.599,630.525,532.157,630.474,559.708z M554.802,624.236c0.03,2.029,0.066,4.058,0.059,6.089
		c-0.091,25.347-5.297,49.848-11.275,74.361c-5.959,24.434-12.13,49.442-14.951,74.625c-0.524-12.621-1.13-25.234-1.836-37.839
		c-1.866-34.879-4.464-69.693-7.5-104.47c-3.073-34.773-6.558-69.51-10.785-104.182c-3.735-31.3-7.889-62.564-13.165-93.729
		c-0.122-0.721-0.912-0.839-1.375-0.5c-0.001-0.245,0.004-0.425,0.02-0.48c5.314,2.075,48.004,14.403,65.81,16.457
		c-1.28,8.203-7.107,16.146-7.649,24.422C537.486,525.762,549.634,575.258,554.802,624.236z M495.196,677.928
		c1.007,12.752,2.183,25.486,3.024,38.254c1.858,25.518,3.399,51.068,4.054,76.705c-4.367-25.271-7.848-50.629-11.013-76.018
		c-1.67-12.686-3.005-25.405-4.509-38.108l-4.001-38.158l-3.521-38.205c-1.014-12.751-2.178-25.487-3.023-38.254
		c-1.855-25.518-3.401-51.068-4.067-76.703c4.356,25.272,7.833,50.63,10.999,76.02c1.666,12.686,3.013,25.404,4.51,38.107
		l4.013,38.157L495.196,677.928z M686.024,1063.137c15.537,12.083,37.433,21.44,53.42,28.272c3.882,1.66,7.411,3.168,10.398,4.524
		c9.336,4.244,11.635,9.318,12.653,13.72c0.551,2.387-2.949,4.674-4.034,5.317c-12.656,7.505-51.737,20.096-171.265,20.096
		c-88.144,0-148.841-7.091-175.529-20.503c-0.461-0.232-4.492-2.348-3.836-5.091c1.041-4.333,3.351-9.331,12.609-13.54
		c2.984-1.355,6.51-2.861,10.392-4.519c15.99-6.834,37.888-16.191,53.426-28.276c16.423-12.774,24.214-44.669,26.98-59.024
		c17.137,7.769,46.601,11.68,75.844,11.68c28.002,0,55.754-3.574,72.149-10.742C662.147,1019.808,669.948,1050.631,686.024,1063.137
		z M772.269,415.392c0,0-0.656,3.59-0.656,3.591c-6.722,36.788-13.466,73.571-20.221,110.353
		c-8.446,45.985-16.912,91.965-25.407,137.941c-8.504,46.029-17.034,92.053-25.622,138.066
		c-6.892,36.921-13.804,73.839-20.869,110.727c-3.694,19.284-6.174,39.549-11.815,58.401c-4.829,16.136-18.148,23.569-33.879,26.289
		c-10.352,1.79-20.879,2.149-31.352,2.63c-23.421,1.074-47.75,0.332-70.671-4.998c-15.698-3.65-22.698-10.248-29.368-24.656
		c-4.722-18.976-55.602-406.519-74.911-555.058l-0.531-3.83l-3.389-1.811c-0.111-0.06-10.643-5.807-11.667-14.63
		c8.27,11.053,25.989,13.927,25.989,13.927s67.624,521.999,69.657,535.604c0.063,0.425,0.133,0.865,0.211,1.319
		c1.086,6.339,3.714,15.322,12.349,23.279c0.777,0.716,1.618,1.42,2.496,2.117c1.012,0.803,2.098,1.59,3.253,2.36
		c11.405,7.604,30.004,13.387,60.649,13.387c49.759,0,67.331-19.054,73.617-31.962c0.503-1.033,0.934-2.026,1.303-2.967
		c0.369-0.941,0.677-1.83,0.933-2.654c0.385-1.236,0.656-2.324,0.849-3.223c2.055-9.588,100.676-535.433,100.676-535.433
		s4.373,1.488,9.748,0.517L772.269,415.392z"/>
	<path fill="#F59F9F" d="M758.461,1114.97c-12.656,7.505-51.737,20.096-171.265,20.096c-88.144,0-148.841-7.091-175.529-20.503
		c-0.461-0.232-4.491-2.348-3.836-5.09c1.064-4.452,7.266-14.214,13.086-13.309c4.102,0.637,5.057,8.454,8.671,9.904
		c32.507,13.04,104.086,15.886,114.108,16.609c28.558,2.06,57.13,0.525,85.717-0.341c61.425-1.859,80.144-6.882,114.037-18.507
		c-12.948,1.046-67.222,6.147-116.967,7.3c-30.804,0.714-62.112,2.265-92.892,0.352c-6.328-0.393-12.668-0.662-19.018-0.917
		c-1.947-0.114-3.893-0.276-5.84-0.403c2.962-0.635,5.851-1.536,8.593-2.862c15.147-7.329,22.359-25.223,23.586-42.006
		c0.75-10.25-0.244-20.621-2.892-30.55c4.48,1.424,9.049,2.587,13.647,3.523c20.921,4.352,42.775,4.273,63.788,0.59
		c10.504-1.841,20.891-4.621,30.637-9.008c-10.644,0.763-21.028,1.548-31.415,2.059c-26.079,1.111-52.192,0.698-78.119-2.179
		c-1.173-3.926-0.598-10.333-5.504-19.353c16.147,3.603,36.133,5.417,56.026,5.417c28.002,0,55.754-3.574,72.149-10.742
		c2.915,14.758,10.716,45.58,26.792,58.086c15.537,12.083,37.433,21.44,53.42,28.272c3.882,1.66,7.411,3.168,10.398,4.524
		c9.336,4.244,11.635,9.318,12.653,13.72C763.047,1112.04,759.546,1114.327,758.461,1114.97z M787.241,397.724
		c0,9.598-11.652,15.934-11.737,15.981l-1.865,0.973c-5.376,0.971-9.748-0.517-9.748-0.517s-98.621,525.845-100.676,535.433
		c-2.054,9.588-13.01,40.806-76.702,40.806c-68.486,0-76.924-28.856-78.957-42.461c-0.353-2.364-4.741-41.092-8.194-67.923
		c2.217,2.432,6.722,4.767,9.265,6.965c18.333,15.85,37.223,28.334,61.478,17.356c16.307-7.381,41.376-38.913,48.598-55.292
		c7.222-16.379,10.342-34.22,13.402-51.857c6.461-37.241,12.151-74.621,17.024-112.103c7.024-54.033,12.991-108.59,13.439-163.132
		c0.164-20.001-0.151-40.39-3.734-60.127c-1.401-7.716-3.79-13.922-4.47-19.701c7.765-1.509,15.398-3.148,22.721-4.54
		c20.234-3.846,40.951-7.161,60.292-14.462c-10.253-1.16-20.559-1.54-30.869-1.437c-7.672,0.077-26.44,1.429-45.798,2.847
		c0.336-0.353,0.631-0.7,1-1.058c11.502-11.179,27.133-20.23,32.786-36.041c8.584-24.007-9.502-30.957-30.01-28.789
		c-26.961,2.851-59.981,23.868-86.346,11.874c-15.209-6.919-21.271-17.868-39.881-9.911c-8.719,3.728-14.644,9.173-25.025,8.541
		c-14.873-0.906-24.99-11.423-33.242-22.623c-0.98-3.442-1.745-6.939-2.137-10.488c-0.843-7.638,1.948-13.949,6.603-19.167
		c1.435,0.48,2.79,1.183,3.964,2.266c6.512,6.005,1.974,15.692,7.306,22.248c6.622,8.143,16.446,7.773,18.026-4.402
		c2.158-16.609,9.513-25.303,26.267-23.525c14.978,1.589,29.346,9.761,37.885,22.24c3.454,5.048,6.075,10.776,10.54,14.957
		c4.465,4.181,11.689,6.369,16.707,2.87c8.859-6.177,2.494-21.835,9.671-29.905c4.624-5.199,12.893-4.879,19.505-2.714
		c6.612,2.165,12.97,5.773,19.927,5.811c14.173,0.077,21.741-12.786,30.488-21.716c12.259-12.516,16.036,4.04,26.943,11.075
		c14.709,9.488,17.833-7.769,30.895-6.623c6.134,0.538,18.518,14.769,22.515,19.489c6.201,7.322,11.422,15.504,15.148,24.358
		c2.884,6.85,0.129,16.9,6.43,21.747C787.012,385.593,787.241,394.069,787.241,397.724z M660.519,783.092
		c-5.608,16.422-9.732,33.066-13.405,49.779c-3.624,16.69-6.634,33.598-9.194,50.344c-2.62,16.599-5.474,32.742-12.224,47.154
		c-3.351,7.186-7.785,13.944-13.305,19.843c-5.485,5.959-12.258,10.824-20.28,14.18c8.745-0.105,17.476-3.552,24.987-8.609
		c7.524-5.129,13.855-11.982,18.808-19.697c9.914-15.606,14.053-33.549,16.758-50.526c2.624-17.003,4.594-33.874,6.062-50.947
		C660.12,817.558,661.062,800.436,660.519,783.092z"/>
	<path fill="#F56C6C" d="M493.631,439.241c-0.007-1.039,1.544-1.175,1.718-0.15c5.275,31.165,9.43,62.429,13.165,93.729
		c4.228,34.672,7.713,69.409,10.785,104.182c3.036,34.776,5.634,69.591,7.5,104.47c1.757,31.349,3.086,62.736,3.298,94.221
		c0.007,1.083-1.607,1.224-1.788,0.156c-5.26-31.043-9.404-62.183-13.12-93.361c-4.222-34.672-7.711-69.409-10.763-104.184
		c-3.014-34.778-5.617-69.592-7.477-104.471C495.189,502.359,493.85,470.849,493.631,439.241z M592.478,238.073
		c-5.873,9.107-40.704-27.577-50.341-8.442C554.879,232.185,582.346,253.785,592.478,238.073z M707.94,258.732
		c-4.797,2.579-23.492,11.276-28.081,7.34c20.08,17.224,39.519-7.762,56.071-15.715C725.314,246.602,716.7,254.023,707.94,258.732z
		 M481.626,283.894c-1.389,0.311-8.671-3.945-11.052-4.243c-4.097-0.512-8.376,0.094-12.297,1.311
		c-7.25,2.249-16.526,8.067-17.641,16.064c0.292-0.044,0.584-0.092,0.876-0.141C455.092,294.58,468.014,286.941,481.626,283.894z
		 M540.546,260.676c-4.065,6.075-41.003-7.34-47.857-6.756C500.87,267.755,530.12,276.257,540.546,260.676z M780.127,307.591
		c0.079,0.05-1.675-12.341-4.864-15.041c-4.173-3.533-10.53-5.446-15.541-2.936C762.619,296.478,773.619,303.467,780.127,307.591z
		 M656.741,251.238c-0.615,0.755-17.333,2.43-20.649,4.508c-5.61,3.516-12.144,9.529-13.061,16.168
		C634.626,270.889,649.45,260.182,656.741,251.238z M644.51,185.225c-7.635-7.66-17.859-13.367-28.674-13.246
		c-9.677,0.108-18.599,4.745-27.039,9.594c-30.741-30.45-61.654-66.084-85.713-101.72c-2.761-4.09-5.496-8.248-7.312-12.836
		c-1.431-3.614-2.342-7.578-4.903-10.503c-2.561-2.925-7.603-4.199-10.246-1.349c-1.689-2.068-3.538-4.245-6.104-4.981
		c-2.566-0.736-5.932,0.8-6.014,3.469c-0.025,0.819,0.253,1.614,0.555,2.375c3.917,9.889,12.662,17.732,22.918,20.552
		c0,0,68.169,90.813,89.409,109.441c-2.802,1.812-5.478,3.792-7.737,6.236c-3.558,3.851-7.345,10.327-7.028,15.644
		c7.102-3.664,13.111-9.534,21.12-10.734c10.4-1.558,19.892,5.294,27.447,12.032c7.555,6.737,15.863,14.295,26.394,14.641
		c8.502,0.279,15.805-4.202,23.349-8.198C659.593,206.258,651.992,192.731,644.51,185.225z M643.793,638.515
		c-2.446,29.393-4.455,58.822-5.731,88.312c-0.677,14.642-1.222,29.295-1.522,43.968c4.656-28.5,8.864-57.075,12.586-85.71
		c7.024-54.033,12.991-108.59,13.439-163.132c0.097-11.745,0.007-23.623-0.792-35.426c-3.503,21.274-6.379,42.6-8.965,63.95
		C649.17,579.771,646.276,609.126,643.793,638.515z M617.099,955.781c7.524-5.129,13.855-11.982,18.808-19.697
		c9.914-15.606,14.053-33.549,16.758-50.526c2.624-17.003,4.594-33.874,6.062-50.947c1.393-17.054,2.335-34.176,1.792-51.521
		c-5.608,16.422-9.732,33.066-13.405,49.779c-3.624,16.69-6.634,33.598-9.194,50.344c-2.62,16.6-5.474,32.742-12.224,47.154
		c-3.351,7.186-7.785,13.944-13.305,19.843c-5.485,5.959-12.258,10.824-20.28,14.18
		C600.858,964.286,609.588,960.838,617.099,955.781z M555.693,1042.403c21.366,0.377,38.752,0.134,59.764-3.548
		c10.504-1.841,20.891-4.621,30.637-9.008c-10.644,0.763-21.028,1.548-31.415,2.059c-31.152,1.328-62.357,0.53-93.229-4.114
		C528.334,1034.043,541.077,1042.145,555.693,1042.403z"/>
</g>
</svg>
