<?xml version="1.0" encoding="utf-8"?>
<!-- Generator: Adobe Illustrator 23.0.3, SVG Export Plug-In . SVG Version: 6.00 Build 0)  -->
<svg version="1.1" id="Capa_1" xmlns="http://www.w3.org/2000/svg" xmlns:xlink="http://www.w3.org/1999/xlink" x="0px" y="0px"
	 viewBox="0 0 1200 1200" enable-background="new 0 0 1200 1200" xml:space="preserve">
<g>
	<path fill="#E3E4E5" d="M865.245,160.924c-3.483-18.464-7.714-36.789-12.773-54.885c0-0.03,0-0.03,0-0.03
		c-1.293-4.529-6.216-7.333-9.797-9.854c-7.066-4.974-14.714-9.129-22.598-12.647c-15.33-6.842-33.309-12.508-50.295-10.35
		c-20.718-13.165-47.23-18.989-70.405-15.471c-36.673-15.379-81.203-7.128-110.263,19.778
		c-17.685-14.196-43.286-20.96-66.067-16.986c-24.631-8.1-52.72-1.153-70.283,16.896c-29.848-11.968-62.813,3.25-76.017,31.85
		c-7.047-0.672-18.481-4.109-25.192-1.567c-7.849,2.974-8.619,17.356-10.345,24.34c-4.678,18.929-8.467,38.079-11.39,57.356
		c-5.942,39.181-8.3,78.911-7.008,118.52c2.636,80.779,23.262,158.522,44.835,235.941c22.006,78.973,40.761,158.218,50.38,239.757
		c9.522,80.714,11.444,162.298,5.804,243.374c-1.408,20.241-3.284,40.45-5.623,60.604c-1.112,9.585-2.772,15.672,6.735,20.553
		c9.676,4.968,19.75,9.297,29.831,13.368c35.771,14.444,73.555,23.958,112.024,27.234c36.47,3.105,73.347,0.521,109.195-6.733
		c18.844-3.814,37.429-8.933,55.559-15.333c8.529-3.011,16.958-6.306,25.263-9.891c6.938-2.995,19.291-6.343,24.237-12.232
		c5.107-6.083,1-18.019,0.216-25.156c-1.139-10.361-2.157-20.736-3.05-31.121c-1.782-20.712-3.074-41.467-3.87-62.241
		c-1.546-40.321-1.223-80.713,0.979-121.004c4.442-81.296,16.551-162.16,36.006-241.216c19.418-78.907,45.923-156.191,58.68-236.642
		C881.875,312.321,879.267,235.27,865.245,160.924z"/>
	<path fill="#452626" d="M865.245,160.924c-3.483-18.464-7.714-36.789-12.773-54.885c0-0.03,0-0.03,0-0.03
		c-1.293-4.529-6.216-7.333-9.797-9.854c-7.066-4.974-14.714-9.129-22.598-12.647c-15.33-6.842-33.309-12.508-50.295-10.35
		c-20.718-13.165-47.23-18.989-70.405-15.471c-36.673-15.379-81.203-7.128-110.263,19.778
		c-17.685-14.196-43.286-20.96-66.067-16.986c-24.631-8.1-52.72-1.153-70.283,16.896c-29.848-11.968-62.813,3.25-76.017,31.85
		c-7.047-0.672-18.481-4.109-25.192-1.567c-7.849,2.974-8.619,17.356-10.345,24.34c-4.678,18.929-8.467,38.079-11.39,57.356
		c-5.942,39.181-8.3,78.911-7.008,118.52c2.636,80.779,23.262,158.522,44.835,235.941c22.006,78.973,40.761,158.218,50.38,239.757
		c9.522,80.714,11.444,162.298,5.804,243.374c-1.408,20.241-3.284,40.45-5.623,60.604c-1.112,9.585-2.772,15.672,6.735,20.553
		c9.676,4.968,19.75,9.297,29.831,13.368c35.771,14.444,73.555,23.958,112.024,27.234c36.47,3.105,73.347,0.521,109.195-6.733
		c18.844-3.814,37.429-8.933,55.559-15.333c8.529-3.011,16.958-6.306,25.263-9.891c6.938-2.995,19.291-6.343,24.237-12.232
		c5.107-6.083,1-18.019,0.216-25.156c-1.139-10.361-2.157-20.736-3.05-31.121c-1.782-20.712-3.074-41.467-3.87-62.241
		c-1.546-40.321-1.223-80.713,0.979-121.004c4.442-81.296,16.551-162.16,36.006-241.216c19.418-78.907,45.923-156.191,58.68-236.642
		C881.875,312.321,879.267,235.27,865.245,160.924z M729.468,576.425c-13.49,0-13.496-20.9,0-20.9S742.958,576.425,729.468,576.425z
		 M747.851,555.525c-6.025,0-6.025-9.343,0-9.343S753.876,555.525,747.851,555.525z"/>
	<g>
		<path fill="#F2B26A" d="M865.245,160.924c-3.483-18.464-7.714-36.789-12.773-54.885c0-0.03,0-0.03,0-0.03
			c-1.293-4.529-6.216-7.333-9.797-9.854c-7.066-4.974-14.714-9.129-22.598-12.647c-15.33-6.842-33.309-12.508-50.295-10.35
			c-20.718-13.165-47.23-18.989-70.405-15.471c-36.673-15.379-81.203-7.128-110.263,19.778
			c-17.685-14.196-43.286-20.96-66.067-16.986c-24.631-8.1-52.72-1.153-70.283,16.896c-29.848-11.968-62.813,3.25-76.017,31.85
			c-7.047-0.672-18.481-4.109-25.192-1.567c-7.849,2.974-8.619,17.356-10.345,24.34c-4.678,18.929-8.467,38.079-11.39,57.356
			c-5.942,39.181-8.3,78.911-7.008,118.52c2.636,80.779,23.262,158.522,44.835,235.941c22.006,78.973,40.761,158.218,50.38,239.757
			c9.522,80.714,11.444,162.298,5.804,243.374c-1.408,20.241-3.284,40.45-5.623,60.604c-1.112,9.585-2.772,15.672,6.735,20.553
			c9.676,4.968,19.75,9.297,29.831,13.368c35.771,14.444,73.555,23.958,112.024,27.234c36.47,3.105,73.347,0.521,109.195-6.733
			c18.844-3.814,37.429-8.933,55.559-15.333c8.529-3.011,16.958-6.306,25.263-9.891c6.938-2.995,19.291-6.343,24.237-12.232
			c5.107-6.083,1-18.019,0.216-25.156c-1.139-10.361-2.157-20.736-3.05-31.121c-1.782-20.712-3.074-41.467-3.87-62.241
			c-1.546-40.321-1.223-80.713,0.979-121.004c4.442-81.296,16.551-162.16,36.006-241.216
			c19.418-78.907,45.923-156.191,58.68-236.642C881.875,312.321,879.267,235.27,865.245,160.924z M414.85,321.744
			c-6.96-2.406-16.524-5.742-21.814-11.103c-4.489-4.549-1.807-12.305,5.22-10.775c3.003,0.654,6.163,3.786,8.861,5.264
			c3.661,2.005,7.499,3.682,11.437,5.061c7.441,2.604,15.262,4.079,23.142,4.375c4.173,0.156,8.357-0.044,12.497-0.569
			c3.478-0.441,8.131-2.509,11.515-2.025c6.349,0.909,7.856,10.165,1.129,11.925C449.792,328.372,431.483,327.494,414.85,321.744z
			 M511.035,559.984c-6.748,4.569-13.496,9.138-20.244,13.707c-8.32,5.633-16.996,13.51-26.144,17.703
			c-5.642,2.586-11.427-1.577-6.393-7.173c2.002-2.225,5.821-3.94,8.27-5.598c8.133-5.505,16.266-11.01,24.399-16.515
			c-8.68,0-17.359,0-26.039,0c-5.203,0-22.226,3.039-26.245-1.661c-8.345-9.757,18.374-7.833,21.164-7.833
			c9.079,0,18.158,0,27.237,0c-8.25-4.295-16.632-8.397-24.772-12.895c-3.499-1.933-9.575-5.911-3.959-9.888
			c2.919-2.067,6.111,0.32,8.757,1.696c9.525,4.954,19.05,9.908,28.576,14.862C497.751,547.485,517.755,555.407,511.035,559.984z
			 M572.582,177.142c-3.164,8.286-17.243-0.246-22.153-2.168c-5.028-1.967-22.656-5.588-19.283-14.061
			c3.277-8.358,17.94,0.519,22.932,2.472C559.13,165.363,575.798,168.721,572.582,177.142z M596.03,593.776
			c-23.501,0-23.494-36.408,0-36.4C619.477,557.383,619.515,593.776,596.03,593.776z M704.716,323.837
			c-4.393,12.267-47.661-14.152-43.257-24.899c4.403-10.744,18.114,5.475,22.601,8.451
			C689.179,310.784,707.756,315.516,704.716,323.837z M734.412,589.378c-15.606,0-28.693-13.088-28.696-28.696
			c-0.002-15.612,13.076-28.726,28.696-28.726c15.173,0,28.066,12.396,28.648,27.55C763.677,575.55,750.526,589.378,734.412,589.378
			z"/>
	</g>
	<g>
		<path fill="#B55E18" d="M865.245,160.924c-3.483-18.464-7.714-36.789-12.773-54.885c0-0.03,0-0.03,0-0.03
			c-1.293-4.529-6.216-7.333-9.797-9.854c-7.066-4.974-14.714-9.129-22.598-12.647c-15.33-6.842-33.309-12.508-50.295-10.35
			c-20.718-13.165-47.23-18.989-70.405-15.471c-36.673-15.379-81.203-7.128-110.263,19.778
			c-17.685-14.196-43.286-20.96-66.067-16.986c-24.631-8.1-52.72-1.153-70.283,16.896c-29.848-11.968-62.813,3.25-76.017,31.85
			c-7.047-0.672-18.481-4.109-25.192-1.567c-7.849,2.974-8.619,17.356-10.345,24.34c-4.678,18.929-8.467,38.079-11.39,57.356
			c-5.942,39.181-8.3,78.911-7.008,118.52c2.636,80.779,23.262,158.522,44.835,235.941c22.006,78.973,40.761,158.218,50.38,239.757
			c9.522,80.714,11.444,162.298,5.804,243.374c-1.408,20.241-3.284,40.45-5.623,60.604c-1.112,9.585-2.772,15.672,6.735,20.553
			c9.676,4.968,19.75,9.297,29.831,13.368c35.771,14.444,73.555,23.958,112.024,27.234c36.47,3.105,73.347,0.521,109.195-6.733
			c18.844-3.814,37.429-8.933,55.559-15.333c8.529-3.011,16.958-6.306,25.263-9.891c6.938-2.995,19.291-6.343,24.237-12.232
			c5.107-6.083,1-18.019,0.216-25.156c-1.139-10.361-2.157-20.736-3.05-31.121c-1.782-20.712-3.074-41.467-3.87-62.241
			c-1.546-40.321-1.223-80.713,0.979-121.004c4.442-81.296,16.551-162.16,36.006-241.216
			c19.418-78.907,45.923-156.191,58.68-236.642C881.875,312.321,879.267,235.27,865.245,160.924z M437.167,91.822
			c6.714,1.055,15.109,8.134,21.788,5.011c5.926-2.772,9.933-10.324,15.75-13.945c10.985-6.838,24.657-9.201,37.314-6.569
			c3.193,0.664,6.419,2.378,9.671,2.618c3.176,0.234,6.584-0.943,9.753-1.198c6.601-0.528,13.301,0.049,19.754,1.5
			c6.453,1.45,12.747,3.795,18.517,7.035c5.334,2.995,9.115,7.582,14.082,10.837c7.742,5.074,12.068-1.058,17.417-6.031
			c4.342-4.036,9.152-7.555,14.266-10.546c21.494-12.572,48.742-15.941,72.393-7.76c3.558,1.231,6.871,3.181,10.657,3.34
			c3.304,0.138,6.897-0.898,10.223-1.09c6.65-0.385,13.352,0.136,19.898,1.347c7.175,1.327,14.204,3.511,20.865,6.489
			c5.36,2.397,11.711,8.523,17.84,7.892c3.543,1.288,8.337,0.062,12.081,0.258c3.81,0.199,7.599,0.845,11.315,1.692
			c9.27,2.114,18.269,5.569,26.776,9.789c-141.416,16.775-288.474,19.687-421.063,8.494
			C405.308,97.382,420.867,89.26,437.167,91.822z M414.85,321.744c-6.96-2.406-16.524-5.742-21.814-11.103
			c-4.489-4.549-1.807-12.305,5.22-10.775c3.003,0.654,6.163,3.786,8.861,5.264c3.661,2.005,7.499,3.682,11.437,5.061
			c7.441,2.604,15.262,4.079,23.142,4.375c4.173,0.156,8.357-0.044,12.497-0.569c3.478-0.441,8.131-2.509,11.515-2.025
			c6.349,0.909,7.856,10.165,1.129,11.925C449.792,328.372,431.483,327.494,414.85,321.744z M511.035,559.984
			c-6.748,4.569-13.496,9.138-20.244,13.707c-8.32,5.633-16.996,13.51-26.144,17.703c-5.642,2.586-11.427-1.577-6.393-7.173
			c2.002-2.225,5.821-3.94,8.27-5.598c8.133-5.505,16.266-11.01,24.399-16.515c-8.68,0-17.359,0-26.039,0
			c-5.203,0-22.226,3.039-26.245-1.661c-8.345-9.757,18.374-7.833,21.164-7.833c9.079,0,18.158,0,27.237,0
			c-8.25-4.295-16.632-8.397-24.772-12.895c-3.499-1.933-9.575-5.911-3.959-9.888c2.919-2.067,6.111,0.32,8.757,1.696
			c9.525,4.954,19.05,9.908,28.576,14.862C497.751,547.485,517.755,555.407,511.035,559.984z M596.03,593.776
			c-23.501,0-23.494-36.408,0-36.4C619.477,557.383,619.515,593.776,596.03,593.776z M704.716,323.837
			c-4.393,12.267-47.661-14.152-43.257-24.899c4.403-10.744,18.114,5.475,22.601,8.451
			C689.179,310.784,707.756,315.516,704.716,323.837z M734.412,589.378c-15.606,0-28.693-13.088-28.696-28.696
			c-0.002-15.612,13.076-28.726,28.696-28.726c15.173,0,28.066,12.396,28.648,27.55C763.677,575.55,750.526,589.378,734.412,589.378
			z M372.895,192.005c3.246-21.476,7.614-42.709,13.044-63.64c133.802,12.012,282.832,9.585,426.401-6.947
			c6.067,22.174,10.859,44.803,14.439,67.644C732.926,205.625,555.14,226.495,372.895,192.005z"/>
	</g>
	<g>
		<path fill="#E3E4E5" d="M865.245,160.924c-3.483-18.464-7.714-36.789-12.773-54.885c0-0.03,0-0.03,0-0.03
			c-1.293-4.529-6.216-7.333-9.797-9.854c-7.066-4.974-14.714-9.129-22.598-12.647c-15.33-6.842-33.309-12.508-50.295-10.35
			c-20.718-13.165-47.23-18.989-70.405-15.471c-36.673-15.379-81.203-7.128-110.263,19.778
			c-17.685-14.196-43.286-20.96-66.067-16.986c-24.631-8.1-52.72-1.153-70.283,16.896c-29.848-11.968-62.813,3.25-76.017,31.85
			c-7.047-0.672-18.481-4.109-25.192-1.567c-7.849,2.974-8.619,17.356-10.345,24.34c-4.678,18.929-8.467,38.079-11.39,57.356
			c-5.942,39.181-8.3,78.911-7.008,118.52c2.636,80.779,23.262,158.522,44.835,235.941c22.006,78.973,40.761,158.218,50.38,239.757
			c9.522,80.714,11.444,162.298,5.804,243.374c-1.408,20.241-3.284,40.45-5.623,60.604c-1.112,9.585-2.772,15.672,6.735,20.553
			c9.676,4.968,19.75,9.297,29.831,13.368c35.771,14.444,73.555,23.958,112.024,27.234c36.47,3.105,73.347,0.521,109.195-6.733
			c18.844-3.814,37.429-8.933,55.559-15.333c8.529-3.011,16.958-6.306,25.263-9.891c6.938-2.995,19.291-6.343,24.237-12.232
			c5.107-6.083,1-18.019,0.216-25.156c-1.139-10.361-2.157-20.736-3.05-31.121c-1.782-20.712-3.074-41.467-3.87-62.241
			c-1.546-40.321-1.223-80.713,0.979-121.004c4.442-81.296,16.551-162.16,36.006-241.216
			c19.418-78.907,45.923-156.191,58.68-236.642C881.875,312.321,879.267,235.27,865.245,160.924z M437.167,91.822
			c6.714,1.055,15.109,8.134,21.788,5.011c5.926-2.772,9.933-10.324,15.75-13.945c10.985-6.838,24.657-9.201,37.314-6.569
			c3.193,0.664,6.419,2.378,9.671,2.618c3.176,0.234,6.584-0.943,9.753-1.198c6.601-0.528,13.301,0.049,19.754,1.5
			c6.453,1.45,12.747,3.795,18.517,7.035c5.334,2.995,9.115,7.582,14.082,10.837c7.742,5.074,12.068-1.058,17.417-6.031
			c4.342-4.036,9.152-7.555,14.266-10.546c21.494-12.572,48.742-15.941,72.393-7.76c3.558,1.231,6.871,3.181,10.657,3.34
			c3.304,0.138,6.897-0.898,10.223-1.09c6.65-0.385,13.352,0.136,19.898,1.347c7.175,1.327,14.204,3.511,20.865,6.489
			c5.36,2.397,11.711,8.523,17.84,7.892c3.543,1.288,8.337,0.062,12.081,0.258c3.81,0.199,7.599,0.845,11.315,1.692
			c9.27,2.114,18.269,5.569,26.776,9.789c-141.416,16.775-288.474,19.687-421.063,8.494
			C405.308,97.382,420.867,89.26,437.167,91.822z M385.938,128.365c133.802,12.012,282.832,9.585,426.401-6.947
			c6.067,22.174,10.859,44.803,14.439,67.644c-93.853,16.562-271.639,37.432-453.884,2.942
			C376.141,170.53,380.509,149.296,385.938,128.365z M366.555,318.407c-1.911-38.099-0.334-76.471,4.671-114.359
			c69.131,13.044,137.564,18.2,201.113,18.686c11.501,6.825,1.851,20.475-2.366,28.907c-12.479-1.152-25.641-1.319-36.433,5.909
			c-8.331,5.581-13.885,14.331-18.065,23.252c-4.8,10.244-7.88,21.171-11.902,31.719c-5.484,14.38-11.403,28.588-16.775,43.013
			C444.422,355.019,401.894,341.855,366.555,318.407z M511.035,559.984c-6.748,4.569-13.496,9.138-20.244,13.707
			c-8.32,5.633-16.996,13.51-26.144,17.703c-5.642,2.586-11.427-1.577-6.393-7.173c2.002-2.225,5.821-3.94,8.27-5.598
			c8.133-5.505,16.266-11.01,24.399-16.515c-8.68,0-17.359,0-26.039,0c-5.203,0-22.226,3.039-26.245-1.661
			c-8.345-9.757,18.374-7.833,21.164-7.833c9.079,0,18.158,0,27.237,0c-8.25-4.295-16.632-8.397-24.772-12.895
			c-3.499-1.933-9.575-5.911-3.959-9.888c2.919-2.067,6.111,0.32,8.757,1.696c9.525,4.954,19.05,9.908,28.576,14.862
			C497.751,547.485,517.755,555.407,511.035,559.984z M596.03,593.776c-23.501,0-23.494-36.408,0-36.4
			C619.477,557.383,619.515,593.776,596.03,593.776z M627.183,463.129c4.85-3.167,15.791-10.521,16.03-17.001
			c0.248-6.725-6.757-7.209-10.782-4.111c-5.744,4.42-9.362,9.948-16.164,13.313c-5.345,2.644-11.169,4.036-17.103,4.452
			c-23.846,1.673-49.021-9.209-71.08-17.092c-12.877-4.602-28.162-8.676-39.591-16.367c-9.913-6.671-5.77-16.753-3.199-26.648
			c7.775-29.922,20.571-57.985,31.147-86.931c6.802-18.619,13.087-48.39,37.789-49.423c26.269-1.122,60.425,8.857,81.658,23.721
			c-9.844,15.606-19.462,32.54-11.106,51.097c8.199,18.207,27.829,29.662,44.018,39.813c-3.806,5.006-17.201,20.483-9.608,26.144
			c8.238,6.143,16.044-14.728,20.042-19.774c8.554,5.065,17.32,9.858,26.481,14.438
			C687.916,430.802,669.583,466.318,627.183,463.129z M734.412,589.378c-15.606,0-28.693-13.088-28.696-28.696
			c-0.002-15.612,13.076-28.726,28.696-28.726c15.173,0,28.066,12.396,28.648,27.55C763.677,575.55,750.526,589.378,734.412,589.378
			z M779.712,355.343c6.565-0.949,13.183-5.652,18.384-9.45c13.655-9.973,25.215-22.921,35.841-35.98
			c-0.728,19.717-2.336,39.404-4.944,58.878c-2.261,16.085-19.053,30.207-32.939,36.597c-18.032,8.297-39.168,2.439-56.667-4.513
			c-31.058-12.339-64.158-29.301-89.761-51.033c-11.978-10.167-19.835-23.062-13.475-38.749c2.821-6.957,7.188-13.202,11.23-19.501
			c15.703-24.47,31.407-48.939,47.111-73.408c53.387-4.307,99.343-11.012,134.014-17.109c4.004,29.303,6.006,58.908,5.885,88.454
			c-16.956,23.023-42.225,50.899-58.059,54.145C767.875,345.397,771.792,356.488,779.712,355.343z"/>
	</g>
	<g>
		<path fill="#73360D" d="M865.245,160.924c-3.483-18.464-7.714-36.789-12.773-54.885c0-0.03,0-0.03,0-0.03
			c-1.293-4.529-6.216-7.333-9.797-9.854c-7.066-4.974-14.714-9.129-22.598-12.647c-15.33-6.842-33.309-12.508-50.295-10.35
			c-20.718-13.165-47.23-18.989-70.405-15.471c-36.673-15.379-81.203-7.128-110.263,19.778
			c-17.685-14.196-43.286-20.96-66.067-16.986c-24.631-8.1-52.72-1.153-70.283,16.896c-29.848-11.968-62.813,3.25-76.017,31.85
			c-7.047-0.672-18.481-4.109-25.192-1.567c-7.849,2.974-8.619,17.356-10.345,24.34c-4.678,18.929-8.467,38.079-11.39,57.356
			c-5.942,39.181-8.3,78.911-7.008,118.52c2.636,80.779,23.262,158.522,44.835,235.941c22.006,78.973,40.761,158.218,50.38,239.757
			c9.522,80.714,11.444,162.298,5.804,243.374c-1.408,20.241-3.284,40.45-5.623,60.604c-1.112,9.585-2.772,15.672,6.735,20.553
			c9.676,4.968,19.75,9.297,29.831,13.368c35.771,14.444,73.555,23.958,112.024,27.234c36.47,3.105,73.347,0.521,109.195-6.733
			c18.844-3.814,37.429-8.933,55.559-15.333c8.529-3.011,16.958-6.306,25.263-9.891c6.938-2.995,19.291-6.343,24.237-12.232
			c5.107-6.083,1-18.019,0.216-25.156c-1.139-10.361-2.157-20.736-3.05-31.121c-1.782-20.712-3.074-41.467-3.87-62.241
			c-1.546-40.321-1.223-80.713,0.979-121.004c4.442-81.296,16.551-162.16,36.006-241.216
			c19.418-78.907,45.923-156.191,58.68-236.642C881.875,312.321,879.267,235.27,865.245,160.924z M437.167,91.822
			c6.714,1.055,15.109,8.134,21.788,5.011c5.926-2.772,9.933-10.324,15.75-13.945c10.985-6.838,24.657-9.201,37.314-6.569
			c3.193,0.664,6.419,2.378,9.671,2.618c3.176,0.234,6.584-0.943,9.753-1.198c6.601-0.528,13.301,0.049,19.754,1.5
			c6.453,1.45,12.747,3.795,18.517,7.035c5.334,2.995,9.115,7.582,14.082,10.837c7.742,5.074,12.068-1.058,17.417-6.031
			c4.342-4.036,9.152-7.555,14.266-10.546c21.494-12.572,48.742-15.941,72.393-7.76c3.558,1.231,6.871,3.181,10.657,3.34
			c3.304,0.138,6.897-0.898,10.223-1.09c6.65-0.385,13.352,0.136,19.898,1.347c7.175,1.327,14.204,3.511,20.865,6.489
			c5.36,2.397,11.711,8.523,17.84,7.892c3.543,1.288,8.337,0.062,12.081,0.258c3.81,0.199,7.599,0.845,11.315,1.692
			c9.27,2.114,18.269,5.569,26.776,9.789c-141.416,16.775-288.474,19.687-421.063,8.494
			C405.308,97.382,420.867,89.26,437.167,91.822z M385.938,128.365c133.802,12.012,282.832,9.585,426.401-6.947
			c6.067,22.174,10.859,44.803,14.439,67.644c-93.853,16.562-271.639,37.432-453.884,2.942
			C376.141,170.53,380.509,149.296,385.938,128.365z M779.712,355.343c6.565-0.949,13.183-5.652,18.384-9.45
			c13.655-9.973,25.215-22.921,35.841-35.98c-0.728,19.717-2.336,39.404-4.944,58.878c-2.261,16.085-19.053,30.207-32.939,36.597
			c-18.032,8.297-39.168,2.439-56.667-4.513c-31.058-12.339-64.158-29.301-89.761-51.033
			c-11.978-10.167-19.835-23.062-13.475-38.749c2.821-6.957,7.188-13.202,11.23-19.501c15.703-24.47,31.407-48.939,47.111-73.408
			c53.387-4.307,99.343-11.012,134.014-17.109c4.004,29.303,6.006,58.908,5.885,88.454c-16.956,23.023-42.225,50.899-58.059,54.145
			C767.875,345.397,771.792,356.488,779.712,355.343z M763.06,559.506c0.617,16.044-12.534,29.872-28.648,29.872
			c-15.606,0-28.693-13.088-28.696-28.696c-0.002-15.612,13.076-28.726,28.696-28.726
			C749.585,531.956,762.478,544.352,763.06,559.506z M632.43,442.017c-5.744,4.42-9.362,9.948-16.164,13.313
			c-5.345,2.644-11.169,4.036-17.103,4.452c-23.846,1.673-49.021-9.209-71.08-17.092c-12.877-4.602-28.162-8.676-39.591-16.367
			c-9.913-6.671-5.77-16.753-3.199-26.648c7.775-29.922,20.571-57.985,31.147-86.931c6.802-18.619,13.087-48.39,37.789-49.423
			c26.269-1.122,60.425,8.857,81.658,23.721c-9.844,15.606-19.462,32.54-11.106,51.097c8.199,18.207,27.829,29.662,44.018,39.813
			c-3.806,5.006-17.201,20.483-9.608,26.144c8.238,6.143,16.044-14.728,20.042-19.774c8.554,5.065,17.32,9.858,26.481,14.438
			c-17.8,32.042-36.134,67.558-78.534,64.369c4.85-3.167,15.791-10.521,16.03-17.001
			C643.461,439.403,636.456,438.919,632.43,442.017z M596.03,593.776c-23.501,0-23.494-36.408,0-36.4
			C619.477,557.383,619.515,593.776,596.03,593.776z M464.885,562.108c-5.203,0-22.226,3.039-26.245-1.661
			c-8.345-9.757,18.374-7.833,21.164-7.833c9.079,0,18.158,0,27.237,0c-8.25-4.295-16.632-8.397-24.772-12.895
			c-3.499-1.933-9.575-5.911-3.959-9.888c2.919-2.067,6.111,0.32,8.757,1.696c9.525,4.954,19.05,9.908,28.576,14.862
			c2.109,1.096,22.113,9.018,15.393,13.595c-6.748,4.569-13.496,9.138-20.244,13.707c-8.32,5.633-16.996,13.51-26.144,17.703
			c-5.642,2.586-11.427-1.577-6.393-7.173c2.002-2.225,5.821-3.94,8.27-5.598c8.133-5.505,16.266-11.01,24.399-16.515
			C482.244,562.108,473.564,562.108,464.885,562.108z M366.555,318.407c-1.911-38.099-0.334-76.471,4.671-114.359
			c69.131,13.044,137.564,18.2,201.113,18.686c11.501,6.825,1.851,20.475-2.366,28.907c-12.479-1.152-25.641-1.319-36.433,5.909
			c-8.331,5.581-13.885,14.331-18.065,23.252c-4.8,10.244-7.88,21.171-11.902,31.719c-5.484,14.38-11.403,28.588-16.775,43.013
			C444.422,355.019,401.894,341.855,366.555,318.407z M858.453,323.302c-3.306,64.297-18.785,126.949-35.784,188.796
			c-17.259,62.79-34.923,125.268-46.487,189.429c-23.266,129.077-27.14,261.43-11.647,391.664
			c-104.12,50.636-224.643,50.314-328.667,0c8.511-71.669,11.23-144.022,8.003-216.124c-2.879-64.335-10.483-128.455-22.693-191.686
			c-12.148-62.91-30.2-124.218-46.918-186.001c-16.657-61.559-30.587-123.825-33.106-187.76
			c-2.458-62.396,4.355-125.232,20.396-185.59c4.004,0.425,8.099,0.789,12.134,1.183c-17.032,66.414-23.275,135.734-18.516,204.092
			c8.639,124.088,57.366,240.863,80.261,362.395c23.174,123.015,28.54,249.213,16.122,373.768c-1.188,2.391,2.009,4.987,3.458,6.097
			c5.227,4.005,14.344,6.38,20.452,8.777c6.862,2.692,13.81,5.174,20.829,7.428c26.8,8.607,54.611,14.009,82.69,16.006
			c28.087,1.997,56.411,0.598,84.161-4.183c14.493-2.497,28.829-5.913,42.889-10.225c12.824-3.932,28.404-7.79,39.789-15.043
			c0-1.227,2.548-3.312,2.548-5.399c-1.399-2.799-0.766-8.04-1.059-11.248c-0.386-4.235-0.75-8.471-1.094-12.709
			c-0.732-9.025-1.369-18.057-1.911-27.094c-1.023-17.071-1.711-34.161-2.068-51.258c-0.74-35.412-0.067-70.853,1.99-106.213
			c3.641-62.592,11.603-124.949,23.983-186.416c12.465-61.891,30.838-122.21,47.022-183.171
			c16.321-61.478,29.198-123.68,31.03-187.451c1.794-62.419-5.497-125.103-21.725-185.404c4.156-0.485,8.311-0.971,12.467-1.486
			C854.636,184.927,861.983,254.637,858.453,323.302z"/>
	</g>
	<path fill="#452626" d="M865.245,160.924c-3.483-18.464-7.714-36.789-12.773-54.885c0-0.03,0-0.03,0-0.03
		c-1.293-4.529-6.216-7.333-9.797-9.854c-7.066-4.974-14.714-9.129-22.598-12.647c-15.33-6.842-33.309-12.508-50.295-10.35
		c-20.718-13.165-47.23-18.989-70.405-15.471c-36.673-15.379-81.203-7.128-110.263,19.778
		c-17.685-14.196-43.286-20.96-66.067-16.986c-24.631-8.1-52.72-1.153-70.283,16.896c-29.848-11.968-62.813,3.25-76.017,31.85
		c-7.047-0.672-18.481-4.109-25.192-1.567c-7.849,2.974-8.619,17.356-10.345,24.34c-4.678,18.929-8.467,38.079-11.39,57.356
		c-5.942,39.181-8.3,78.911-7.008,118.52c2.636,80.779,23.262,158.522,44.835,235.941c22.006,78.973,40.761,158.218,50.38,239.757
		c9.522,80.714,11.444,162.298,5.804,243.374c-1.408,20.241-3.284,40.45-5.623,60.604c-1.112,9.585-2.772,15.672,6.735,20.553
		c9.676,4.968,19.75,9.297,29.831,13.368c35.771,14.444,73.555,23.958,112.024,27.234c36.47,3.105,73.347,0.521,109.195-6.733
		c18.844-3.814,37.429-8.933,55.559-15.333c8.529-3.011,16.958-6.306,25.263-9.891c6.938-2.995,19.291-6.343,24.237-12.232
		c5.107-6.083,1-18.019,0.216-25.156c-1.139-10.361-2.157-20.736-3.05-31.121c-1.782-20.712-3.074-41.467-3.87-62.241
		c-1.546-40.321-1.223-80.713,0.979-121.004c4.442-81.296,16.551-162.16,36.006-241.216c19.418-78.907,45.923-156.191,58.68-236.642
		C881.875,312.321,879.267,235.27,865.245,160.924z M437.167,91.822c6.714,1.055,15.109,8.134,21.788,5.011
		c5.926-2.772,9.933-10.324,15.75-13.945c10.985-6.838,24.657-9.201,37.314-6.569c3.193,0.664,6.419,2.378,9.671,2.618
		c3.176,0.234,6.584-0.943,9.753-1.198c6.601-0.528,13.301,0.049,19.754,1.5c6.453,1.45,12.747,3.795,18.517,7.035
		c5.334,2.995,9.115,7.582,14.082,10.837c7.742,5.074,12.068-1.058,17.417-6.031c4.342-4.036,9.152-7.555,14.266-10.546
		c21.494-12.572,48.742-15.941,72.393-7.76c3.558,1.231,6.871,3.181,10.657,3.34c3.304,0.138,6.897-0.898,10.223-1.09
		c6.65-0.385,13.352,0.136,19.898,1.347c7.175,1.327,14.204,3.511,20.865,6.489c5.36,2.397,11.711,8.523,17.84,7.892
		c3.543,1.288,8.337,0.062,12.081,0.258c3.81,0.199,7.599,0.845,11.315,1.692c9.27,2.114,18.269,5.569,26.776,9.789
		c-141.416,16.775-288.474,19.687-421.063,8.494C405.308,97.382,420.867,89.26,437.167,91.822z M385.938,128.365
		c133.802,12.012,282.832,9.585,426.401-6.947c6.067,22.174,10.859,44.803,14.439,67.644
		c-93.853,16.562-271.639,37.432-453.884,2.942C376.141,170.53,380.509,149.296,385.938,128.365z M779.712,355.343
		c6.565-0.949,13.183-5.652,18.384-9.45c13.655-9.973,25.215-22.921,35.841-35.98c-0.728,19.717-2.336,39.404-4.944,58.878
		c-2.261,16.085-19.053,30.207-32.939,36.597c-18.032,8.297-39.168,2.439-56.667-4.513c-31.058-12.339-64.158-29.301-89.761-51.033
		c-11.978-10.167-19.835-23.062-13.475-38.749c2.821-6.957,7.188-13.202,11.23-19.501c15.703-24.47,31.407-48.939,47.111-73.408
		c53.387-4.307,99.343-11.012,134.014-17.109c4.004,29.303,6.006,58.908,5.885,88.454c-16.956,23.023-42.225,50.899-58.059,54.145
		C767.875,345.397,771.792,356.488,779.712,355.343z M735.869,1067.499c-86.724,37.068-185.309,35.915-271.851-3.185
		c5.252-54.445,7.176-109.21,5.7-163.888c-2.593-96.048-15.694-191.806-39-285.02c-23.372-93.478-56.047-185.304-63.222-282.044
		c34.49,20.96,74.682,32.943,114.995,34.186c-4.85,13.911-9.936,28.506-12.167,43.117c-1.463,9.585,1.396,17.995,9.074,24.049
		c6.05,4.77,13.6,7.465,20.668,10.312c12.44,5.009,25.038,9.63,37.762,13.868c11.356,3.782,22.758,7.619,34.445,10.249
		c12.173,2.739,24.477,2.697,36.8,4.209c24.268,2.979,45.799,3.412,66.28-11.869c19.645-14.658,29.658-36.599,41.283-57.413
		c18.123,8.46,37.068,16.69,57.369,17.415c19.263,0.688,36.404-7.822,50.012-21.176c-8.554,47.229-21.597,94.004-34.277,139.535
		c-10.588,37.959-21.046,75.957-29.409,114.48C730.974,789.562,722.605,929.74,735.869,1067.499z M588.355,222.764
		c31.881-0.152,62.397-1.426,91.001-3.428l-36.916,57.513c-16.107-11.163-38.13-19.656-59.667-23.478
		C587.51,244.313,592.999,232.981,588.355,222.764z M635.888,287.041c-9.844,15.606-19.462,32.54-11.106,51.097
		c8.199,18.207,27.829,29.662,44.018,39.813c-3.806,5.006-17.201,20.483-9.608,26.144c8.238,6.143,16.044-14.728,20.042-19.774
		c8.554,5.065,17.32,9.858,26.481,14.438c-17.8,32.042-36.134,67.558-78.534,64.369c4.85-3.167,15.791-10.521,16.03-17.001
		c0.248-6.725-6.757-7.209-10.782-4.111c-5.744,4.42-9.362,9.948-16.164,13.313c-5.345,2.644-11.169,4.036-17.103,4.452
		c-23.846,1.673-49.021-9.209-71.08-17.092c-12.877-4.602-28.162-8.676-39.591-16.367c-9.913-6.671-5.77-16.753-3.199-26.648
		c7.775-29.922,20.571-57.985,31.147-86.931c6.802-18.619,13.087-48.39,37.789-49.423
		C580.499,262.198,614.655,272.177,635.888,287.041z M569.973,251.641c-12.479-1.152-25.641-1.319-36.433,5.909
		c-8.331,5.581-13.885,14.331-18.065,23.252c-4.8,10.244-7.88,21.171-11.902,31.719c-5.484,14.38-11.403,28.588-16.775,43.013
		c-42.376-0.515-84.904-13.68-120.243-37.128c-1.911-38.099-0.334-76.471,4.671-114.359c69.131,13.044,137.564,18.2,201.113,18.686
		C583.84,229.559,574.191,243.209,569.973,251.641z M858.453,323.302c-3.306,64.297-18.785,126.949-35.784,188.796
		c-17.259,62.79-34.923,125.268-46.487,189.429c-23.266,129.077-27.14,261.43-11.647,391.664
		c-104.12,50.636-224.643,50.314-328.667,0c8.511-71.669,11.23-144.022,8.003-216.124c-2.879-64.335-10.483-128.455-22.693-191.686
		c-12.148-62.91-30.2-124.218-46.918-186.001c-16.657-61.559-30.587-123.825-33.106-187.76
		c-2.458-62.396,4.355-125.232,20.396-185.59c4.004,0.425,8.099,0.789,12.134,1.183c-17.032,66.414-23.275,135.734-18.516,204.092
		c8.639,124.088,57.366,240.863,80.261,362.395c23.174,123.015,28.54,249.213,16.122,373.768c-1.188,2.391,2.009,4.987,3.458,6.097
		c5.227,4.005,14.344,6.38,20.452,8.777c6.862,2.692,13.81,5.174,20.829,7.428c26.8,8.607,54.611,14.009,82.69,16.006
		c28.087,1.997,56.411,0.598,84.161-4.183c14.493-2.497,28.829-5.913,42.889-10.225c12.824-3.932,28.404-7.79,39.789-15.043
		c0-1.227,2.548-3.312,2.548-5.399c-1.399-2.799-0.766-8.04-1.059-11.248c-0.386-4.235-0.75-8.471-1.094-12.709
		c-0.732-9.025-1.369-18.057-1.911-27.094c-1.023-17.071-1.711-34.161-2.068-51.258c-0.74-35.412-0.067-70.853,1.99-106.213
		c3.641-62.592,11.603-124.949,23.983-186.416c12.465-61.891,30.838-122.21,47.022-183.171
		c16.321-61.478,29.198-123.68,31.03-187.451c1.794-62.419-5.497-125.103-21.725-185.404c4.156-0.485,8.311-0.971,12.467-1.486
		C854.636,184.927,861.983,254.637,858.453,323.302z"/>
</g>
</svg>
